<?xml version="1.0" encoding="UTF-8" standalone="no"?>
<svg
   xmlns:dc="http://purl.org/dc/elements/1.1/"
   xmlns:cc="http://creativecommons.org/ns#"
   xmlns:rdf="http://www.w3.org/1999/02/22-rdf-syntax-ns#"
   xmlns:svg="http://www.w3.org/2000/svg"
   xmlns="http://www.w3.org/2000/svg"
   id="svg8"
   version="1.1"
   viewBox="0 0 7.9374995 7.9374995"
   height="30"
   width="30">
  <defs
     id="defs2" />
  <metadata
     id="metadata5">
    <rdf:RDF>
      <cc:Work
         rdf:about="">
        <dc:format>image/svg+xml</dc:format>
        <dc:type
           rdf:resource="http://purl.org/dc/dcmitype/StillImage" />
        <dc:title></dc:title>
      </cc:Work>
    </rdf:RDF>
  </metadata>
  <g
     id="layer1">
    <g
       id="g881"
       transform="matrix(0.03757221,0,0,0.03757221,-8.4438027,-6.5025388)">
      <path
         style="fill:#000000;stroke-width:0.352778"
         d="m 326.82978,336.47181 c -2.01554,-0.71482 -4.02505,-2.53679 -5.26206,-4.77098 -0.88775,-1.60339 -1.04439,-2.26546 -1.03154,-4.35991 0.0126,-2.04807 0.19184,-2.79325 1.05062,-4.36713 4.11105,-7.53422 15.46058,-6.83884 18.39756,1.1272 0.22777,0.61779 0.42466,2.15514 0.43753,3.41632 0.0567,5.56125 -4.16678,9.57297 -9.99853,9.49715 -1.17811,-0.0153 -2.79522,-0.25951 -3.59358,-0.54265 z m 0.56961,-25.5554 c -1.31366,-0.54958 -3.85917,-3.15836 -4.45504,-4.56577 -0.89943,-2.1244 -1.92573,-14.53987 -3.51397,-42.50971 -0.68741,-12.10561 -0.6224,-12.69694 1.66905,-15.18287 1.92205,-2.08518 3.92169,-2.81016 7.71107,-2.79571 4.14985,0.0158 6.34093,0.81377 8.69288,3.16571 2.79084,2.79085 2.78361,2.72936 2.09287,17.81148 -0.75529,16.49127 -1.90164,36.2065 -2.18458,37.57082 -0.51178,2.46785 -2.22418,4.71248 -4.48015,5.87263 -1.61913,0.83264 -4.31744,1.14159 -5.53213,0.63342 z"
         id="path844" />
      <path
         style="fill:#ff0000;stroke-width:0.352777"
         d="m 229.08778,366.65817 c -1.25918,-0.50062 -2.76758,-2.02323 -3.62741,-3.66158 -0.92052,-1.754 -1.01254,-5.78381 -0.16917,-7.40833 29.75924,-50.74947 64.22444,-107.63263 93.69527,-157.69167 0.67798,-1.16417 1.5359,-2.5099 1.90648,-2.9905 1.17283,-1.52103 3.74176,-3.08964 6.10965,-3.73059 1.9944,-0.53987 2.54978,-0.56187 4.31023,-0.17075 4.22663,0.93902 5.91407,2.38782 9.28844,7.97494 29.35373,51.98684 95.21469,158.55016 95.21469,158.55016 0.97678,3.62748 -1.66001,7.77849 -5.70386,8.97938 z m 174.55188,-21.83524 c -0.48361,-1.2751 -73.88925,-124.03919 -74.06572,-123.86801 l -72.42969,124.57917 z"
         id="path844-3" />
    </g>
  </g>
</svg>
