<svg id="Layer_4" data-name="Layer 4" xmlns="http://www.w3.org/2000/svg" width="30.09" height="30.2" viewBox="0 0 30.09 30.2"><title>expansion_icon</title><path d="M7.18,18.39H5.77a.47.47,0,0,0-.33.14L3.7,20.27H2.63A1.39,1.39,0,0,0,1,19.36a1.4,1.4,0,1,0,1.6,1.84H3.79a.47.47,0,0,0,.33-.13l1.74-1.74H7.18v.5a.52.52,0,0,0,.14.36L9.83,22.7a.51.51,0,0,0,.36.14h2.37v.64L8.9,24.82a.5.5,0,0,0-.32.46v2s-.93.74-.93,1.37a1.46,1.46,0,0,0,2.92,0c0-.63-.82-1.37-.82-1.37V25.55l2.81-1.06v.88a1.46,1.46,0,0,0-.9,1.7,1.4,1.4,0,0,0,2.77-.33,1.46,1.46,0,0,0-.93-1.37V22.84h4.91V24.3a.5.5,0,0,0,.14.35l1.74,1.8v.87a1.41,1.41,0,0,0-.91,1.61A1.38,1.38,0,0,0,20.45,30a1.4,1.4,0,0,0,.77-2.69V26.16a.51.51,0,0,0-.13-.33L19.35,24.1V22.84h.5a.54.54,0,0,0,.36-.14l2.5-2.44a.45.45,0,0,0,.15-.34V17.46h.61l1.29,3.43a.48.48,0,0,0,.46.31h2.06A1.4,1.4,0,0,0,30,21a1.4,1.4,0,0,0-2.69-.77H25.5l-1.05-2.81h.84a1.4,1.4,0,1,0,0-.94H22.86V11.61h1.41a.47.47,0,0,0,.33-.14l1.73-1.74h1a1.39,1.39,0,0,0,1.6.91,1.4,1.4,0,1,0-1.6-1.84H26.12a.47.47,0,0,0-.33.13l-1.74,1.74H22.86v-.5a.49.49,0,0,0-.15-.36L20.21,7.3a.54.54,0,0,0-.36-.14H17.24V6.52L20.9,5.18a.48.48,0,0,0,.32-.46v-2a1.41,1.41,0,1,0-.93,0V4.45L17.48,5.51V4.63a1.47,1.47,0,0,0,.9-1.7,1.4,1.4,0,0,0-2.78.33,1.46,1.46,0,0,0,.94,1.37V7.16H11.62V5.7a.54.54,0,0,0-.13-.35L9.75,3.55V2.73s.82-.74.82-1.37a1.46,1.46,0,0,0-2.92,0c0,.63.93,1.37.93,1.37V3.84a.47.47,0,0,0,.14.33L10.45,5.9V7.16H10a.47.47,0,0,0-.33.14L7.31,9.74a.47.47,0,0,0-.13.34v2.46H6.56L5.27,9.1a.47.47,0,0,0-.44-.3H2.63A1.39,1.39,0,0,0,1,7.89,1.39,1.39,0,0,0-.06,9a1.4,1.4,0,0,0,2.69.77H4.41l1,2.81H4.75a1.4,1.4,0,1,0,0,.94H7.18ZM28.59,8.67a.49.49,0,1,1,0,1,.49.49,0,0,1,0-1ZM20.8.87a.49.49,0,1,1-.49.49A.49.49,0,0,1,20.8.87ZM16.9,2.82a.49.49,0,1,1,0,1,.49.49,0,0,1,0-1ZM9.11.87a.49.49,0,1,1-.49.49A.49.49,0,0,1,9.11.87ZM1.32,9.64a.49.49,0,1,1,.48-.49A.49.49,0,0,1,1.32,9.64Zm1.94,3.9a.49.49,0,0,1,0-1,.49.49,0,0,1,0,1ZM1.32,21.33a.49.49,0,1,1,.48-.48A.49.49,0,0,1,1.32,21.33Zm7.79,7.8a.49.49,0,1,1,.49-.49A.49.49,0,0,1,9.11,29.13ZM13,27.18a.49.49,0,1,1,.48-.49A.49.49,0,0,1,13,27.18Zm7.79,1.95a.49.49,0,1,1,.49-.49A.49.49,0,0,1,20.8,29.13Zm7.79-8.77a.49.49,0,1,1,0,1,.49.49,0,0,1,0-1Zm-1.94-3.9a.49.49,0,1,1-.49.49A.49.49,0,0,1,26.65,16.46Zm-5,3.31-2.14,2.14h-9.3L8.11,19.77v-9.3l2.14-2.14h9.3l2.14,2.14Z" transform="translate(0.09 0.1)"/><path d="M18.65,21.24H11.16a.94.94,0,0,1-.69-.29l-1.41-1.4a1,1,0,0,1-.28-.69V11.37a1,1,0,0,1,.29-.69l1.4-1.4A1,1,0,0,1,11.16,9h7.49a1,1,0,0,1,.68.28l1.41,1.41a1,1,0,0,1,.28.68v7.49a1,1,0,0,1-.28.69L19.33,21A.92.92,0,0,1,18.65,21.24Zm0-1Zm-7.45,0h7.46L20,18.85V11.39L18.63,10H11.17L9.79,11.39v7.46Z" transform="translate(0.09 0.1)"/></svg>