<?xml version="1.0" encoding="UTF-8" standalone="no"?>
<svg
   id="svg8"
   version="1.1"
   viewBox="0 0 7.9375002 7.9375004"
   height="30"
   width="30"
   xmlns="http://www.w3.org/2000/svg"
   xmlns:svg="http://www.w3.org/2000/svg"
   xmlns:rdf="http://www.w3.org/1999/02/22-rdf-syntax-ns#"
   xmlns:cc="http://creativecommons.org/ns#"
   xmlns:dc="http://purl.org/dc/elements/1.1/">
  <defs
     id="defs2" />
  <metadata
     id="metadata5">
    <rdf:RDF>
      <cc:Work
         rdf:about="">
        <dc:format>image/svg+xml</dc:format>
        <dc:type
           rdf:resource="http://purl.org/dc/dcmitype/StillImage" />
      </cc:Work>
    </rdf:RDF>
  </metadata>
  <g
     id="layer2"
     transform="translate(-265.3285,-133.923)">
    <g
       id="g4343">
      <path
         id="path859"
         style="fill:#000000;stroke:#000000;stroke-width:0"
         d="m 269.19953,133.92301 a 3.9590988,3.9590988 0 0 0 -3.87126,3.95893 3.9590988,3.9590988 0 0 0 3.96044,3.95894 3.9590988,3.9590988 0 0 0 3.95891,-3.95894 3.9590988,3.9590988 0 0 0 -3.95891,-3.95893 3.9590988,3.9590988 0 0 0 -0.0892,0 z m 0.0892,0.84558 a 3.11356,3.11356 0 0 1 3.11335,3.11335 3.11356,3.11356 0 0 1 -3.11335,3.11335 3.11356,3.11356 0 0 1 -3.11488,-3.11335 3.11356,3.11356 0 0 1 3.11488,-3.11335 z" />
      <g
         aria-label="!"
         id="text2062"
         style="font-size:26.4583px;line-height:1.25;font-family:arial;-inkscape-font-specification:arial;letter-spacing:0px;word-spacing:0px;stroke-width:0.264583"
         transform="matrix(0.22119057,0,0,0.22119057,206.78474,109.51222)">
        <path
           d="m 281.82775,132.80351 -0.71055,-10.03814 v -4.1987 h 2.88096 v 4.1987 l -0.67179,10.03814 z m -0.60719,4.70255 v -2.64842 h 2.67425 v 2.64842 z"
           id="path4234" />
      </g>
    </g>
  </g>
</svg>
