<?xml version="1.0" encoding="UTF-8" standalone="no"?>
<svg
   xmlns:dc="http://purl.org/dc/elements/1.1/"
   xmlns:cc="http://creativecommons.org/ns#"
   xmlns:rdf="http://www.w3.org/1999/02/22-rdf-syntax-ns#"
   xmlns:svg="http://www.w3.org/2000/svg"
   xmlns="http://www.w3.org/2000/svg"
   xmlns:sodipodi="http://sodipodi.sourceforge.net/DTD/sodipodi-0.dtd"
   xmlns:inkscape="http://www.inkscape.org/namespaces/inkscape"
   sodipodi:docname="network_icon.svg"
   inkscape:version="1.0.1 (1.0.1+r74)"
   id="svg8"
   version="1.1"
   viewBox="0 0 7.9374995 7.9374995"
   height="30"
   width="30">
  <defs
     id="defs2" />
  <sodipodi:namedview
     inkscape:window-maximized="1"
     inkscape:window-y="49"
     inkscape:window-x="0"
     inkscape:window-height="1527"
     inkscape:window-width="3840"
     inkscape:snap-page="true"
     showgrid="false"
     inkscape:document-rotation="0"
     inkscape:current-layer="layer2"
     inkscape:document-units="mm"
     inkscape:cy="25.871329"
     inkscape:cx="28.515814"
     inkscape:zoom="22.4"
     inkscape:pageshadow="2"
     inkscape:pageopacity="0.0"
     borderopacity="1.0"
     bordercolor="#666666"
     pagecolor="#ffffff"
     id="base"
     units="px"
     inkscape:snap-global="false" />
  <metadata
     id="metadata5">
    <rdf:RDF>
      <cc:Work
         rdf:about="">
        <dc:format>image/svg+xml</dc:format>
        <dc:type
           rdf:resource="http://purl.org/dc/dcmitype/StillImage" />
        <dc:title></dc:title>
      </cc:Work>
    </rdf:RDF>
  </metadata>
  <g
     inkscape:groupmode="layer"
     id="layer2"
     inkscape:label="Layer 2">
    <g
       id="g948"
       transform="matrix(0.31946764,0,0,0.31946764,-0.67991232,-0.62259431)">
      <path
         id="path845"
         style="fill:#000000;stroke:#000000;stroke-width:0"
         d="M 14.766977,2.2073451 A 7.5703777,7.5703777 0 0 0 7.1966818,9.7776403 7.5703777,7.5703777 0 0 0 14.766977,17.347935 7.5703777,7.5703777 0 0 0 22.337271,9.7776403 7.5703777,7.5703777 0 0 0 14.766977,2.2073451 Z m -0.01623,1.1654106 a 6.4048775,6.4048775 0 0 1 0.01623,0 6.4048775,6.4048775 0 0 1 6.404884,6.4048846 A 6.4048775,6.4048775 0 0 1 14.766977,16.182525 6.4048775,6.4048775 0 0 1 8.3620911,9.7776403 6.4048775,6.4048775 0 0 1 14.750745,3.3727557 Z M 14.634878,21.736888 a 2.4436585,2.4436585 0 0 0 -2.44369,2.44369 2.4436585,2.4436585 0 0 0 2.44369,2.443689 2.4436585,2.4436585 0 0 0 2.44369,-2.443689 2.4436585,2.4436585 0 0 0 -2.44369,-2.44369 z m 0,0.801079 a 1.6427757,1.6427757 0 0 1 1.642861,1.642611 1.6427757,1.6427757 0 0 1 -1.642861,1.642861 1.6427757,1.6427757 0 0 1 -1.64261,-1.642861 1.6427757,1.6427757 0 0 1 1.64261,-1.642611 z" />
      <path
         style="fill:none;stroke:#000000;stroke-width:1.09432;stroke-linecap:round;stroke-linejoin:miter;stroke-miterlimit:4;stroke-dasharray:none;stroke-opacity:1"
         d="m 16.868763,24.159301 h 9.069448"
         id="path878" />
      <path
         style="fill:none;stroke:#000000;stroke-width:1.0945;stroke-linecap:round;stroke-linejoin:miter;stroke-miterlimit:4;stroke-dasharray:none;stroke-opacity:1"
         d="m 14.634877,16.959473 v 4.749013"
         id="path880" />
      <path
         style="fill:none;stroke:#000000;stroke-width:1.09442;stroke-linecap:round;stroke-linejoin:miter;stroke-miterlimit:4;stroke-dasharray:none;stroke-opacity:1"
         d="M 8.4143317,9.8724925 H 21.296495"
         id="path882" />
      <path
         style="fill:none;stroke:#000000;stroke-width:1.09442;stroke-linecap:round;stroke-linejoin:miter;stroke-miterlimit:4;stroke-dasharray:none;stroke-opacity:1"
         d="M 9.0694866,13.524843 H 20.336668"
         id="path884" />
      <path
         style="fill:none;stroke:#000000;stroke-width:1.09442;stroke-linecap:round;stroke-linejoin:miter;stroke-miterlimit:4;stroke-dasharray:none;stroke-opacity:1"
         d="M 8.9728805,6.0892361 H 20.575057"
         id="path886" />
      <ellipse
         style="fill:none;stroke:#000000;stroke-width:1.09442;stroke-linecap:round;stroke-miterlimit:4;stroke-dasharray:none"
         id="path916"
         cx="14.621795"
         cy="9.8579531"
         rx="3.0113711"
         ry="7.0476532" />
      <path
         style="fill:none;stroke:#000000;stroke-width:1.09432;stroke-linecap:round;stroke-linejoin:miter;stroke-miterlimit:4;stroke-dasharray:none;stroke-opacity:1"
         d="m 3.258156,24.159301 h 9.069448"
         id="path938" />
    </g>
  </g>
</svg>
