<?xml version="1.0" encoding="UTF-8" standalone="no"?>
<svg
   xmlns:dc="http://purl.org/dc/elements/1.1/"
   xmlns:cc="http://creativecommons.org/ns#"
   xmlns:rdf="http://www.w3.org/1999/02/22-rdf-syntax-ns#"
   xmlns:svg="http://www.w3.org/2000/svg"
   xmlns="http://www.w3.org/2000/svg"
   xmlns:sodipodi="http://sodipodi.sourceforge.net/DTD/sodipodi-0.dtd"
   xmlns:inkscape="http://www.inkscape.org/namespaces/inkscape"
   inkscape:version="1.0.1 (1.0.1+r74)"
   height="30"
   width="30"
   sodipodi:docname="play_icon.svg"
   xml:space="preserve"
   viewBox="0 0 30 30"
   y="0px"
   x="0px"
   id="Capa_1"
   version="1.1"><metadata
   id="metadata39">
  <rdf:RDF>
    <cc:Work
   rdf:about="">
      <dc:format>image/svg+xml</dc:format>
      <dc:type
   rdf:resource="http://purl.org/dc/dcmitype/StillImage" />
      <dc:title></dc:title>
    </cc:Work>
  </rdf:RDF>
</metadata>
<defs
   id="defs37" />
<sodipodi:namedview
   inkscape:current-layer="Capa_1"
   inkscape:window-maximized="0"
   inkscape:window-y="49"
   inkscape:window-x="0"
   inkscape:cy="30"
   inkscape:cx="12.332991"
   inkscape:zoom="16.216667"
   showgrid="false"
   id="namedview35"
   inkscape:window-height="1503"
   inkscape:window-width="1907"
   inkscape:pageshadow="2"
   inkscape:pageopacity="0"
   guidetolerance="10"
   gridtolerance="10"
   objecttolerance="10"
   borderopacity="1"
   inkscape:document-rotation="0"
   bordercolor="#666666"
   pagecolor="#ffffff"
   inkscape:snap-bbox="true"
   inkscape:snap-bbox-edge-midpoints="true"
   inkscape:snap-bbox-midpoints="true" />

<path
   style="stroke-width:0.498453"
   inkscape:connector-curvature="0"
   id="path2"
   d="M 14.953578,0 C 6.7081751,0 0,6.7081751 0,14.953578 c 0,8.245403 6.7081751,14.953578 14.953578,14.953578 8.245403,0 14.953578,-6.708175 14.953578,-14.953578 C 29.907156,6.7081751 23.198981,0 14.953578,0 Z m 7.757418,15.3653 -10.965957,7.476789 c -0.08424,0.05732 -0.182434,0.08672 -0.280629,0.08672 -0.07975,0 -0.160003,-0.01894 -0.232778,-0.05782 -0.163492,-0.08623 -0.265675,-0.255706 -0.265675,-0.440632 V 7.4767891 c 0,-0.184926 0.102183,-0.3543999 0.265675,-0.4406321 0.163493,-0.086731 0.36088,-0.074768 0.513905,0.02891 l 10.965957,7.47679 c 0.13558,0.09271 0.217326,0.246733 0.217326,0.411721 0,0.164988 -0.08174,0.31901 -0.217824,0.411722 z" />

<g
   id="g4">
</g>

<g
   id="g6">
</g>

<g
   id="g8">
</g>

<g
   id="g10">
</g>

<g
   id="g12">
</g>

<g
   id="g14">
</g>

<g
   id="g16">
</g>

<g
   id="g18">
</g>

<g
   id="g20">
</g>

<g
   id="g22">
</g>

<g
   id="g24">
</g>

<g
   id="g26">
</g>

<g
   id="g28">
</g>

<g
   id="g30">
</g>

<g
   id="g32">
</g>

</svg>
