<?xml version="1.0" encoding="UTF-8" standalone="no"?>
<svg
   xmlns:dc="http://purl.org/dc/elements/1.1/"
   xmlns:cc="http://creativecommons.org/ns#"
   xmlns:rdf="http://www.w3.org/1999/02/22-rdf-syntax-ns#"
   xmlns:svg="http://www.w3.org/2000/svg"
   xmlns="http://www.w3.org/2000/svg"
   xmlns:sodipodi="http://sodipodi.sourceforge.net/DTD/sodipodi-0.dtd"
   xmlns:inkscape="http://www.inkscape.org/namespaces/inkscape"
   inkscape:version="1.0.1 (1.0.1+r74)"
   sodipodi:docname="power_off_icon.svg"
   xml:space="preserve"
   width="30"
   viewBox="0 0 30 30"
   version="1.1"
   id="Layer_1"
   height="30"
   enable-background="new 0 0 64 64">
  <metadata
   id="metadata9">
    <rdf:RDF>
      <cc:Work
   rdf:about="">
        <dc:format>image/svg+xml</dc:format>
        <dc:type
   rdf:resource="http://purl.org/dc/dcmitype/StillImage" />
        <dc:title></dc:title>
      </cc:Work>
    </rdf:RDF>
  </metadata>
  <defs
   id="defs7" />
  <sodipodi:namedview
   inkscape:current-layer="Layer_1"
   inkscape:window-maximized="0"
   inkscape:window-y="49"
   inkscape:window-x="0"
   inkscape:cy="20.075546"
   inkscape:cx="2.0362831"
   inkscape:zoom="15.203125"
   showgrid="false"
   id="namedview5"
   inkscape:window-height="1128"
   inkscape:window-width="1785"
   inkscape:pageshadow="2"
   inkscape:pageopacity="0"
   guidetolerance="10"
   gridtolerance="10"
   objecttolerance="10"
   borderopacity="1"
   inkscape:document-rotation="0"
   bordercolor="#666666"
   pagecolor="#ffffff" />
  <path
   style="stroke-width:0.603192"
   inkscape:connector-curvature="0"
   id="path2"
   d="m 30.071111,15.064556 c 0,-8.2570967 -6.717752,-14.97484749 -14.974848,-14.97484749 -8.2570965,0 -14.97484682,6.71775079 -14.97484682,14.97484749 0,8.257096 6.71775032,14.974847 14.97484682,14.974847 8.257096,0 14.974848,-6.717751 14.974848,-14.974847 z m -13.504868,-0.02292 c 0,0.784753 -0.635765,1.42112 -1.421121,1.42112 -0.784754,0 -1.421121,-0.636367 -1.421121,-1.42112 V 7.6507218 c 0,-0.7847529 0.636367,-1.4211206 1.421121,-1.4211206 0.784753,0 1.421121,0.6357645 1.421121,1.4211206 z m 8.199793,0.04765 c 0,5.331615 -4.337554,9.669169 -9.669773,9.669169 -5.332218,0 -9.6697722,-4.337554 -9.6697722,-9.669169 0,-2.584678 1.0067275,-5.014336 2.8356058,-6.8401987 C 8.5395651,7.97162 8.9026867,7.833489 9.2664116,7.833489 c 0.3637248,0 0.7280528,0.1387342 1.0055214,0.4168058 0.554937,0.5555398 0.554333,1.4548993 -0.0012,2.0098362 -1.2902275,1.289625 -2.001391,3.0045 -2.001391,4.829156 0,3.763919 3.062406,6.826325 6.826928,6.826325 3.764522,0 6.826928,-3.062406 6.826928,-6.826325 0,-1.82345 -0.709353,-3.537722 -1.998979,-4.827347 -0.554936,-0.5555395 -0.554333,-1.4548989 6.04e-4,-2.0104389 0.55554,-0.5555399 1.454899,-0.5543336 2.010439,6.032e-4 1.82526,1.8264657 2.830781,4.2549177 2.830781,6.8371827 z" />
</svg>
