<?xml version="1.0" encoding="UTF-8" standalone="no"?>
<!-- Created with Inkscape (http://www.inkscape.org/) -->

<svg
   xmlns:dc="http://purl.org/dc/elements/1.1/"
   xmlns:cc="http://creativecommons.org/ns#"
   xmlns:rdf="http://www.w3.org/1999/02/22-rdf-syntax-ns#"
   xmlns:svg="http://www.w3.org/2000/svg"
   xmlns="http://www.w3.org/2000/svg"
   xmlns:sodipodi="http://sodipodi.sourceforge.net/DTD/sodipodi-0.dtd"
   xmlns:inkscape="http://www.inkscape.org/namespaces/inkscape"
   width="86.101501mm"
   height="20.101505mm"
   viewBox="0 0 86.101501 20.101505"
   version="1.1"
   id="svg8"
   inkscape:version="0.92.4 (unknown)"
   sodipodi:docname="PVJ_2019.svg">
  <defs
     id="defs2" />
  <sodipodi:namedview
     id="base"
     pagecolor="#ffffff"
     bordercolor="#666666"
     borderopacity="1.0"
     inkscape:pageopacity="0.0"
     inkscape:pageshadow="2"
     inkscape:zoom="1.979899"
     inkscape:cx="298.69457"
     inkscape:cy="-60.249004"
     inkscape:document-units="mm"
     inkscape:current-layer="layer1"
     showgrid="false"
     inkscape:window-width="3834"
     inkscape:window-height="1503"
     inkscape:window-x="0"
     inkscape:window-y="49"
     inkscape:window-maximized="1"
     showguides="true"
     inkscape:snap-bbox="true"
     inkscape:bbox-paths="true"
     inkscape:bbox-nodes="true"
     inkscape:snap-bbox-edge-midpoints="true"
     inkscape:snap-bbox-midpoints="true"
     inkscape:guide-bbox="true"
     fit-margin-top="0"
     fit-margin-left="0"
     fit-margin-right="0"
     fit-margin-bottom="0" />
  <metadata
     id="metadata5">
    <rdf:RDF>
      <cc:Work
         rdf:about="">
        <dc:format>image/svg+xml</dc:format>
        <dc:type
           rdf:resource="http://purl.org/dc/dcmitype/StillImage" />
        <dc:title></dc:title>
      </cc:Work>
    </rdf:RDF>
  </metadata>
  <g
     inkscape:label="Layer 1"
     inkscape:groupmode="layer"
     id="layer1"
     transform="translate(-18.688507,46.536306)">
    <g
       aria-label="The pocket sized multimedia player"
       style="font-style:normal;font-variant:normal;font-weight:normal;font-stretch:normal;font-size:3.76392794px;line-height:1.25;font-family:Orbitron;-inkscape-font-specification:Orbitron;letter-spacing:0.2352455px;word-spacing:0px;fill:#000000;fill-opacity:1;stroke:none;stroke-width:0.2352455"
       id="text1318">
      <path
         d="m 21.739263,-31.437462 h 2.710028 v 0.304878 h -1.200693 v 2.40515 H 22.94372 v -2.40515 h -1.204457 z"
         style="letter-spacing:0.2352455px;stroke-width:0.2352455"
         id="path2004" />
      <path
         d="m 26.731231,-30.910512 q 0.188196,0 0.319934,0.135501 0.135501,0.131738 0.135501,0.319934 v 1.727643 h -0.308642 v -1.727643 q 0,-0.06022 -0.04517,-0.101626 -0.0414,-0.04517 -0.101626,-0.04517 h -1.309847 q -0.06022,0 -0.10539,0.04517 -0.04517,0.0414 -0.04517,0.101626 v 1.727643 h -0.308642 v -2.898225 h 0.308642 v 0.715147 z"
         style="letter-spacing:0.2352455px;stroke-width:0.2352455"
         id="path2006" />
      <path
         d="m 29.465607,-30.910512 q 0.191961,0 0.323698,0.135501 0.135501,0.131738 0.135501,0.319934 v 0.790425 h -1.915839 v 0.481783 q 0,0.06022 0.0414,0.10539 0.04517,0.0414 0.10539,0.0414 h 1.769046 v 0.308642 H 28.15576 q -0.188196,0 -0.323698,-0.131738 -0.131737,-0.135501 -0.131737,-0.323697 v -1.272208 q 0,-0.188196 0.131737,-0.319934 0.135502,-0.135501 0.323698,-0.135501 z m -1.45664,0.937218 H 29.6124 v -0.481783 q 0,-0.06022 -0.04517,-0.101626 -0.0414,-0.04517 -0.101626,-0.04517 H 28.15576 q -0.06022,0 -0.10539,0.04517 -0.0414,0.0414 -0.0414,0.101626 z"
         style="letter-spacing:0.2352455px;stroke-width:0.2352455"
         id="path2008" />
      <path
         d="m 33.575405,-30.910512 q 0.188196,0 0.319934,0.135501 0.135501,0.131738 0.135501,0.319934 v 1.272208 q 0,0.188196 -0.135501,0.323697 -0.131738,0.131738 -0.319934,0.131738 h -1.460404 v 0.865703 h -0.308642 v -3.048781 z m 0.146793,1.727643 v -1.272208 q 0,-0.06022 -0.04517,-0.101626 -0.0414,-0.04517 -0.101626,-0.04517 h -1.309847 q -0.06022,0 -0.10539,0.04517 -0.04517,0.0414 -0.04517,0.101626 v 1.272208 q 0,0.06022 0.04517,0.10539 0.04517,0.0414 0.10539,0.0414 h 1.309847 q 0.06022,0 0.101626,-0.0414 0.04517,-0.04517 0.04517,-0.10539 z"
         style="letter-spacing:0.2352455px;stroke-width:0.2352455"
         id="path2010" />
      <path
         d="m 34.985231,-30.910512 h 1.309847 q 0.19196,0 0.323698,0.135501 0.135501,0.131738 0.135501,0.319934 v 1.272208 q 0,0.188196 -0.135501,0.323697 -0.131738,0.131738 -0.323698,0.131738 h -1.309847 q -0.188196,0 -0.323698,-0.131738 -0.131737,-0.135501 -0.131737,-0.323697 v -1.272208 q 0,-0.188196 0.131737,-0.319934 0.135502,-0.135501 0.323698,-0.135501 z m 1.309847,0.308642 h -1.309847 q -0.06022,0 -0.10539,0.04517 -0.0414,0.0414 -0.0414,0.101626 v 1.272208 q 0,0.06022 0.0414,0.10539 0.04517,0.0414 0.10539,0.0414 h 1.309847 q 0.06022,0 0.101626,-0.0414 0.04517,-0.04517 0.04517,-0.10539 v -1.272208 q 0,-0.06022 -0.04517,-0.101626 -0.0414,-0.04517 -0.101626,-0.04517 z"
         style="letter-spacing:0.2352455px;stroke-width:0.2352455"
         id="path2012" />
      <path
         d="m 37.82288,-29.036076 h 1.769046 v 0.308642 H 37.82288 q -0.188196,0 -0.323698,-0.131738 -0.131737,-0.135501 -0.131737,-0.323697 v -1.272208 q 0,-0.188196 0.131737,-0.319934 0.135502,-0.135501 0.323698,-0.135501 h 1.761519 v 0.308642 H 37.82288 q -0.06022,0 -0.10539,0.04517 -0.0414,0.0414 -0.0414,0.101626 v 1.272208 q 0,0.06022 0.0414,0.10539 0.04517,0.0414 0.10539,0.0414 z"
         style="letter-spacing:0.2352455px;stroke-width:0.2352455"
         id="path2014" />
      <path
         d="m 41.926619,-30.910512 h 0.406504 l -0.989913,1.091539 0.986149,1.091539 h -0.40274 l -0.858175,-0.937218 h -0.602229 v 0.937218 h -0.308642 v -2.898225 h 0.308642 v 1.652365 h 0.602229 z"
         style="letter-spacing:0.2352455px;stroke-width:0.2352455"
         id="path2016" />
      <path
         d="m 44.558076,-30.910512 q 0.191961,0 0.323698,0.135501 0.135502,0.131738 0.135502,0.319934 v 0.790425 h -1.91584 v 0.481783 q 0,0.06022 0.0414,0.10539 0.04517,0.0414 0.105389,0.0414 h 1.769047 v 0.308642 h -1.769047 q -0.188196,0 -0.323697,-0.131738 -0.131738,-0.135501 -0.131738,-0.323697 v -1.272208 q 0,-0.188196 0.131738,-0.319934 0.135501,-0.135501 0.323697,-0.135501 z m -1.45664,0.937218 h 1.603434 v -0.481783 q 0,-0.06022 -0.04517,-0.101626 -0.0414,-0.04517 -0.101626,-0.04517 h -1.309847 q -0.06022,0 -0.105389,0.04517 -0.0414,0.0414 -0.0414,0.101626 z"
         style="letter-spacing:0.2352455px;stroke-width:0.2352455"
         id="path2018" />
      <path
         d="m 46.891358,-30.60187 h -0.944745 v 1.419001 q 0,0.06022 0.0414,0.10539 0.04517,0.0414 0.10539,0.0414 h 0.797952 v 0.308642 h -0.797952 q -0.191961,0 -0.323698,-0.131738 -0.131738,-0.135501 -0.131738,-0.323697 v -2.44279 h 0.308643 v 0.715147 h 0.944745 z"
         style="letter-spacing:0.2352455px;stroke-width:0.2352455"
         id="path2020" />
      <path
         d="m 50.879769,-30.455077 v 0.03011 h -0.312406 v -0.03011 q 0,-0.06022 -0.04517,-0.101626 -0.0414,-0.04517 -0.101626,-0.04517 h -1.309847 q -0.06022,0 -0.10539,0.04517 -0.0414,0.0414 -0.0414,0.101626 v 0.33499 q 0,0.06022 0.0414,0.105389 0.04517,0.0414 0.10539,0.0414 h 1.309847 q 0.19196,0 0.323697,0.135501 0.135502,0.131738 0.135502,0.319934 v 0.33499 q 0,0.188196 -0.135502,0.323697 -0.131737,0.131738 -0.323697,0.131738 h -1.309847 q -0.188197,0 -0.323698,-0.131738 -0.131738,-0.135501 -0.131738,-0.323697 v -0.03011 h 0.308643 v 0.03011 q 0,0.06022 0.0414,0.10539 0.04517,0.0414 0.10539,0.0414 h 1.309847 q 0.06022,0 0.101626,-0.0414 0.04517,-0.04517 0.04517,-0.10539 v -0.33499 q 0,-0.06022 -0.04517,-0.101626 -0.0414,-0.04517 -0.101626,-0.04517 h -1.309847 q -0.188197,0 -0.323698,-0.131738 -0.131738,-0.135501 -0.131738,-0.323697 v -0.33499 q 0,-0.188196 0.131738,-0.319934 0.135501,-0.135501 0.323698,-0.135501 h 1.309847 q 0.19196,0 0.323697,0.135501 0.135502,0.131738 0.135502,0.319934 z"
         style="letter-spacing:0.2352455px;stroke-width:0.2352455"
         id="path2022" />
      <path
         d="m 51.485939,-28.727434 v -2.183078 h 0.308642 v 2.183078 z m 0,-2.898225 h 0.308642 v 0.308642 h -0.308642 z"
         style="letter-spacing:0.2352455px;stroke-width:0.2352455"
         id="path2024" />
      <path
         d="m 52.515313,-30.60187 v -0.308642 h 2.224482 v 0.42156 l -1.885728,1.452876 h 1.885728 v 0.308642 h -2.224482 v -0.42156 l 1.885728,-1.452876 z"
         style="letter-spacing:0.2352455px;stroke-width:0.2352455"
         id="path2026" />
      <path
         d="m 57.033439,-30.910512 q 0.191961,0 0.323698,0.135501 0.135501,0.131738 0.135501,0.319934 v 0.790425 h -1.915839 v 0.481783 q 0,0.06022 0.0414,0.10539 0.04517,0.0414 0.10539,0.0414 h 1.769046 v 0.308642 h -1.769046 q -0.188196,0 -0.323698,-0.131738 -0.131737,-0.135501 -0.131737,-0.323697 v -1.272208 q 0,-0.188196 0.131737,-0.319934 0.135502,-0.135501 0.323698,-0.135501 z m -1.45664,0.937218 h 1.603433 v -0.481783 q 0,-0.06022 -0.04517,-0.101626 -0.0414,-0.04517 -0.101626,-0.04517 h -1.309847 q -0.06022,0 -0.10539,0.04517 -0.0414,0.0414 -0.0414,0.101626 z"
         style="letter-spacing:0.2352455px;stroke-width:0.2352455"
         id="path2028" />
      <path
         d="m 59.916257,-31.625659 h 0.308642 v 2.898225 h -1.765282 q -0.191961,0 -0.327462,-0.131738 -0.131738,-0.135501 -0.131738,-0.323697 v -1.272208 q 0,-0.188196 0.131738,-0.319934 0.135501,-0.135501 0.327462,-0.135501 h 1.45664 z m -1.45664,2.589583 h 1.309846 q 0.06022,0 0.101626,-0.0414 0.04517,-0.04517 0.04517,-0.10539 v -1.272208 q 0,-0.06022 -0.04517,-0.101626 -0.0414,-0.04517 -0.101626,-0.04517 h -1.309846 q -0.06022,0 -0.10539,0.04517 -0.0414,0.0414 -0.0414,0.101626 v 1.272208 q 0,0.06022 0.0414,0.10539 0.04517,0.0414 0.10539,0.0414 z"
         style="letter-spacing:0.2352455px;stroke-width:0.2352455"
         id="path2030" />
      <path
         d="m 65.006791,-30.910512 q 0.19196,0 0.323698,0.135501 0.131737,0.131738 0.131737,0.319934 v 1.727643 h -0.304878 v -1.727643 q 0,-0.06022 -0.04517,-0.101626 -0.04517,-0.04517 -0.10539,-0.04517 h -0.907107 q -0.06022,0 -0.10539,0.04517 -0.0414,0.0414 -0.0414,0.101626 v 1.727643 h -0.312406 v -1.727643 q 0,-0.06022 -0.04517,-0.101626 -0.0414,-0.04517 -0.101626,-0.04517 h -0.910871 q -0.06022,0 -0.10539,0.04517 -0.0414,0.0414 -0.0414,0.101626 v 1.727643 h -0.312406 v -2.183078 z"
         style="letter-spacing:0.2352455px;stroke-width:0.2352455"
         id="path2032" />
      <path
         d="m 67.954006,-30.910512 h 0.308642 v 1.727643 q 0,0.188196 -0.135501,0.323697 -0.131738,0.131738 -0.323698,0.131738 h -1.309847 q -0.188197,0 -0.323698,-0.131738 -0.131737,-0.135501 -0.131737,-0.323697 v -1.727643 h 0.308642 v 1.727643 q 0,0.06022 0.0414,0.10539 0.04517,0.0414 0.10539,0.0414 h 1.309847 q 0.06022,0 0.10539,-0.0414 0.04517,-0.04517 0.04517,-0.10539 z"
         style="letter-spacing:0.2352455px;stroke-width:0.2352455"
         id="path2034" />
      <path
         d="m 68.886755,-31.625659 h 0.308642 v 2.44279 q 0,0.06022 0.0414,0.10539 0.04517,0.0414 0.10539,0.0414 h 0.368865 v 0.308642 H 69.34219 q -0.188196,0 -0.323698,-0.131738 -0.131737,-0.135501 -0.131737,-0.323697 z"
         style="letter-spacing:0.2352455px;stroke-width:0.2352455"
         id="path2036" />
      <path
         d="m 71.518621,-30.60187 h -0.944746 v 1.419001 q 0,0.06022 0.0414,0.10539 0.04517,0.0414 0.10539,0.0414 h 0.797953 v 0.308642 h -0.797953 q -0.19196,0 -0.323698,-0.131738 -0.131737,-0.135501 -0.131737,-0.323697 v -2.44279 h 0.308642 v 0.715147 h 0.944746 z"
         style="letter-spacing:0.2352455px;stroke-width:0.2352455"
         id="path2038" />
      <path
         d="m 72.062567,-28.727434 v -2.183078 h 0.308642 v 2.183078 z m 0,-2.898225 h 0.308642 v 0.308642 h -0.308642 z"
         style="letter-spacing:0.2352455px;stroke-width:0.2352455"
         id="path2040" />
      <path
         d="m 75.975114,-30.910512 q 0.19196,0 0.323698,0.135501 0.131737,0.131738 0.131737,0.319934 v 1.727643 h -0.304878 v -1.727643 q 0,-0.06022 -0.04517,-0.101626 -0.04517,-0.04517 -0.10539,-0.04517 h -0.907107 q -0.06022,0 -0.10539,0.04517 -0.0414,0.0414 -0.0414,0.101626 v 1.727643 h -0.312406 v -1.727643 q 0,-0.06022 -0.04517,-0.101626 -0.0414,-0.04517 -0.101626,-0.04517 h -0.910871 q -0.06022,0 -0.10539,0.04517 -0.0414,0.0414 -0.0414,0.101626 v 1.727643 h -0.312406 v -2.183078 z"
         style="letter-spacing:0.2352455px;stroke-width:0.2352455"
         id="path2042" />
      <path
         d="m 78.76424,-30.910512 q 0.19196,0 0.323698,0.135501 0.135501,0.131738 0.135501,0.319934 v 0.790425 H 77.3076 v 0.481783 q 0,0.06022 0.0414,0.10539 0.04517,0.0414 0.10539,0.0414 h 1.769046 v 0.308642 h -1.769046 q -0.188196,0 -0.323698,-0.131738 -0.131737,-0.135501 -0.131737,-0.323697 v -1.272208 q 0,-0.188196 0.131737,-0.319934 0.135502,-0.135501 0.323698,-0.135501 z m -1.45664,0.937218 h 1.603433 v -0.481783 q 0,-0.06022 -0.04517,-0.101626 -0.0414,-0.04517 -0.101626,-0.04517 h -1.309847 q -0.06022,0 -0.10539,0.04517 -0.0414,0.0414 -0.0414,0.101626 z"
         style="letter-spacing:0.2352455px;stroke-width:0.2352455"
         id="path2044" />
      <path
         d="m 81.647057,-31.625659 h 0.308642 v 2.898225 h -1.765282 q -0.19196,0 -0.327462,-0.131738 -0.131737,-0.135501 -0.131737,-0.323697 v -1.272208 q 0,-0.188196 0.131737,-0.319934 0.135502,-0.135501 0.327462,-0.135501 h 1.45664 z m -1.45664,2.589583 h 1.309847 q 0.06022,0 0.101626,-0.0414 0.04517,-0.04517 0.04517,-0.10539 v -1.272208 q 0,-0.06022 -0.04517,-0.101626 -0.0414,-0.04517 -0.101626,-0.04517 h -1.309847 q -0.06022,0 -0.10539,0.04517 -0.0414,0.0414 -0.0414,0.101626 v 1.272208 q 0,0.06022 0.0414,0.10539 0.04517,0.0414 0.10539,0.0414 z"
         style="letter-spacing:0.2352455px;stroke-width:0.2352455"
         id="path2046" />
      <path
         d="m 82.589803,-28.727434 v -2.183078 h 0.308643 v 2.183078 z m 0,-2.898225 h 0.308643 v 0.308642 h -0.308643 z"
         style="letter-spacing:0.2352455px;stroke-width:0.2352455"
         id="path2048" />
      <path
         d="m 85.244608,-30.910512 q 0.191961,0 0.323698,0.135501 0.135501,0.131738 0.135501,0.319934 v 1.727643 h -1.769046 q -0.188196,0 -0.323698,-0.131738 -0.131737,-0.135501 -0.131737,-0.323697 v -0.790425 h 1.912075 v -0.481783 q 0,-0.06022 -0.04517,-0.101626 -0.0414,-0.04517 -0.101626,-0.04517 h -1.765282 v -0.308642 z m 0.146793,1.874436 v -0.628576 h -1.603433 v 0.481783 q 0,0.06022 0.0414,0.10539 0.04517,0.0414 0.10539,0.0414 z"
         style="letter-spacing:0.2352455px;stroke-width:0.2352455"
         id="path2050" />
      <path
         d="m 89.357993,-30.910512 q 0.188196,0 0.319934,0.135501 0.135501,0.131738 0.135501,0.319934 v 1.272208 q 0,0.188196 -0.135501,0.323697 -0.131738,0.131738 -0.319934,0.131738 h -1.460404 v 0.865703 h -0.308642 v -3.048781 z m 0.146793,1.727643 v -1.272208 q 0,-0.06022 -0.04517,-0.101626 -0.0414,-0.04517 -0.101626,-0.04517 h -1.309847 q -0.06022,0 -0.10539,0.04517 -0.04517,0.0414 -0.04517,0.101626 v 1.272208 q 0,0.06022 0.04517,0.10539 0.04517,0.0414 0.10539,0.0414 h 1.309847 q 0.06022,0 0.101626,-0.0414 0.04517,-0.04517 0.04517,-0.10539 z"
         style="letter-spacing:0.2352455px;stroke-width:0.2352455"
         id="path2052" />
      <path
         d="m 90.316145,-31.625659 h 0.308642 v 2.44279 q 0,0.06022 0.0414,0.10539 0.04517,0.0414 0.10539,0.0414 h 0.368865 v 0.308642 H 90.77158 q -0.188196,0 -0.323698,-0.131738 -0.131737,-0.135501 -0.131737,-0.323697 z"
         style="letter-spacing:0.2352455px;stroke-width:0.2352455"
         id="path2054" />
      <path
         d="m 93.419386,-30.910512 q 0.191961,0 0.323698,0.135501 0.135501,0.131738 0.135501,0.319934 v 1.727643 h -1.769046 q -0.188196,0 -0.323698,-0.131738 -0.131737,-0.135501 -0.131737,-0.323697 v -0.790425 h 1.912075 v -0.481783 q 0,-0.06022 -0.04517,-0.101626 -0.0414,-0.04517 -0.101626,-0.04517 h -1.765282 v -0.308642 z m 0.146793,1.874436 v -0.628576 h -1.603433 v 0.481783 q 0,0.06022 0.0414,0.10539 0.04517,0.0414 0.10539,0.0414 z"
         style="letter-spacing:0.2352455px;stroke-width:0.2352455"
         id="path2056" />
      <path
         d="m 96.682183,-28.32093 q 0,0.19196 -0.131737,0.323698 -0.131738,0.135501 -0.323698,0.135501 h -1.362542 v -0.312406 h 1.362542 q 0.06022,0 0.101626,-0.04517 0.04517,-0.0414 0.04517,-0.101626 v -0.406504 h -1.45664 q -0.188196,0 -0.323698,-0.131738 -0.131737,-0.135501 -0.131737,-0.323697 v -1.720116 h 0.308642 v 1.720116 q 0,0.06022 0.0414,0.10539 0.04517,0.0414 0.10539,0.0414 h 1.309847 q 0.06022,0 0.101626,-0.0414 0.04517,-0.04517 0.04517,-0.10539 v -1.720116 h 0.308642 z"
         style="letter-spacing:0.2352455px;stroke-width:0.2352455"
         id="path2058" />
      <path
         d="m 99.002704,-30.910512 q 0.191961,0 0.323698,0.135501 0.135501,0.131738 0.135501,0.319934 v 0.790425 h -1.915839 v 0.481783 q 0,0.06022 0.0414,0.10539 0.04517,0.0414 0.10539,0.0414 h 1.769046 v 0.308642 h -1.769046 q -0.188196,0 -0.323698,-0.131738 -0.131737,-0.135501 -0.131737,-0.323697 v -1.272208 q 0,-0.188196 0.131737,-0.319934 0.135502,-0.135501 0.323698,-0.135501 z m -1.45664,0.937218 h 1.603433 v -0.481783 q 0,-0.06022 -0.04517,-0.101626 -0.0414,-0.04517 -0.101626,-0.04517 h -1.309847 q -0.06022,0 -0.10539,0.04517 -0.0414,0.0414 -0.0414,0.101626 z"
         style="letter-spacing:0.2352455px;stroke-width:0.2352455"
         id="path2060" />
      <path
         d="m 100.51222,-30.910512 h 1.22704 v 0.308642 h -1.22704 q -0.0602,0 -0.10539,0.04517 -0.0414,0.0414 -0.0414,0.101626 v 1.727643 h -0.30865 v -1.727643 q 0,-0.188196 0.13174,-0.319934 0.1355,-0.135501 0.3237,-0.135501 z"
         style="letter-spacing:0.2352455px;stroke-width:0.2352455"
         id="path2062" />
    </g>
    <g
       id="g1686">
      <path
         inkscape:connector-curvature="0"
         d="m 31.596738,-39.636644 c 0,-0.334285 -0.281602,-0.615885 -0.616191,-0.615885 h -5.544655 v 1.848346 h 5.544655 c 0.334589,0 0.616191,-0.272935 0.616191,-0.616192 z m 1.232386,0 v 0.616269 c 0,1.020877 -0.836364,1.848269 -1.848577,1.848269 h -5.544655 v 1.848339 h -1.232077 v -6.16084 h 6.776732 c 1.012213,0 1.848577,0.827085 1.848577,1.847963"
         style="fill:#100f0d;fill-opacity:1;fill-rule:nonzero;stroke:none;stroke-width:0.00766886"
         id="path22-0" />
      <path
         inkscape:connector-curvature="0"
         d="m 35.557626,-36.564579 h 4.920035 c 0.351999,0 0.624856,-0.273165 0.624856,-0.607527 v -2.464538 c 0,-0.334285 -0.272857,-0.615885 -0.624856,-0.615885 h -4.920035 c -0.343333,0 -0.616269,0.2816 -0.616269,0.615885 v 2.464538 c 0,0.334362 0.272936,0.607527 0.616269,0.607527 z m 4.920035,1.240812 h -4.920035 c -1.020951,0 -1.848346,-0.836127 -1.848346,-1.848339 v -2.464538 c 0,-1.020878 0.827395,-1.847963 1.848346,-1.847963 h 4.920035 c 1.029623,0 1.847963,0.827085 1.847963,1.847963 v 2.464538 c 0,1.012212 -0.81834,1.848339 -1.847963,1.848339"
         style="fill:#100f0d;fill-opacity:1;fill-rule:nonzero;stroke:none;stroke-width:0.00766886"
         id="path24-5" />
      <path
         inkscape:connector-curvature="0"
         d="m 44.438167,-39.636644 v 2.464538 c 0,0.334362 0.281905,0.607527 0.61619,0.607527 h 6.777356 v 1.240812 h -6.777356 c -1.020878,0 -1.847963,-0.836127 -1.847963,-1.848339 v -2.464538 c 0,-1.020878 0.827085,-1.847963 1.847963,-1.847963 h 6.777356 v 1.232078 h -6.777356 c -0.334285,0 -0.61619,0.2816 -0.61619,0.615885"
         style="fill:#100f0d;fill-opacity:1;fill-rule:nonzero;stroke:none;stroke-width:0.00766886"
         id="path26-6" />
      <path
         inkscape:connector-curvature="0"
         d="m 61.469318,-35.323767 h -2.059471 l -3.371,-2.525959 -2.103567,1.478632 v 1.047327 h -1.223411 v -6.16084 h 1.223411 v 3.608501 l 5.148948,-3.608501 h 2.138541 l -4.127997,2.895604 4.374546,3.265236"
         style="fill:#100f0d;fill-opacity:1;fill-rule:nonzero;stroke:none;stroke-width:0.00766886"
         id="path28-6" />
      <path
         inkscape:connector-curvature="0"
         d="m 64.206491,-41.484607 h 6.777047 v 1.232078 h -6.777047 c -0.343029,0 -0.616195,0.2816 -0.616195,0.615885 v 0.616269 h 7.393242 v 1.232077 h -7.393242 v 0.616192 c 0,0.334362 0.273166,0.607527 0.616195,0.607527 h 6.777047 v 1.240812 h -6.777047 c -1.020956,0 -1.857017,-0.836127 -1.857017,-1.848339 v -2.464538 c 0,-1.020878 0.836061,-1.847963 1.857017,-1.847963"
         style="fill:#100f0d;fill-opacity:1;fill-rule:nonzero;stroke:none;stroke-width:0.00766886"
         id="path30-4" />
      <path
         inkscape:connector-curvature="0"
         d="m 75.560544,-35.323767 v -4.928762 H 71.86392 v -1.232078 h 8.625398 v 1.232078 h -3.696315 v 4.928762 h -1.232459"
         style="fill:#100f0d;fill-opacity:1;fill-rule:nonzero;stroke:none;stroke-width:0.00766886"
         id="path32-0" />
      <path
         inkscape:connector-curvature="0"
         d="m 87.577645,-35.922329 -3.344394,-5.562278 h 1.443359 l 2.957573,4.920028 h 0.527847 l 2.957264,-4.920028 h 1.434615 l -3.335649,5.562278 c -0.211503,0.352323 -0.607525,0.598562 -1.05623,0.598562 h -0.527847 c -0.449318,0 -0.84534,-0.246239 -1.056538,-0.598562"
         style="fill:#100f0d;fill-opacity:1;fill-rule:nonzero;stroke:none;stroke-width:0.00766886"
         id="path34-0" />
      <path
         inkscape:connector-curvature="0"
         d="M 99.891069,-43.949146 H 23.587614 c -1.012291,0 -1.848351,0.836058 -1.848351,1.848347 v 7.39324 c 0,1.012196 0.83606,1.848039 1.848351,1.848039 h 78.151646 v -1.23217 H 23.587614 c -0.334347,0 -0.61597,-0.281592 -0.61597,-0.615869 v -7.39324 c 0,-0.334362 0.281623,-0.616269 0.61597,-0.616269 h 76.303455 v 0.0087 c 0.334361,0 0.616581,0.273164 0.616581,0.607526 v 4.928693 c 0,0.334361 -0.28222,0.607526 -0.616581,0.607526 h -4.928622 c -0.334594,0 -0.607142,-0.273165 -0.607142,-0.607526 v -1.84827 h -1.241131 v 1.84827 c 0,1.012211 0.83606,1.848338 1.848273,1.848338 h 4.928622 c 1.029931,0 1.848191,-0.836127 1.848191,-1.848338 v -4.928694 c 0,-1.012288 -0.81826,-1.848346 -1.848191,-1.848346"
         style="fill:#100f0d;fill-opacity:1;fill-rule:nonzero;stroke:none;stroke-width:0.00766886"
         id="path36-4" />
    </g>
  </g>
</svg>
