<?xml version="1.0" encoding="UTF-8" standalone="no"?>
<svg
   xmlns:dc="http://purl.org/dc/elements/1.1/"
   xmlns:cc="http://creativecommons.org/ns#"
   xmlns:rdf="http://www.w3.org/1999/02/22-rdf-syntax-ns#"
   xmlns:svg="http://www.w3.org/2000/svg"
   xmlns="http://www.w3.org/2000/svg"
   xmlns:sodipodi="http://sodipodi.sourceforge.net/DTD/sodipodi-0.dtd"
   xmlns:inkscape="http://www.inkscape.org/namespaces/inkscape"
   id="Layer_2"
   data-name="Layer 2"
   width="30"
   height="30"
   viewBox="0 0 30 30"
   version="1.1"
   sodipodi:docname="screenshot_icon.svg"
   inkscape:version="1.0.1 (1.0.1+r74)">
  <metadata
     id="metadata13">
    <rdf:RDF>
      <cc:Work
         rdf:about="">
        <dc:format>image/svg+xml</dc:format>
        <dc:type
           rdf:resource="http://purl.org/dc/dcmitype/StillImage" />
        <dc:title>cam-in-circle_icon02</dc:title>
      </cc:Work>
    </rdf:RDF>
  </metadata>
  <defs
     id="defs11" />
  <sodipodi:namedview
     pagecolor="#ffffff"
     bordercolor="#666666"
     borderopacity="1"
     objecttolerance="10"
     gridtolerance="10"
     guidetolerance="10"
     inkscape:pageopacity="0"
     inkscape:pageshadow="2"
     inkscape:window-width="1414"
     inkscape:window-height="815"
     id="namedview9"
     showgrid="false"
     inkscape:zoom="11.8"
     inkscape:cx="11.175112"
     inkscape:cy="15.502487"
     inkscape:window-x="0"
     inkscape:window-y="49"
     inkscape:window-maximized="0"
     inkscape:current-layer="Layer_2"
     inkscape:document-rotation="0" />
  <title
     id="title2">cam-in-circle_icon02</title>
  <circle
     style="fill:#ffffff;stroke:none;stroke-width:1.58241;stroke-miterlimit:10;stroke-dasharray:none"
     id="path4523"
     cx="14.85155"
     cy="14.733543"
     r="13.736417" />
  <path
     d="m 14.902238,11.022988 a 5.3051967,5.3051967 0 1 0 5.305196,5.290295 5.2902944,5.2902944 0 0 0 -5.305196,-5.290295 z m 0,8.315449 a 2.9804475,2.9804475 0 1 1 2.980448,-2.980447 2.9804475,2.9804475 0 0 1 -2.980448,2.980447 z"
     id="path4"
     inkscape:connector-curvature="0"
     style="stroke-width:1.49022" />
  <path
     d="M 14.902238,0.08474576 A 14.902238,14.902238 0 1 0 29.804475,14.986984 14.902238,14.902238 0 0 0 14.902238,0.08474576 Z M 25.333804,22.810658 H 4.4706713 A 0.4321649,0.4321649 0 0 1 4.0236042,22.363591 V 10.754748 A 0.44706713,0.44706713 0 0 1 4.4706713,10.307681 H 10.729611 V 7.3272333 A 0.31294699,0.31294699 0 0 1 11.027656,6.999384 h 7.927991 a 0.31294699,0.31294699 0 0 1 0.312947,0.3278493 v 2.9804477 h 5.960895 a 0.44706713,0.44706713 0 0 1 0.447067,0.447067 v 11.683354 a 0.4321649,0.4321649 0 0 1 -0.342752,0.372556 z"
     id="path6"
     inkscape:connector-curvature="0"
     style="stroke-width:1.49022" />
</svg>
