<?xml version="1.0" encoding="UTF-8" standalone="no"?>
<svg
   xmlns:dc="http://purl.org/dc/elements/1.1/"
   xmlns:cc="http://creativecommons.org/ns#"
   xmlns:rdf="http://www.w3.org/1999/02/22-rdf-syntax-ns#"
   xmlns:svg="http://www.w3.org/2000/svg"
   xmlns="http://www.w3.org/2000/svg"
   xmlns:sodipodi="http://sodipodi.sourceforge.net/DTD/sodipodi-0.dtd"
   xmlns:inkscape="http://www.inkscape.org/namespaces/inkscape"
   inkscape:version="0.92.4 (f8dce91, 2019-08-02)"
   sodipodi:docname="settings_icon_04.svg"
   version="1.1"
   viewBox="0 0 30.000001 29.999999"
   height="30"
   width="30"
   data-name="Layer 3"
   id="Layer_3">
  <metadata
     id="metadata13">
    <rdf:RDF>
      <cc:Work
         rdf:about="">
        <dc:format>image/svg+xml</dc:format>
        <dc:type
           rdf:resource="http://purl.org/dc/dcmitype/StillImage" />
        <dc:title>settings_icon_04</dc:title>
      </cc:Work>
    </rdf:RDF>
  </metadata>
  <defs
     id="defs11" />
  <sodipodi:namedview
     inkscape:current-layer="Layer_3"
     inkscape:window-maximized="1"
     inkscape:window-y="35"
     inkscape:window-x="0"
     inkscape:cy="8.2490051"
     inkscape:cx="6.6458528"
     inkscape:zoom="16.424713"
     showgrid="false"
     id="namedview9"
     inkscape:window-height="1021"
     inkscape:window-width="1920"
     inkscape:pageshadow="2"
     inkscape:pageopacity="0"
     guidetolerance="10"
     gridtolerance="10"
     objecttolerance="10"
     borderopacity="1"
     inkscape:document-rotation="0"
     bordercolor="#666666"
     pagecolor="#ffffff" />
  <title
     id="title2">settings_icon_04</title>
  <path
     inkscape:connector-curvature="0"
     id="path4"
     transform="translate(-0.39)"
     d="M 29.55,8.44 H 27.66 A 8.51,8.51 0 0 0 26.81,6.37 L 28.14,5 a 0.45,0.45 0 0 0 0,-0.66 v 0 L 25.65,1.88 a 0.47,0.47 0 0 0 -0.66,0 v 0 L 23.65,3.22 A 8.16,8.16 0 0 0 21.58,2.36 V 0.47 A 0.47,0.47 0 0 0 21.11,0 H 17.55 A 0.47,0.47 0 0 0 17.08,0.47 V 2.36 A 8.32,8.32 0 0 0 15,3.22 L 13.68,1.88 a 0.47,0.47 0 0 0 -0.66,0 v 0 l -2.49,2.49 a 0.45,0.45 0 0 0 0,0.66 v 0 l 1.33,1.34 A 8.51,8.51 0 0 0 11,8.44 H 9.11 A 0.46,0.46 0 0 0 8.65,8.91 v 3.56 a 0.47,0.47 0 0 0 0.47,0.47 h 2.23 A 0.48,0.48 0 0 0 11.83,12.58 0.47,0.47 0 0 0 11.38,12 H 9.58 V 9.38 h 1.8 A 0.46,0.46 0 0 0 11.83,9 7.59,7.59 0 0 1 12.83,6.54 0.46,0.46 0 0 0 12.78,6 L 11.52,4.7 13.35,2.87 14.61,4.14 A 0.47,0.47 0 0 0 15.19,4.2 7.66,7.66 0 0 1 17.65,3.2 0.47,0.47 0 0 0 18,2.73 V 0.94 h 2.63 v 1.79 a 0.47,0.47 0 0 0 0.36,0.46 7.48,7.48 0 0 1 2.46,1 0.47,0.47 0 0 0 0.58,-0.06 L 25.3,2.86 27.15,4.7 25.88,6 a 0.47,0.47 0 0 0 -0.06,0.58 7.57,7.57 0 0 1 1,2.46 0.48,0.48 0 0 0 0.46,0.37 h 1.79 V 12 h -1.78 a 0.47,0.47 0 0 0 -0.46,0.37 7.66,7.66 0 0 1 -1,2.46 0.47,0.47 0 0 0 0.06,0.58 l 1.27,1.26 -1.84,1.83 -1.27,-1.26 a 0.47,0.47 0 0 0 -0.58,-0.07 7.5,7.5 0 0 1 -2.46,1 0.45,0.45 0 0 0 -0.36,0.45 v 1.8 H 18 v -1.75 a 0.49,0.49 0 0 0 -0.35,-0.48 0.48,0.48 0 0 0 -0.59,0.45 v 2.27 a 0.47,0.47 0 0 0 0.47,0.47 h 3.56 a 0.47,0.47 0 0 0 0.47,-0.47 V 19 a 8.51,8.51 0 0 0 2.07,-0.85 L 25,19.5 a 0.47,0.47 0 0 0 0.66,0 L 28.14,17 a 0.48,0.48 0 0 0 0,-0.67 v 0 L 26.81,15 a 8.68,8.68 0 0 0 0.85,-2.07 h 1.89 a 0.47,0.47 0 0 0 0.47,-0.47 V 8.91 A 0.47,0.47 0 0 0 29.55,8.44 Z"
     style="stroke-width:0.26666667;stroke-miterlimit:4;stroke-dasharray:none;fill:#000000;stroke:#000000" />
  <path
     inkscape:connector-curvature="0"
     id="path6"
     transform="translate(-0.39)"
     d="m 8.51,19.27 v 0 l 6.83,-6.84 a 0.47,0.47 0 0 0 0.11,-0.48 4.09,4.09 0 0 1 4.7,-5.28 l -2.39,2.41 a 0.45,0.45 0 0 0 0,0.66 v 0 l 2.51,2.52 a 0.5,0.5 0 0 0 0.67,0 l 2.41,-2.42 a 4.08,4.08 0 0 1 -3.18,4.82 4,4 0 0 1 -2.1,-0.12 0.5,0.5 0 0 0 -0.48,0.11 l -7,7 A 0.48,0.48 0 0 0 10.49,22.16 4.76,4.76 0 0 1 5,28.56 L 7.86,25.7 a 0.47,0.47 0 0 0 0,-0.66 v 0 L 5,22.16 a 0.45,0.45 0 0 0 -0.66,0 v 0 L 1.46,25 a 4.75,4.75 0 0 1 6.4,-5.49 0.47,0.47 0 0 0 0.35,-0.87 v 0 a 5.69,5.69 0 0 0 -7.4,7.41 0.47,0.47 0 0 0 0.61,0.26 0.54,0.54 0 0 0 0.16,-0.1 l 3.07,-3.07 2.21,2.22 -3.07,3.08 a 0.47,0.47 0 0 0 0,0.66 0.39,0.39 0 0 0 0.16,0.1 5.69,5.69 0 0 0 7.53,-7.1 l 6.58,-6.58 A 5,5 0 0 0 24.2,12 5.09,5.09 0 0 0 24,8.78 0.48,0.48 0 0 0 23.38,8.52 0.42,0.42 0 0 0 23.23,8.63 L 20.6,11.26 18.75,9.41 21.39,6.78 a 0.48,0.48 0 0 0 0,-0.67 0.44,0.44 0 0 0 -0.16,-0.1 5,5 0 0 0 -6.74,6 l -6.63,6.58 z"
     style="fill:#000000;stroke-width:0.4;stroke-miterlimit:4;stroke-dasharray:none;stroke:#000000" />
</svg>
