<?xml version="1.0" encoding="UTF-8" standalone="no"?>
<svg
   xmlns:dc="http://purl.org/dc/elements/1.1/"
   xmlns:cc="http://creativecommons.org/ns#"
   xmlns:rdf="http://www.w3.org/1999/02/22-rdf-syntax-ns#"
   xmlns:svg="http://www.w3.org/2000/svg"
   xmlns="http://www.w3.org/2000/svg"
   xmlns:sodipodi="http://sodipodi.sourceforge.net/DTD/sodipodi-0.dtd"
   xmlns:inkscape="http://www.inkscape.org/namespaces/inkscape"
   viewBox="0 0 30 29.999999"
   height="30"
   width="30"
   xml:space="preserve"
   id="svg2"
   version="1.1"
   sodipodi:docname="testscreen_icon.svg"
   inkscape:version="1.0.1 (1.0.1+r74)"><sodipodi:namedview
     pagecolor="#ffffff"
     bordercolor="#666666"
     borderopacity="1"
     objecttolerance="10"
     gridtolerance="10"
     guidetolerance="10"
     inkscape:pageopacity="0"
     inkscape:pageshadow="2"
     inkscape:window-width="2063"
     inkscape:window-height="1294"
     id="namedview137"
     showgrid="false"
     inkscape:zoom="10.08"
     inkscape:cx="0.68427662"
     inkscape:cy="15.623343"
     inkscape:window-x="0"
     inkscape:window-y="49"
     inkscape:window-maximized="0"
     inkscape:current-layer="svg2" /><metadata
     id="metadata8"><rdf:RDF><cc:Work
         rdf:about=""><dc:format>image/svg+xml</dc:format><dc:type
           rdf:resource="http://purl.org/dc/dcmitype/StillImage" /><dc:title></dc:title></cc:Work></rdf:RDF></metadata><defs
     id="defs6"><clipPath
       id="clipPath20"
       clipPathUnits="userSpaceOnUse"><path
         id="path18"
         d="M 0,842 H 595 V 0 H 0 Z" /></clipPath></defs><g
     transform="matrix(1.5982952,0,0,-1.5982952,0.28789596,29.938671)"
     id="g10"><circle
       transform="scale(1,-1)"
       r="9.3761196"
       cy="-9.3760834"
       cx="9.2144623"
       id="path4783"
       style="fill:#000000;stroke:none;stroke-width:0.951129;stroke-miterlimit:10;stroke-dasharray:none" /><g
       transform="matrix(0.05582142,0,0,0.05582142,-7.3891321,-12.993391)"
       id="g14"><g
         clip-path="url(#clipPath20)"
         id="g16"><g
           transform="translate(139.3271,414.0225)"
           id="g22"><path
             id="path24"
             style="fill:#231f20;fill-opacity:1;fill-rule:evenodd;stroke:none"
             d="m 0,0 h 316.228 c 0.364,-4.382 0.551,-8.814 0.551,-13.29 0,-34.204 -10.874,-65.878 -29.356,-91.77 H 28.804 c -18.483,25.892 -29.355,57.566 -29.355,91.77 0,4.476 0.186,8.908 0.551,13.29" /></g><path
           id="path26"
           style="fill:none;stroke:#ffffff;stroke-width:0.216;stroke-linecap:butt;stroke-linejoin:miter;stroke-miterlimit:22.926;stroke-dasharray:none;stroke-opacity:1"
           d="m 180.422,466.129 h 25.481 v 25.956 h -25.481 z" /><path
           id="path28"
           style="fill:#e9e9e9;fill-opacity:1;fill-rule:evenodd;stroke:none"
           d="m 180.072,466.108 h 26.107 v 26.339 h -26.107 z" /><path
           id="path30"
           style="fill:#e9e9e9;fill-opacity:1;fill-rule:evenodd;stroke:none"
           d="m 232.591,466.109 h 26.107 v 25.556 h -26.107 z" /><path
           id="path32"
           style="fill:#e9e9e9;fill-opacity:1;fill-rule:evenodd;stroke:none"
           d="m 284.868,466.109 h 26.107 v 25.556 h -26.107 z" /><path
           id="path34"
           style="fill:#e9e9e9;fill-opacity:1;fill-rule:evenodd;stroke:none"
           d="m 336.657,466.109 h 26.107 v 25.556 h -26.107 z" /><path
           id="path36"
           style="fill:#ffffff;fill-opacity:1;fill-rule:evenodd;stroke:none"
           d="m 298.924,361.713 h -2.326 v 77.807 h 2.326 z" /><path
           id="path38"
           style="fill:#ffffff;fill-opacity:1;fill-rule:evenodd;stroke:none"
           d="m 181.28,338.78 h 2.488 v 48.516 h -2.488 z" /><path
           id="path40"
           style="fill:#ffffff;fill-opacity:1;fill-rule:evenodd;stroke:none"
           d="m 187.161,338.78 h 2.488 v 48.516 h -2.488 z" /><path
           id="path42"
           style="fill:#ffffff;fill-opacity:1;fill-rule:evenodd;stroke:none"
           d="m 193.042,338.78 h 2.488 v 48.516 h -2.488 z" /><path
           id="path44"
           style="fill:#ffffff;fill-opacity:1;fill-rule:evenodd;stroke:none"
           d="m 198.922,338.78 h 2.488 v 48.516 h -2.488 z" /><path
           id="path46"
           style="fill:#ffffff;fill-opacity:1;fill-rule:evenodd;stroke:none"
           d="m 204.803,338.78 h 2.488 v 48.516 h -2.488 z" /><path
           id="path48"
           style="fill:#ffffff;fill-opacity:1;fill-rule:evenodd;stroke:none"
           d="m 210.683,338.78 h 2.488 v 48.516 h -2.488 z" /><path
           id="path50"
           style="fill:#ffffff;fill-opacity:1;fill-rule:evenodd;stroke:none"
           d="m 216.564,338.78 h 2.488 v 48.516 h -2.488 z" /><path
           id="path52"
           style="fill:#ffffff;fill-opacity:1;fill-rule:evenodd;stroke:none"
           d="m 222.445,338.78 h 2.488 v 48.516 h -2.488 z" /><path
           id="path54"
           style="fill:#ffffff;fill-opacity:1;fill-rule:evenodd;stroke:none"
           d="m 228.326,338.78 h 2.488 v 48.516 h -2.488 z" /><path
           id="path56"
           style="fill:#ffffff;fill-opacity:1;fill-rule:evenodd;stroke:none"
           d="m 234.206,338.78 h 2.488 v 48.516 h -2.488 z" /><path
           id="path58"
           style="fill:#ffffff;fill-opacity:1;fill-rule:evenodd;stroke:none"
           d="m 240.087,338.78 h 2.488 v 48.516 h -2.488 z" /><path
           id="path60"
           style="fill:#ffffff;fill-opacity:1;fill-rule:evenodd;stroke:none"
           d="m 245.968,338.78 h 2.488 v 48.516 h -2.488 z" /><path
           id="path62"
           style="fill:#ffffff;fill-opacity:1;fill-rule:evenodd;stroke:none"
           d="m 251.848,338.78 h 2.488 v 48.516 h -2.488 z" /><path
           id="path64"
           style="fill:#ffffff;fill-opacity:1;fill-rule:evenodd;stroke:none"
           d="m 257.729,338.78 h 2.488 v 48.516 h -2.488 z" /><path
           id="path66"
           style="fill:#ffffff;fill-opacity:1;fill-rule:evenodd;stroke:none"
           d="m 263.61,338.78 h 2.488 v 48.516 h -2.488 z" /><path
           id="path68"
           style="fill:#ffffff;fill-opacity:1;fill-rule:evenodd;stroke:none"
           d="m 269.491,338.78 h 2.488 v 48.516 h -2.488 z" /><path
           id="path70"
           style="fill:#ffffff;fill-opacity:1;fill-rule:evenodd;stroke:none"
           d="m 275.371,338.78 h 2.488 v 48.516 h -2.488 z" /><path
           id="path72"
           style="fill:#ffffff;fill-opacity:1;fill-rule:evenodd;stroke:none"
           d="m 281.252,338.78 h 2.488 v 48.516 h -2.488 z" /><path
           id="path74"
           style="fill:#ffffff;fill-opacity:1;fill-rule:evenodd;stroke:none"
           d="m 287.133,338.78 h 2.488 v 48.516 h -2.488 z" /><path
           id="path76"
           style="fill:#ffffff;fill-opacity:1;fill-rule:evenodd;stroke:none"
           d="m 293.013,338.78 h 2.488 v 48.516 h -2.488 z" /><path
           id="path78"
           style="fill:#ffffff;fill-opacity:1;fill-rule:evenodd;stroke:none"
           d="m 298.895,338.78 h 2.487 v 48.516 h -2.487 z" /><path
           id="path80"
           style="fill:#ffffff;fill-opacity:1;fill-rule:evenodd;stroke:none"
           d="m 304.774,338.78 h 2.488 v 48.516 h -2.488 z" /><path
           id="path82"
           style="fill:#ffffff;fill-opacity:1;fill-rule:evenodd;stroke:none"
           d="m 310.655,338.78 h 2.488 v 48.516 h -2.488 z" /><path
           id="path84"
           style="fill:#ffffff;fill-opacity:1;fill-rule:evenodd;stroke:none"
           d="m 316.536,338.78 h 2.488 v 48.516 h -2.488 z" /><path
           id="path86"
           style="fill:#ffffff;fill-opacity:1;fill-rule:evenodd;stroke:none"
           d="m 322.417,338.78 h 2.487 v 48.516 h -2.487 z" /><path
           id="path88"
           style="fill:#ffffff;fill-opacity:1;fill-rule:evenodd;stroke:none"
           d="m 328.298,338.78 h 2.487 v 48.516 h -2.487 z" /><path
           id="path90"
           style="fill:#ffffff;fill-opacity:1;fill-rule:evenodd;stroke:none"
           d="m 334.179,338.78 h 2.487 v 48.516 h -2.487 z" /><path
           id="path92"
           style="fill:#ffffff;fill-opacity:1;fill-rule:evenodd;stroke:none"
           d="m 340.059,338.78 h 2.488 v 48.516 h -2.488 z" /><path
           id="path94"
           style="fill:#ffffff;fill-opacity:1;fill-rule:evenodd;stroke:none"
           d="m 345.939,338.78 h 2.488 v 48.516 h -2.488 z" /><path
           id="path96"
           style="fill:#ffffff;fill-opacity:1;fill-rule:evenodd;stroke:none"
           d="m 351.82,338.78 h 2.488 v 48.516 h -2.488 z" /><path
           id="path98"
           style="fill:#ffffff;fill-opacity:1;fill-rule:evenodd;stroke:none"
           d="m 357.701,338.78 h 2.488 v 48.516 h -2.488 z" /><path
           id="path100"
           style="fill:#ffffff;fill-opacity:1;fill-rule:evenodd;stroke:none"
           d="m 363.582,338.78 h 2.487 v 48.516 h -2.487 z" /><path
           id="path102"
           style="fill:#ffffff;fill-opacity:1;fill-rule:evenodd;stroke:none"
           d="m 369.463,338.78 h 2.487 v 48.516 h -2.487 z" /><path
           id="path104"
           style="fill:#ffffff;fill-opacity:1;fill-rule:evenodd;stroke:none"
           d="m 375.344,338.78 h 2.487 v 48.516 h -2.487 z" /><path
           id="path106"
           style="fill:#ffffff;fill-opacity:1;fill-rule:evenodd;stroke:none"
           d="m 381.224,338.78 h 2.488 v 48.516 h -2.488 z" /><path
           id="path108"
           style="fill:#ffffff;fill-opacity:1;fill-rule:evenodd;stroke:none"
           d="m 387.104,338.78 h 2.488 v 48.516 h -2.488 z" /><path
           id="path110"
           style="fill:#ffffff;fill-opacity:1;fill-rule:evenodd;stroke:none"
           d="m 392.985,338.78 h 2.488 v 48.516 h -2.488 z" /><path
           id="path112"
           style="fill:#ffffff;fill-opacity:1;fill-rule:evenodd;stroke:none"
           d="m 398.866,338.78 h 2.487 v 48.516 h -2.487 z" /><path
           id="path114"
           style="fill:#ffffff;fill-opacity:1;fill-rule:evenodd;stroke:none"
           d="m 404.747,338.78 h 2.487 v 48.516 h -2.487 z" /><path
           id="path116"
           style="fill:#ffffff;fill-opacity:1;fill-rule:evenodd;stroke:none"
           d="m 410.628,338.78 h 2.487 v 48.516 h -2.487 z" /><path
           id="path118"
           style="fill:#ffffff;fill-opacity:1;fill-rule:evenodd;stroke:none"
           d="m 416.508,338.78 h 2.488 v 48.516 h -2.488 z" /><path
           id="path120"
           style="fill:#4f4c4d;fill-opacity:1;fill-rule:evenodd;stroke:none"
           d="m 205.739,309.019 h 52.549 v 25.813 h -52.549 z" /><path
           id="path122"
           style="fill:#918f90;fill-opacity:1;fill-rule:evenodd;stroke:none"
           d="m 258.287,309.019 h 78.055 v 25.813 h -78.055 z" /><path
           id="path124"
           style="fill:#d3d2d2;fill-opacity:1;fill-rule:evenodd;stroke:none"
           d="m 336.649,309.019 h 52.548 v 25.813 h -52.548 z" /><g
           transform="translate(152.8794,466.0679)"
           id="g126"><path
             id="path128"
             style="fill:#fff200;fill-opacity:1;fill-rule:evenodd;stroke:none"
             d="M 0,0 H 27.048 V -52.48 H -13.587 C -12.089,-33.896 -7.374,-16.219 0,0" /></g><path
           id="path130"
           style="fill:#00adef;fill-opacity:1;fill-rule:evenodd;stroke:none"
           d="m 180.116,466.068 h 52.291 v -52.48 h -52.291 z" /><path
           id="path132"
           style="fill:#99d420;fill-opacity:1;fill-rule:evenodd;stroke:none"
           d="m 232.217,466.068 h 64.938 v -52.48 h -64.938 z" /><path
           id="path134"
           style="fill:#f466ba;fill-opacity:1;fill-rule:evenodd;stroke:none"
           d="m 297.156,466.068 h 65.882 v -52.48 h -65.882 z" /><path
           id="path136"
           style="fill:#ed1c24;fill-opacity:1;fill-rule:evenodd;stroke:none"
           d="m 363.038,466.068 h 52.29 v -52.48 h -52.29 z" /><g
           transform="translate(415.5176,466.0679)"
           id="g138"><path
             id="path140"
             style="fill:#176fc1;fill-opacity:1;fill-rule:evenodd;stroke:none"
             d="M 0,0 H 26.486 C 33.86,-16.219 38.573,-33.896 40.07,-52.48 H 0 Z" /></g><path
           id="path142"
           style="fill:#231f20;fill-opacity:1;fill-rule:evenodd;stroke:none"
           d="m 297.297,361.706 h 13.146 v 77.558 h -13.146 z" /><path
           id="path144"
           style="fill:#231f20;fill-opacity:1;fill-rule:evenodd;stroke:#231f20;stroke-width:0.216;stroke-linecap:butt;stroke-linejoin:miter;stroke-miterlimit:22.926;stroke-dasharray:none;stroke-opacity:1"
           d="m 231.859,282.897 h 131.832 v 26.428 H 231.859 Z" /><g
           transform="translate(167.8755,309.3252)"
           id="g146"><path
             id="path148"
             style="fill:#ffffff;fill-opacity:1;fill-rule:evenodd;stroke:none"
             d="M 0,0 H 63.676 V -26.428 H 23.594 C 14.784,-18.53 6.86,-9.668 0,0" /></g><g
           transform="translate(389.3828,334.8311)"
           id="g150"><path
             id="path152"
             style="fill:#ffffff;fill-opacity:1;fill-rule:evenodd;stroke:none"
             d="M 0,0 H 52.362 C 48.234,-8.985 43.289,-17.519 37.621,-25.506 h 0.002 c -6.86,-9.668 -14.784,-18.531 -23.594,-26.428 h -40.027 v 26.428 H 0 Z" /></g><g
           transform="translate(427.3438,491.6392)"
           id="g154"><path
             id="path156"
             style="fill:#ffffff;fill-opacity:1;fill-rule:evenodd;stroke:none"
             d="m 0,0 h -259.806 c 28.703,40.782 76.184,67.448 129.903,67.448 C -76.184,67.448 -28.703,40.782 0,0" /></g><g
           transform="translate(249.9331,502.375)"
           id="g158"><path
             id="path160"
             style="fill:#231f20;fill-opacity:1;fill-rule:nonzero;stroke:none"
             d="m 0,0 h -0.029 0.015 L -3.819,8.849 H -5.744 V -1.764 c 0,-0.466 0.204,-0.728 0.729,-0.728 0.525,0 0.729,0.262 0.729,0.728 v 8.018 h 0.03 V 6.24 l 3.804,-8.749 H 1.472 V 8.105 c 0,0.467 -0.204,0.729 -0.728,0.729 -0.525,0 -0.729,-0.262 -0.729,-0.729 z" /></g><g
           transform="translate(260.0938,506.6904)"
           id="g162"><path
             id="path164"
             style="fill:#231f20;fill-opacity:1;fill-rule:nonzero;stroke:none"
             d="m 0,0 c 0.219,-0.423 0.335,-0.7 0.335,-1.181 0,-0.379 -0.087,-0.641 -0.248,-0.962 l -1.399,-2.77 c -0.102,-0.204 -0.204,-0.437 -0.496,-0.437 -0.291,0 -0.393,0.233 -0.495,0.437 l -1.4,2.77 c -0.16,0.321 -0.247,0.583 -0.247,0.962 0,0.481 0.116,0.758 0.335,1.181 l 1.312,2.639 c 0.116,0.233 0.189,0.437 0.495,0.437 0.307,0 0.379,-0.204 0.496,-0.437 z m -0.043,3.338 c -0.351,0.685 -0.948,1.195 -1.765,1.195 -0.816,0 -1.414,-0.51 -1.763,-1.195 L -5.029,0.437 c -0.277,-0.568 -0.379,-0.991 -0.379,-1.618 0,-0.699 0.189,-1.137 0.481,-1.735 l 1.341,-2.682 c 0.35,-0.7 0.933,-1.21 1.778,-1.21 0.846,0 1.429,0.51 1.779,1.21 l 1.341,2.682 c 0.292,0.598 0.481,1.036 0.481,1.735 0,0.627 -0.102,1.05 -0.379,1.618 z" /></g><g
           transform="translate(289.7104,508.6172)"
           id="g166"><path
             id="path168"
             style="fill:#231f20;fill-opacity:1;fill-rule:nonzero;stroke:none"
             d="m 0,0 c -0.059,0.087 -0.219,0.263 -0.219,0.394 0,0.248 0.336,0.204 0.496,0.204 h 3.091 c 0.451,0 0.699,-0.073 0.699,-0.569 0,-0.408 0.263,-0.685 0.7,-0.685 0.525,0 0.758,0.379 0.758,0.845 C 5.525,0.7 5.219,1.239 4.84,1.575 4.417,1.939 3.951,2.056 3.396,2.056 h -3.09 c -0.467,0 -0.802,0 -1.21,-0.263 -0.495,-0.32 -0.772,-0.816 -0.772,-1.399 0,-0.51 0.175,-0.802 0.481,-1.196 l 5,-6.428 c 0.058,-0.088 0.262,-0.306 0.262,-0.423 0,-0.219 -0.364,-0.175 -0.481,-0.175 H 0.422 c -0.407,0 -0.641,0.058 -0.641,0.496 0,0.394 -0.262,0.743 -0.685,0.743 -0.51,0 -0.772,-0.408 -0.772,-0.874 0,-0.511 0.291,-1.036 0.685,-1.356 0.437,-0.365 0.918,-0.467 1.472,-0.467 h 3.207 c 1.006,0 1.837,0.555 1.837,1.648 0,0.495 -0.219,0.83 -0.51,1.209 z" /></g><g
           transform="translate(302.8594,509.2148)"
           id="g170"><path
             id="path172"
             style="fill:#231f20;fill-opacity:1;fill-rule:nonzero;stroke:none"
             d="m 0,0 h 2.143 c 0.378,0 0.729,0.204 0.729,0.729 0,0.525 -0.351,0.729 -0.729,0.729 H -3.601 C -3.979,1.458 -4.33,1.254 -4.33,0.729 -4.33,0.204 -3.979,0 -3.601,0 h 2.143 v -8.426 h -2.143 c -0.378,0 -0.729,-0.204 -0.729,-0.728 0,-0.525 0.351,-0.729 0.729,-0.729 h 5.744 c 0.378,0 0.729,0.204 0.729,0.729 0,0.524 -0.351,0.728 -0.729,0.728 H 0 Z" /></g><g
           transform="translate(314.7695,503.0342)"
           id="g174"><path
             id="path176"
             style="fill:#231f20;fill-opacity:1;fill-rule:nonzero;stroke:none"
             d="M 0,0 V -1.487 C 0,-2.128 -0.438,-2.245 -0.963,-2.245 H -3.28 c -0.831,0 -1.006,0.248 -1.006,1.05 v 2.857 c 0,0.714 0,1.326 0.452,1.895 l 1.589,2.026 c 0.48,0.612 0.423,0.598 1.224,0.598 h 1.75 c 0.378,0 0.729,0.204 0.729,0.729 0,0.525 -0.351,0.729 -0.729,0.729 h -1.954 c -0.947,0 -1.458,-0.248 -2.041,-0.992 L -4.986,4.446 C -5.54,3.732 -5.744,3.251 -5.744,2.318 v -3.645 c 0,-0.728 0.102,-1.268 0.685,-1.793 0.51,-0.466 1.006,-0.583 1.676,-0.583 h 2.508 c 1.385,0 2.333,0.875 2.333,2.289 v 2.872 h -2.872 c -0.379,0 -0.73,-0.205 -0.73,-0.729 C -2.144,0.204 -1.793,0 -1.414,0 Z" /></g><g
           transform="translate(325.2646,501.8242)"
           id="g178"><path
             id="path180"
             style="fill:#231f20;fill-opacity:1;fill-rule:nonzero;stroke:none"
             d="m 0,0 h -0.028 0.014 L -3.819,8.849 H -5.743 V -1.764 c 0,-0.466 0.204,-0.729 0.728,-0.729 0.526,0 0.73,0.263 0.73,0.729 v 8.018 h 0.029 V 6.239 L -0.451,-2.51 H 1.473 V 8.105 c 0,0.467 -0.204,0.729 -0.729,0.729 -0.525,0 -0.729,-0.262 -0.729,-0.729 z" /></g><g
           transform="translate(334.7549,503.2676)"
           id="g182"><path
             id="path184"
             style="fill:#231f20;fill-opacity:1;fill-rule:nonzero;stroke:none"
             d="m 0,0 h -2.288 l 1.137,3.95 h 0.029 z m -4.737,-3.207 c -0.103,-0.35 0.291,-0.729 0.699,-0.729 0.452,0 0.685,0.379 0.787,0.729 l 0.555,1.749 h 3.104 l 0.539,-1.749 c 0.103,-0.35 0.336,-0.729 0.787,-0.729 0.409,0 0.803,0.379 0.701,0.729 l -2.814,9.869 c -0.101,0.379 -0.277,0.743 -0.758,0.743 -0.467,0 -0.627,-0.349 -0.743,-0.743 z" /></g><g
           transform="translate(341.9707,500.7891)"
           id="g186"><path
             id="path188"
             style="fill:#231f20;fill-opacity:1;fill-rule:nonzero;stroke:none"
             d="m 0,0 v 9.155 c 0,0.466 -0.204,0.729 -0.729,0.729 -0.525,0 -0.728,-0.263 -0.728,-0.729 V -1.458 h 6.472 c 0.379,0 0.729,0.205 0.729,0.729 C 5.744,-0.204 5.394,0 5.015,0 Z" /></g><path
           id="path190"
           style="fill:#ffffff;fill-opacity:1;fill-rule:evenodd;stroke:none"
           d="m 282.824,386.971 h 2.326 v 27.096 h -2.326 z" /><path
           id="path192"
           style="fill:#ffffff;fill-opacity:1;fill-rule:nonzero;stroke:none"
           d="m 185.757,404.617 h 4.286 v -8.426 h -4.286 z m 0,1.458 c -0.801,0 -1.457,-0.655 -1.457,-1.458 v -8.426 c 0,-0.815 0.626,-1.457 1.457,-1.457 h 4.286 c 0.831,0 1.458,0.642 1.458,1.457 v 8.426 c 0,0.803 -0.656,1.458 -1.458,1.458 z" /><path
           id="path194"
           style="fill:#ffffff;fill-opacity:1;fill-rule:nonzero;stroke:none"
           d="m 196.253,404.617 h 4.286 v -8.426 h -4.286 z m 0,1.458 c -0.802,0 -1.458,-0.655 -1.458,-1.458 v -8.426 c 0,-0.815 0.627,-1.457 1.458,-1.457 h 4.286 c 0.831,0 1.458,0.642 1.458,1.457 v 8.426 c 0,0.803 -0.656,1.458 -1.458,1.458 z" /><g
           transform="translate(209.417,401.542)"
           id="g196"><path
             id="path198"
             style="fill:#ffffff;fill-opacity:1;fill-rule:nonzero;stroke:none"
             d="m 0,0 c 0.32,0 0.554,0 0.758,0.277 0.16,0.218 0.16,0.379 0.16,0.656 v 0.816 c 0,0.277 0,0.438 -0.16,0.656 C 0.554,2.683 0.32,2.683 0,2.683 h -1.05 c -0.321,0 -0.554,0 -0.758,-0.278 -0.16,-0.218 -0.16,-0.379 -0.16,-0.656 V 0.933 c 0,-0.277 0,-0.438 0.16,-0.656 C -1.604,0 -1.371,0 -1.05,0 Z m 0,-4.956 c 0.32,0 0.554,0 0.758,0.276 0.16,0.219 0.16,0.379 0.16,0.657 v 0.816 c 0,0.277 0,0.437 -0.16,0.656 C 0.554,-2.274 0.32,-2.274 0,-2.274 h -1.05 c -0.321,0 -0.554,0 -0.758,-0.277 -0.16,-0.219 -0.16,-0.379 -0.16,-0.656 v -0.816 c 0,-0.278 0,-0.438 0.16,-0.657 0.204,-0.276 0.437,-0.276 0.758,-0.276 z" /></g><path
           id="path200"
           style="fill:#ffffff;fill-opacity:1;fill-rule:nonzero;stroke:none"
           d="m 217.245,404.617 h 4.286 v -8.426 h -4.286 z m 0,1.458 c -0.802,0 -1.458,-0.655 -1.458,-1.458 v -8.426 c 0,-0.815 0.627,-1.457 1.458,-1.457 h 4.286 c 0.83,0 1.457,0.642 1.457,1.457 v 8.426 c 0,0.803 -0.655,1.458 -1.457,1.458 z" /><path
           id="path202"
           style="fill:#ffffff;fill-opacity:1;fill-rule:nonzero;stroke:none"
           d="m 227.741,404.617 h 4.286 v -8.426 h -4.286 z m 0,1.458 c -0.802,0 -1.458,-0.655 -1.458,-1.458 v -8.426 c 0,-0.815 0.627,-1.457 1.458,-1.457 h 4.285 c 0.831,0 1.458,0.642 1.458,1.457 v 8.426 c 0,0.803 -0.656,1.458 -1.458,1.458 z" /><path
           id="path204"
           style="fill:#ffffff;fill-opacity:1;fill-rule:nonzero;stroke:none"
           d="m 347.484,404.617 h 4.278 v -8.426 h -4.278 z m 0,1.458 c -0.8,0 -1.455,-0.655 -1.455,-1.458 v -8.426 c 0,-0.815 0.625,-1.457 1.455,-1.457 h 4.279 c 0.829,0 1.455,0.642 1.455,1.457 v 8.426 c 0,0.803 -0.655,1.458 -1.455,1.458 z" /><path
           id="path206"
           style="fill:#ffffff;fill-opacity:1;fill-rule:nonzero;stroke:none"
           d="m 357.962,404.617 h 4.277 v -8.426 h -4.277 z m 0,1.458 c -0.801,0 -1.456,-0.655 -1.456,-1.458 v -8.426 c 0,-0.815 0.626,-1.457 1.456,-1.457 h 4.277 c 0.829,0 1.455,0.642 1.455,1.457 v 8.426 c 0,0.803 -0.654,1.458 -1.455,1.458 z" /><g
           transform="translate(368.875,401.2793)"
           id="g208"><path
             id="path210"
             style="fill:#ffffff;fill-opacity:1;fill-rule:nonzero;stroke:none"
             d="m 0,0 c -0.597,0 -0.873,-0.233 -0.873,-0.889 0,-0.656 0.276,-0.889 0.873,-0.889 h 3.405 c 0.597,0 0.873,0.233 0.873,0.889 C 4.278,-0.233 4.002,0 3.405,0 Z" /></g><path
           id="path212"
           style="fill:#ffffff;fill-opacity:1;fill-rule:nonzero;stroke:none"
           d="m 378.916,404.617 h 4.278 v -8.426 h -4.278 z m 0,1.458 c -0.801,0 -1.455,-0.655 -1.455,-1.458 v -8.426 c 0,-0.815 0.625,-1.457 1.455,-1.457 h 4.278 c 0.829,0 1.454,0.642 1.454,1.457 v 8.426 c 0,0.803 -0.654,1.458 -1.454,1.458 z" /><path
           id="path214"
           style="fill:#ffffff;fill-opacity:1;fill-rule:nonzero;stroke:none"
           d="m 389.393,404.617 h 4.278 v -8.426 h -4.278 z m 0,1.458 c -0.8,0 -1.455,-0.655 -1.455,-1.458 v -8.426 c 0,-0.815 0.625,-1.457 1.455,-1.457 h 4.278 c 0.829,0 1.455,0.642 1.455,1.457 v 8.426 c 0,0.803 -0.655,1.458 -1.455,1.458 z" /><g
           transform="translate(400.3066,401.2793)"
           id="g216"><path
             id="path218"
             style="fill:#ffffff;fill-opacity:1;fill-rule:nonzero;stroke:none"
             d="m 0,0 c -0.597,0 -0.873,-0.233 -0.873,-0.889 0,-0.656 0.276,-0.889 0.873,-0.889 h 3.404 c 0.598,0 0.874,0.233 0.874,0.889 C 4.278,-0.233 4.002,0 3.404,0 Z" /></g><path
           id="path220"
           style="fill:#ffffff;fill-opacity:1;fill-rule:nonzero;stroke:none"
           d="m 410.348,404.617 h 4.278 v -8.426 h -4.278 z m 0,1.458 c -0.801,0 -1.455,-0.655 -1.455,-1.458 v -8.426 c 0,-0.815 0.625,-1.457 1.455,-1.457 h 4.278 c 0.829,0 1.455,0.642 1.455,1.457 v 8.426 c 0,0.803 -0.655,1.458 -1.455,1.458 z" /><path
           id="path222"
           style="fill:#ffffff;fill-opacity:1;fill-rule:nonzero;stroke:none"
           d="m 420.824,404.617 h 4.278 v -8.426 h -4.278 z m 0,1.458 c -0.8,0 -1.455,-0.655 -1.455,-1.458 v -8.426 c 0,-0.815 0.626,-1.457 1.455,-1.457 h 4.279 c 0.829,0 1.455,0.642 1.455,1.457 v 8.426 c 0,0.803 -0.655,1.458 -1.455,1.458 z" /><path
           id="path224"
           style="fill:#ffffff;fill-opacity:1;fill-rule:evenodd;stroke:none"
           d="m 158.493,386.971 h 2.326 v 27.096 h -2.326 z" /><g
           transform="translate(138.7793,401.6006)"
           id="g226"><path
             id="path228"
             style="fill:#ffffff;fill-opacity:1;fill-rule:evenodd;stroke:none"
             d="M 0,0 H 20.963 V -2.325 H 0.016 c -0.005,0.486 -0.019,0.97 -0.019,1.457 0,0.29 0.001,0.579 0.003,0.868" /></g><path
           id="path230"
           style="fill:#ffffff;fill-opacity:1;fill-rule:evenodd;stroke:none"
           d="m 433.951,386.971 h 2.326 v 27.096 h -2.326 z" /><g
           transform="translate(456.1035,401.6006)"
           id="g232"><path
             id="path234"
             style="fill:#ffffff;fill-opacity:1;fill-rule:evenodd;stroke:none"
             d="m 0,0 h -21.076 v -2.325 h 21.06 c 0.004,0.485 0.019,0.97 0.019,1.457 C 0.003,-0.578 0.001,-0.289 0,0" /></g><path
           id="path236"
           style="fill:#ffffff;fill-opacity:1;fill-rule:evenodd;stroke:none"
           d="m 257.386,386.971 h 2.326 v 27.096 h -2.326 z" /><path
           id="path238"
           style="fill:#ffffff;fill-opacity:1;fill-rule:evenodd;stroke:none"
           d="m 310.67,386.971 h 2.325 v 27.096 h -2.325 z" /><path
           id="path240"
           style="fill:#ffffff;fill-opacity:1;fill-rule:evenodd;stroke:none"
           d="m 336.131,386.971 h 2.326 v 27.096 h -2.326 z" /><path
           id="path242"
           style="fill:#231f20;fill-opacity:1;fill-rule:evenodd;stroke:none"
           d="m 285.096,361.706 h 12.535 v 77.558 h -12.535 z" /><path
           id="path244"
           style="fill:#ffffff;fill-opacity:1;fill-rule:evenodd;stroke:none"
           d="M 257.952,401.602 H 338.2 v -2.325 h -80.248 z" /><path
           id="path246"
           style="fill:#ffffff;fill-opacity:1;fill-rule:evenodd;stroke:none"
           d="m 295.996,439.264 h 2.326 v -77.656 h -2.326 z" /><g
           transform="translate(206.5205,518.3579)"
           id="g248"><path
             id="path250"
             style="fill:#231f20;fill-opacity:1;fill-rule:evenodd;stroke:none"
             d="M 0,0 H 25.715 V -52.229 H -0.591 v 26.327 h -25.576 v -26.327 h -27.43 c 9.089,19.972 22.207,37.73 38.323,52.236 L 0,0.007 Z" /></g><g
           transform="translate(258.6982,491.6626)"
           id="g252"><path
             id="path254"
             style="fill:#231f20;fill-opacity:1;fill-rule:evenodd;stroke:none"
             d="M 0,0 H 11.698 V 25.96 H -0.317 V 52.623 H 78.425 V 25.96 H 14.245 V 0 H 26.107 V -25.554 H 0 Z" /></g><path
           id="path256"
           style="fill:#231f20;fill-opacity:1;fill-rule:evenodd;stroke:none"
           d="m 311.127,466.108 h 26.107 v 25.554 h -26.107 z" /><g
           transform="translate(387.9961,518.3579)"
           id="g258"><path
             id="path260"
             style="fill:#231f20;fill-opacity:1;fill-rule:evenodd;stroke:none"
             d="M 0,0 H -25.715 V -52.229 H 0.592 V -30.06 H 26.167 V -52.229 H 53.963 C 44.874,-32.257 31.756,-14.499 15.641,0.007 H 0 Z" /></g><g
           transform="translate(284.1001,285.3555)"
           id="g262"><path
             id="path264"
             style="fill:#ed1c24;fill-opacity:1;fill-rule:evenodd;stroke:none"
             d="m 0,0 h 26.65 v -42.468 c -4.302,-0.333 -8.649,-0.509 -13.039,-0.509 -4.585,0 -9.122,0.196 -13.611,0.559 z" /></g><g
           transform="translate(190.3735,285.3555)"
           id="g266"><path
             id="path268"
             style="fill:#fff200;fill-opacity:1;fill-rule:evenodd;stroke:none"
             d="M 0,0 H 94.342 V -42.469 C 58.103,-39.597 25.293,-24.567 0,-1.471 Z" /></g><g
           transform="translate(310.2207,285.3555)"
           id="g270"><path
             id="path272"
             style="fill:#fff200;fill-opacity:1;fill-rule:evenodd;stroke:none"
             d="M 0,0 H 94.342 V -1.421 C 69.055,-24.535 36.242,-39.578 0,-42.464 Z" /></g></g></g></g></svg>
