<?xml version="1.0" encoding="UTF-8" standalone="no"?>
<svg
   xmlns:dc="http://purl.org/dc/elements/1.1/"
   xmlns:cc="http://creativecommons.org/ns#"
   xmlns:rdf="http://www.w3.org/1999/02/22-rdf-syntax-ns#"
   xmlns:svg="http://www.w3.org/2000/svg"
   xmlns="http://www.w3.org/2000/svg"
   xmlns:sodipodi="http://sodipodi.sourceforge.net/DTD/sodipodi-0.dtd"
   xmlns:inkscape="http://www.inkscape.org/namespaces/inkscape"
   inkscape:version="1.0alpha (9dee831, 2019-01-15)"
   sodipodi:docname="Video_icon_01.svg"
   version="1.1"
   viewBox="0 0 29.999999 30"
   height="30"
   width="30"
   data-name="Layer 3"
   id="Layer_3">
  <metadata
     id="metadata33">
    <rdf:RDF>
      <cc:Work
         rdf:about="">
        <dc:format>image/svg+xml</dc:format>
        <dc:type
           rdf:resource="http://purl.org/dc/dcmitype/StillImage" />
        <dc:title>Video_icon_01</dc:title>
      </cc:Work>
    </rdf:RDF>
  </metadata>
  <defs
     id="defs31" />
  <sodipodi:namedview
     inkscape:current-layer="Layer_3"
     inkscape:window-maximized="0"
     inkscape:window-y="33"
     inkscape:window-x="0"
     inkscape:cy="15"
     inkscape:cx="14.975"
     inkscape:zoom="32.433333"
     showgrid="false"
     id="namedview29"
     inkscape:window-height="1127"
     inkscape:window-width="1618"
     inkscape:pageshadow="2"
     inkscape:pageopacity="0"
     guidetolerance="10"
     gridtolerance="10"
     objecttolerance="10"
     borderopacity="1"
     inkscape:document-rotation="0"
     bordercolor="#666666"
     pagecolor="#ffffff" />
  <title
     id="title2">Video_icon_01</title>
  <path
     inkscape:connector-curvature="0"
     id="path4"
     d="M 29.26,11.24 H 1.75 a 0.62,0.62 0 0 0 -0.62,0.62 v 15 A 3.12,3.12 0 0 0 4.25,30 h 22.51 a 3.13,3.13 0 0 0 3.13,-3.12 v -15 A 0.63,0.63 0 0 0 29.26,11.24 Z M 26.78,28.77 H 4.23 A 1.87,1.87 0 0 1 2.36,26.9 V 12.47 h 26.3 V 26.9 a 1.88,1.88 0 0 1 -1.88,1.87 z" />
  <path
     inkscape:connector-curvature="0"
     id="path6"
     d="m 29.92,5.45 -1.06,-4 A 1.88,1.88 0 0 0 26.62,0.05 L 1.46,6 A 1.86,1.86 0 0 0 0.06,8.3 L 1.23,13 a 0.63,0.63 0 0 0 0.61,0.47 0.39,0.39 0 0 0 0.15,0 0.61,0.61 0 0 0 0.45,-0.75 L 2.38,12.44 29.46,6.22 A 0.6,0.6 0 0 0 29.85,5.93 0.58,0.58 0 0 0 29.92,5.45 Z M 2.07,11.16 1.27,8 A 0.61,0.61 0 0 1 1.34,7.52 0.62,0.62 0 0 1 1.74,7.23 l 25.17,-6 H 27 a 0.63,0.63 0 0 1 0.61,0.48 l 0.9,3.41 z" />
  <path
     inkscape:connector-curvature="0"
     id="path8"
     d="m 7.12,11.3 a 0.62,0.62 0 0 0 -0.84,0.28 l -2.5,5 a 0.62,0.62 0 0 0 0.28,0.84 0.55,0.55 0 0 0 0.28,0.07 0.63,0.63 0 0 0 0.56,-0.35 l 2.5,-5 A 0.63,0.63 0 0 0 7.12,11.3 Z" />
  <path
     inkscape:connector-curvature="0"
     id="path10"
     d="m 13.36,11.3 a 0.62,0.62 0 0 0 -0.84,0.28 l -2.5,5 a 0.63,0.63 0 0 0 0.28,0.84 0.58,0.58 0 0 0 0.28,0.07 0.63,0.63 0 0 0 0.56,-0.35 l 2.5,-5 A 0.62,0.62 0 0 0 13.36,11.3 Z" />
  <path
     inkscape:connector-curvature="0"
     id="path12"
     d="m 19.61,11.3 a 0.62,0.62 0 0 0 -0.84,0.28 l -2.5,5 a 0.63,0.63 0 0 0 0.28,0.84 0.58,0.58 0 0 0 0.28,0.07 0.63,0.63 0 0 0 0.56,-0.35 l 2.5,-5 A 0.63,0.63 0 0 0 19.61,11.3 Z" />
  <path
     inkscape:connector-curvature="0"
     id="path14"
     d="m 25.85,11.3 a 0.62,0.62 0 0 0 -0.84,0.28 l -2.5,5 a 0.64,0.64 0 0 0 0.28,0.84 0.61,0.61 0 0 0 0.28,0.07 0.63,0.63 0 0 0 0.56,-0.35 l 2.5,-5 A 0.62,0.62 0 0 0 25.85,11.3 Z" />
  <path
     inkscape:connector-curvature="0"
     id="path16"
     d="M 29.08,16.32 H 2.1 a 0.62,0.62 0 0 0 -0.62,0.5 0.61,0.61 0 0 0 0.6,0.73 h 27 a 0.62,0.62 0 0 0 0.62,-0.49 0.61,0.61 0 0 0 -0.62,-0.74 z" />
  <path
     inkscape:connector-curvature="0"
     id="path18"
     d="M 7.88,10.14 3.58,5.84 A 0.63,0.63 0 1 0 2.69,6.72 L 7,11 a 0.6,0.6 0 0 0 0.88,0 0.63,0.63 0 0 0 0,-0.86 z" />
  <path
     inkscape:connector-curvature="0"
     id="path20"
     d="M 14,8.75 9.68,4.45 A 0.62225397,0.62225397 0 0 0 8.8,5.33 l 4.31,4.31 a 0.63,0.63 0 0 0 0.88,0 A 0.64,0.64 0 0 0 14,8.75 Z" />
  <path
     inkscape:connector-curvature="0"
     id="path22"
     d="m 20.1,7.36 -4.3,-4.3 a 0.64,0.64 0 0 0 -0.89,0 0.63,0.63 0 0 0 0,0.88 l 4.3,4.31 a 0.62,0.62 0 0 0 0.44,0.18 0.66,0.66 0 0 0 0.45,-0.18 0.64,0.64 0 0 0 0,-0.89 z" />
  <path
     inkscape:connector-curvature="0"
     id="path24"
     d="M 26.2,6 21.9,1.7 a 0.62225397,0.62225397 0 0 0 -0.88,0.88 l 4.3,4.3 a 0.63,0.63 0 0 0 0.88,0 0.63,0.63 0 0 0 0,-0.88 z" />
  <path
     inkscape:connector-curvature="0"
     id="path26"
     d="m 18.72,22.12 -4.36,-3 a 0.65,0.65 0 0 0 -1,0.53 v 5.95 a 0.7,0.7 0 0 0 0.16,0.46 0.68,0.68 0 0 0 0.5,0.22 0.7,0.7 0 0 0 0.37,-0.11 l 4.35,-3 a 0.72,0.72 0 0 0 0.24,-0.28 0.65,0.65 0 0 0 -0.26,-0.77 z m -4.08,2.28 v -3.49 l 2.55,1.75 z" />
</svg>
