<?xml version="1.0" encoding="UTF-8" standalone="no"?>
<svg
   xmlns:dc="http://purl.org/dc/elements/1.1/"
   xmlns:cc="http://creativecommons.org/ns#"
   xmlns:rdf="http://www.w3.org/1999/02/22-rdf-syntax-ns#"
   xmlns:svg="http://www.w3.org/2000/svg"
   xmlns="http://www.w3.org/2000/svg"
   xmlns:sodipodi="http://sodipodi.sourceforge.net/DTD/sodipodi-0.dtd"
   xmlns:inkscape="http://www.inkscape.org/namespaces/inkscape"
   inkscape:version="1.0alpha (9dee831, 2019-01-15)"
   sodipodi:docname="Autostart_icon.svg"
   version="1.1"
   viewBox="0 0 30.96 30.000001"
   height="30"
   width="30.959999"
   data-name="Layer 2"
   id="Layer_2">
  <metadata
     id="metadata13">
    <rdf:RDF>
      <cc:Work
         rdf:about="">
        <dc:format>image/svg+xml</dc:format>
        <dc:type
           rdf:resource="http://purl.org/dc/dcmitype/StillImage" />
        <dc:title>Autostart_icon</dc:title>
      </cc:Work>
    </rdf:RDF>
  </metadata>
  <sodipodi:namedview
     inkscape:current-layer="Layer_2"
     inkscape:window-maximized="0"
     inkscape:window-y="33"
     inkscape:window-x="0"
     inkscape:cy="10.570377"
     inkscape:cx="15.48"
     inkscape:zoom="32.138244"
     showgrid="false"
     id="namedview11"
     inkscape:window-height="1167"
     inkscape:window-width="1713"
     inkscape:pageshadow="2"
     inkscape:pageopacity="0"
     guidetolerance="10"
     gridtolerance="10"
     objecttolerance="10"
     borderopacity="1"
     inkscape:document-rotation="0"
     bordercolor="#666666"
     pagecolor="#ffffff" />
  <defs
     id="defs4">
    <style
       id="style2">.cls-1{fill:none;stroke:#000;stroke-miterlimit:10;}</style>
  </defs>
  <title
     id="title6">Autostart_icon</title>
  <path
     inkscape:connector-curvature="0"
     id="path8"
     transform="translate(0.46,-3.87)"
     d="m 28.74,9.66 a 2,2 0 0 0 -0.41,0.05 l -1.54,0.42 -1.61,-3.81 a 3.49,3.49 0 0 0 -3,-1.95 H 7.67 c 0,0 -2.49,0.85 -2.93,1.94 L 3.17,10.13 1.67,9.72 A 1.32,1.32 0 0 0 1.28,9.66 1.23,1.23 0 0 0 0,11 v 0.89 a 1.57,1.57 0 0 0 1.6,1.57 H 1.77 L 1.51,14.1 a 26.54,26.54 0 0 0 -0.84,3.8 v 7.55 A 1.59,1.59 0 0 0 2.3,27 H 4.44 A 1.59,1.59 0 0 0 6,25.41 v -1.87 h 17.88 v 1.87 A 1.59,1.59 0 0 0 25.47,27 h 2.14 A 1.59,1.59 0 0 0 29.2,25.41 V 17.87 A 12,12 0 0 0 28.42,14 l -0.24,-0.57 h 0.23 A 1.59,1.59 0 0 0 30,11.83 V 11 A 1.23,1.23 0 0 0 28.74,9.66 Z M 4.34,12.51 6.7,7.74 A 2.07,2.07 0 0 1 8.46,6.56 h 13.11 a 2,2 0 0 1 1.75,1.18 l 2.37,4.77 A 0.79,0.79 0 0 1 24.9,13.69 H 5.12 A 0.79,0.79 0 0 1 4.34,12.51 Z m 4.65,8 H 4.54 A 0.64,0.64 0 0 1 3.9,19.87 V 17.65 A 0.64,0.64 0 0 1 4.54,17 H 9 a 0.64,0.64 0 0 1 0.64,0.64 v 2.19 A 0.64,0.64 0 0 1 9,20.48 Z m 16.51,0 h -4.45 a 0.64,0.64 0 0 1 -0.64,-0.64 v -2.22 a 0.64,0.64 0 0 1 0.64,-0.64 h 4.45 a 0.64,0.64 0 0 1 0.64,0.64 v 2.19 a 0.64,0.64 0 0 1 -0.64,0.64 z"
     class="cls-1" />
</svg>
