<?xml version="1.0" encoding="UTF-8" standalone="no"?>
<svg
   xmlns:dc="http://purl.org/dc/elements/1.1/"
   xmlns:cc="http://creativecommons.org/ns#"
   xmlns:rdf="http://www.w3.org/1999/02/22-rdf-syntax-ns#"
   xmlns:svg="http://www.w3.org/2000/svg"
   xmlns="http://www.w3.org/2000/svg"
   xmlns:sodipodi="http://sodipodi.sourceforge.net/DTD/sodipodi-0.dtd"
   xmlns:inkscape="http://www.inkscape.org/namespaces/inkscape"
   id="Layer_2"
   data-name="Layer 2"
   width="30"
   height="30"
   viewBox="0 0 30 30.000001"
   version="1.1"
   sodipodi:docname="aux_icons2..svg"
   inkscape:version="0.92.4 (f8dce91, 2019-08-02)">
  <metadata
     id="metadata23">
    <rdf:RDF>
      <cc:Work
         rdf:about="">
        <dc:format>image/svg+xml</dc:format>
        <dc:type
           rdf:resource="http://purl.org/dc/dcmitype/StillImage" />
        <dc:title>setting-gear_icon</dc:title>
      </cc:Work>
    </rdf:RDF>
  </metadata>
  <sodipodi:namedview
     pagecolor="#ffffff"
     bordercolor="#666666"
     borderopacity="1"
     objecttolerance="10"
     gridtolerance="10"
     guidetolerance="10"
     inkscape:pageopacity="0"
     inkscape:pageshadow="2"
     inkscape:window-width="1920"
     inkscape:window-height="1021"
     id="namedview21"
     showgrid="false"
     inkscape:zoom="20.306986"
     inkscape:cx="17.972775"
     inkscape:cy="11.639936"
     inkscape:window-x="0"
     inkscape:window-y="35"
     inkscape:window-maximized="1"
     inkscape:current-layer="Layer_2" />
  <defs
     id="defs4">
    <style
       id="style2">.cls-1{fill:none;stroke:#000;stroke-miterlimit:10;stroke-width:0.65px;}</style>
  </defs>
  <title
     id="title6">setting-gear_icon</title>
  <path
     d="m 16.597864,19.817352 h -1.941817 a 6.250667,6.250667 0 0 0 -0.609475,-1.417385 l 1.417385,-1.417385 a 0.39686775,0.39686775 0 0 0 0.11339,-0.283477 0.42521545,0.42521545 0 0 0 -0.11339,-0.283477 l -1.842601,-1.814252 a 0.3826939,0.3826939 0 0 0 -0.566954,0 l -1.417384,1.417385 A 5.9671901,5.9671901 0 0 0 10.219633,15.423459 V 13.410772 A 0.4110416,0.4110416 0 0 0 9.7802435,12.999731 H 7.2147769 A 0.4110416,0.4110416 0 0 0 6.8037353,13.396599 V 15.35259 A 6.250667,6.250667 0 0 0 5.3863505,15.962065 L 3.9689657,14.54468 a 0.42521545,0.42521545 0 0 0 -0.5811278,0 l -1.8000787,1.842601 a 0.3826939,0.3826939 0 0 0 -0.1275646,0.283477 0.3543462,0.3543462 0 0 0 0.1275646,0.283477 L 3.005144,18.371619 A 6.0097116,6.0097116 0 0 0 2.3956686,19.789004 H 0.41132982 A 0.4110416,0.4110416 0 0 0 2.8821841e-4,20.228393 V 22.79386 A 0.4110416,0.4110416 0 0 0 0.41132982,23.204902 H 2.3389732 a 6.9168379,6.9168379 0 0 0 0.6094754,1.417384 l -1.4173848,1.417385 a 0.42521545,0.42521545 0 0 0 0,0.581128 l 1.8142526,1.800079 a 0.42521545,0.42521545 0 0 0 0.5811278,0 L 5.343829,27.003493 a 6.0097116,6.0097116 0 0 0 1.4173848,0.609475 v 1.955991 a 0.4110416,0.4110416 0 0 0 0.4110416,0.411042 h 2.6079881 a 0.4110416,0.4110416 0 0 0 0.4110415,-0.411042 v -1.899295 a 6.9168379,6.9168379 0 0 0 1.417385,-0.609476 l 1.417385,1.417385 a 0.39686775,0.39686775 0 0 0 0.566954,0 l 1.814252,-1.814252 a 0.39686775,0.39686775 0 0 0 0,-0.566954 l -1.417385,-1.417385 a 5.9671901,5.9671901 0 0 0 0.595302,-1.417385 h 1.970165 a 0.4110416,0.4110416 0 0 0 0.396868,-0.411042 v -2.622162 a 0.4110416,0.4110416 0 0 0 -0.354347,-0.411041 z m -0.36852,2.607988 h -1.814252 a 0.4110416,0.4110416 0 0 0 -0.396868,0.311825 5.5844962,5.5844962 0 0 1 -0.751214,1.800078 0.4110416,0.4110416 0 0 0 0,0.510259 l 1.346516,1.318168 -1.261473,1.233125 -1.332342,-1.318168 a 0.42521545,0.42521545 0 0 0 -0.524432,0 5.2868454,5.2868454 0 0 1 -1.8284263,0.73704 0.4110416,0.4110416 0 0 0 -0.3118247,0.396867 v 1.870948 H 7.6399924 V 27.428708 A 0.4110416,0.4110416 0 0 0 7.3281677,27.031841 5.4569316,5.4569316 0 0 1 5.528089,26.280627 a 0.4110416,0.4110416 0 0 0 -0.5102585,0 L 3.6996626,27.627142 2.4665378,26.36567 3.7988795,25.019154 a 0.3826939,0.3826939 0 0 0 0,-0.496085 5.8112778,5.8112778 0 0 1 -0.7512139,-1.8426 0.3826939,0.3826939 0 0 0 -0.3826939,-0.311824 H 0.83654526 V 20.653609 H 2.636624 a 0.4110416,0.4110416 0 0 0 0.3968677,-0.311825 5.4569316,5.4569316 0 0 1 0.751214,-1.800078 0.4110416,0.4110416 0 0 0 0,-0.510259 l -1.3465156,-1.318168 1.2614725,-1.233125 1.4173848,1.318168 a 0.42521545,0.42521545 0 0 0 0.5102585,0 5.5278008,5.5278008 0 0 1 1.8142526,-0.751214 0.39686775,0.39686775 0 0 0 0.3259985,-0.396868 v -1.814252 h 1.6441664 v 1.800079 a 0.4110416,0.4110416 0 0 0 0.3118247,0.411041 5.4569316,5.4569316 0 0 1 1.8000789,0.751214 0.4110416,0.4110416 0 0 0 0.510258,0 l 1.318168,-1.417385 1.233125,1.261473 -1.318168,1.346515 a 0.3826939,0.3826939 0 0 0 0,0.496085 5.6695393,5.6695393 0 0 1 0.751214,1.828427 0.3826939,0.3826939 0 0 0 0.396868,0.325998 h 1.870948 v 1.771731 z"
     id="path8"
     inkscape:connector-curvature="0"
     style="stroke-width:1.41738486" />
  <circle
     class="cls-1"
     cx="8.5045967"
     cy="21.504038"
     r="3.543462"
     id="circle10"
     style="fill:none;stroke:#000000;stroke-width:0.92130011px;stroke-miterlimit:10" />
  <path
     d="M 29.425197,11.582346 H 27.809378 A 5.2584977,5.2584977 0 0 0 27.313294,10.377569 L 28.461375,9.2153134 A 0.29765081,0.29765081 0 0 0 28.560592,8.974358 0.28347696,0.28347696 0 0 0 28.461375,8.7475764 L 26.9306,7.2451485 a 0.3543462,0.3543462 0 0 0 -0.481911,0 L 25.286433,8.4074041 A 5.41441,5.41441 0 0 0 24.09583,7.8971455 V 6.267153 A 0.34017236,0.34017236 0 0 0 23.755658,5.9128068 H 21.615407 A 0.34017236,0.34017236 0 0 0 21.275234,6.2529791 V 7.8829717 A 4.7340653,4.7340653 0 0 0 20.070457,8.3932302 L 18.908202,7.2309747 a 0.34017236,0.34017236 0 0 0 -0.467737,0 l -1.516602,1.5166017 a 0.34017236,0.34017236 0 0 0 -0.08504,0.2409554 0.32599851,0.32599851 0 0 0 0.08504,0.2267816 l 1.162255,1.1622556 a 5.41441,5.41441 0 0 0 -0.510258,1.204777 h -1.629993 a 0.34017236,0.34017236 0 0 0 -0.340172,0.340172 v 2.154425 a 0.34017236,0.34017236 0 0 0 0.340172,0.340173 h 1.615819 a 4.8332822,4.8332822 0 0 0 0.510259,1.218951 l -1.162256,1.148081 a 0.3543462,0.3543462 0 0 0 0,0.481911 l 1.516602,1.502428 a 0.34017236,0.34017236 0 0 0 0.467737,0 l 1.162255,-1.148082 a 5.3718885,5.3718885 0 0 0 1.218951,0.496085 v 1.629993 a 0.34017236,0.34017236 0 0 0 0.340173,0.340172 h 2.140251 a 0.34017236,0.34017236 0 0 0 0.340172,-0.340172 v -1.615819 a 5.3718885,5.3718885 0 0 0 1.218951,-0.496085 l 1.148082,1.148082 a 0.32599851,0.32599851 0 0 0 0.481911,0 l 1.502428,-1.530776 a 0.3543462,0.3543462 0 0 0 0,-0.481911 L 27.29912,15.607719 a 5.3718885,5.3718885 0 0 0 0.496085,-1.190603 h 1.629992 a 0.34017236,0.34017236 0 0 0 0.340172,-0.340173 v -2.140251 a 0.34017236,0.34017236 0 0 0 -0.340172,-0.354346 z m -0.311825,2.168599 h -1.502428 a 0.34017236,0.34017236 0 0 0 -0.325998,0.269303 4.5072837,4.5072837 0 0 1 -0.623649,1.502428 0.32599851,0.32599851 0 0 0 0,0.411041 l 1.119734,1.105561 -1.048865,1.034691 -1.10556,-1.105561 a 0.36852005,0.36852005 0 0 0 -0.43939,0 4.8616299,4.8616299 0 0 1 -1.516601,0.609476 0.3543462,0.3543462 0 0 0 -0.269303,0.340172 v 1.54495 h -1.417385 v -1.417385 a 0.34017236,0.34017236 0 0 0 -0.25513,-0.340173 4.3938929,4.3938929 0 0 1 -1.502427,-0.623649 0.34017236,0.34017236 0 0 0 -0.425216,0 l -1.091386,1.119734 -1.034691,-1.048865 1.10556,-1.119734 a 0.32599851,0.32599851 0 0 0 0,-0.411041 4.9750207,4.9750207 0 0 1 -0.623649,-1.530776 0.34017236,0.34017236 0 0 0 -0.325999,-0.269303 h -1.530775 v -1.417385 h 1.502428 a 0.32599851,0.32599851 0 0 0 0.325998,-0.255129 4.8474561,4.8474561 0 0 1 0.637823,-1.502428 0.34017236,0.34017236 0 0 0 0,-0.425215 l -1.10556,-1.0913867 1.034691,-1.0346909 1.119734,1.1055602 a 0.34017236,0.34017236 0 0 0 0.425215,0 4.9041515,4.9041515 0 0 1 1.516602,-0.6236494 0.34017236,0.34017236 0 0 0 0.269303,-0.3259985 V 6.6214992 h 1.417385 v 1.5024279 a 0.34017236,0.34017236 0 0 0 0.269303,0.3259985 4.8474561,4.8474561 0 0 1 1.502428,0.6378232 0.32599851,0.32599851 0 0 0 0.411042,0 l 1.10556,-1.119734 1.034691,1.0346909 -1.119734,1.1197343 a 0.36852005,0.36852005 0 0 0 0,0.425215 4.5356314,4.5356314 0 0 1 0.623649,1.530776 0.34017236,0.34017236 0 0 0 0.340172,0.255129 h 1.54495 v 1.417385 z"
     id="path12"
     inkscape:connector-curvature="0"
     style="stroke-width:1.41738486" />
  <circle
     class="cls-1"
     cx="22.692619"
     cy="12.999729"
     r="2.9481604"
     id="circle14"
     style="fill:none;stroke:#000000;stroke-width:0.721;stroke-miterlimit:10;stroke-dasharray:none" />
  <path
     d="M 16.243518,5.6576775 14.967872,5.4450698 A 4.2521545,4.2521545 0 0 0 14.726916,4.495422 l 1.063039,-0.7653878 a 0.21260772,0.21260772 0 0 0 0.09922,-0.1700862 0.24095542,0.24095542 0 0 0 0,-0.1984339 L 14.882829,1.9441293 a 0.26930312,0.26930312 0 0 0 -0.36852,0 l -1.10556,0.6661709 A 3.9828513,3.9828513 0 0 0 12.501622,2.0575201 l 0.25513,-1.28982049 A 0.25512927,0.25512927 0 0 0 12.52997,0.45587495 L 10.800761,0.24326723 A 0.29765081,0.29765081 0 0 0 10.488936,0.4700488 L 10.290502,1.6606523 A 5.2159761,5.2159761 0 0 0 9.2558111,1.9016078 L 8.5045971,0.8527427 a 0.26930312,0.26930312 0 0 0 -0.36852,0 l -1.403211,0.9496481 a 0.21260772,0.21260772 0 0 0 -0.099217,0.1700862 0.24095542,0.24095542 0 0 0 0,0.1984339 L 7.399037,3.2339495 A 3.9828513,3.9828513 0 0 0 6.8462569,4.1410758 L 5.6698275,3.928468 A 0.28347696,0.28347696 0 0 0 5.3580028,4.1552496 L 5.0178305,5.9128068 A 0.26930312,0.26930312 0 0 0 5.2304382,6.2246314 L 6.5060845,6.4372392 A 4.2521545,4.2521545 0 0 0 6.7612138,7.3301916 L 5.6698275,8.1522748 a 0.25512927,0.25512927 0 0 0 0,0.3685201 l 1.0063432,1.4173848 a 0.28347696,0.28347696 0 0 0 0.3826939,0 L 8.1219032,9.1727919 A 4.1529375,4.1529375 0 0 0 9.0148557,9.7397458 L 8.8164218,11.015392 a 0.25512927,0.25512927 0 0 0 0.2126077,0.311825 l 1.6441665,0.255129 a 0.26930312,0.26930312 0 0 0 0.311825,-0.226782 l 0.212607,-1.190603 a 4.8758038,4.8758038 0 0 0 1.020517,-0.2409552 l 0.765388,1.0630382 a 0.28347696,0.28347696 0 0 0 0.382694,0 l 1.417385,-1.0063428 a 0.24095542,0.24095542 0 0 0 0,-0.36852 L 14.032398,8.5491425 a 5.3435408,5.3435408 0 0 0 0.55278,-0.9071262 l 1.28982,0.2126077 A 0.26930312,0.26930312 0 0 0 16.172649,7.6278424 L 16.4703,5.9128068 A 0.28347696,0.28347696 0 0 0 16.243518,5.6576775 Z m -0.524432,1.6725141 h 0.07087 l -1.2473,-0.2126077 a 0.28347696,0.28347696 0 0 0 -0.29765,0.1700862 3.7418959,3.7418959 0 0 1 -0.694519,1.1055601 0.26930312,0.26930312 0 0 0 0,0.3401724 l 0.73704,1.0063432 -0.949648,0.6803452 -0.73704,-1.0063437 a 0.28347696,0.28347696 0 0 0 -0.340172,-0.099217 3.8978083,3.8978083 0 0 1 -1.275646,0.2976508 0.26930312,0.26930312 0 0 0 -0.25513,0.2267815 L 10.531457,11.072088 9.355028,10.887827 9.539288,9.7113981 A 0.25512927,0.25512927 0 0 0 9.3833757,9.4137473 3.4725928,3.4725928 0 0 1 8.2778156,8.7475764 a 0.28347696,0.28347696 0 0 0 -0.3401724,0 L 6.9313,9.4987904 6.2509553,8.5349687 7.2714723,7.7979286 A 0.28347696,0.28347696 0 0 0 7.3565154,7.4719301 3.4300713,3.4300713 0 0 1 7.0872123,6.1395884 0.28347696,0.28347696 0 0 0 6.832083,5.9128068 L 5.6698275,5.6860252 5.7832183,4.495422 6.9738215,4.6938558 A 0.29765081,0.29765081 0 0 0 7.2714723,4.495422 3.4300713,3.4300713 0 0 1 7.951817,3.3898618 a 0.25512927,0.25512927 0 0 0 0,-0.3401723 L 7.2289508,2.1000416 8.1927725,1.4196966 8.9298126,2.4260401 a 0.26930312,0.26930312 0 0 0 0.3259985,0.099217 3.9828513,3.9828513 0 0 1 1.2756459,-0.2976508 0.25512927,0.25512927 0 0 0 0.25513,-0.2267816 L 10.985021,0.76769961 12.16145,0.96613349 11.963016,2.1425632 a 0.28347696,0.28347696 0 0 0 0.170086,0.2976508 3.4725928,3.4725928 0 0 1 1.10556,0.6378231 0.25512927,0.25512927 0 0 0 0.325999,0 l 1.020517,-0.7512139 0.680345,0.9638217 -1.020517,0.7370401 a 0.26930312,0.26930312 0 0 0 -0.07087,0.467737 4.0678944,4.0678944 0 0 1 0.297651,1.2898202 0.26930312,0.26930312 0 0 0 0.226782,0.2551292 l 1.233125,0.1984339 z"
     id="path16"
     inkscape:connector-curvature="0"
     style="stroke-width:1.41738486" />
  <circle
     class="cls-1"
     cx="10.744065"
     cy="5.8986325"
     r="2.3670325"
     id="circle18"
     style="fill:none;stroke:#000000;stroke-width:0.621;stroke-miterlimit:10;stroke-dasharray:none" />
</svg>
