<?xml version="1.0" encoding="UTF-8" standalone="no"?>
<svg
   xmlns:dc="http://purl.org/dc/elements/1.1/"
   xmlns:cc="http://creativecommons.org/ns#"
   xmlns:rdf="http://www.w3.org/1999/02/22-rdf-syntax-ns#"
   xmlns:svg="http://www.w3.org/2000/svg"
   xmlns="http://www.w3.org/2000/svg"
   xmlns:sodipodi="http://sodipodi.sourceforge.net/DTD/sodipodi-0.dtd"
   xmlns:inkscape="http://www.inkscape.org/namespaces/inkscape"
   inkscape:version="1.0alpha (9dee831, 2019-01-15)"
   height="25"
   width="25"
   sodipodi:docname="play_icon.svg"
   xml:space="preserve"
   viewBox="0 0 25 25"
   y="0px"
   x="0px"
   id="Capa_1"
   version="1.1"><metadata
   id="metadata39">
  <rdf:RDF>
    <cc:Work
       rdf:about="">
      <dc:format>image/svg+xml</dc:format>
      <dc:type
         rdf:resource="http://purl.org/dc/dcmitype/StillImage" />
      <dc:title></dc:title>
    </cc:Work>
  </rdf:RDF>
</metadata>
<defs
   id="defs37" />
<sodipodi:namedview
   inkscape:current-layer="Capa_1"
   inkscape:window-maximized="0"
   inkscape:window-y="33"
   inkscape:window-x="0"
   inkscape:cy="30"
   inkscape:cx="30"
   inkscape:zoom="16.216667"
   showgrid="false"
   id="namedview35"
   inkscape:window-height="1540"
   inkscape:window-width="1907"
   inkscape:pageshadow="2"
   inkscape:pageopacity="0"
   guidetolerance="10"
   gridtolerance="10"
   objecttolerance="10"
   borderopacity="1"
   inkscape:document-rotation="0"
   bordercolor="#666666"
   pagecolor="#ffffff" />

<path
   style="stroke-width:0.416179"
   inkscape:connector-curvature="0"
   id="path2"
   d="M 12.485365,0 C 5.6009349,0 0,5.6009349 0,12.485365 c 0,6.884431 5.6009349,12.485366 12.485365,12.485366 6.884431,0 12.485366,-5.600935 12.485366,-12.485366 C 24.970731,5.6009349 19.369796,0 12.485365,0 Z m 6.476992,12.829129 -9.1559349,6.242683 c -0.070334,0.04786 -0.1523214,0.07241 -0.2343087,0.07241 -0.066589,0 -0.1335934,-0.01581 -0.1943555,-0.04828 -0.1365066,-0.072 -0.2218233,-0.2135 -0.2218233,-0.367902 V 6.2426827 c 0,-0.1544024 0.085317,-0.2959032 0.2218233,-0.3679021 0.1365067,-0.072415 0.3013135,-0.062427 0.4290804,0.024138 l 9.1559347,6.2426834 c 0.113201,0.07741 0.181454,0.206008 0.181454,0.343763 0,0.137756 -0.06825,0.266355 -0.18187,0.343764 z" />

<g
   id="g4">
</g>

<g
   id="g6">
</g>

<g
   id="g8">
</g>

<g
   id="g10">
</g>

<g
   id="g12">
</g>

<g
   id="g14">
</g>

<g
   id="g16">
</g>

<g
   id="g18">
</g>

<g
   id="g20">
</g>

<g
   id="g22">
</g>

<g
   id="g24">
</g>

<g
   id="g26">
</g>

<g
   id="g28">
</g>

<g
   id="g30">
</g>

<g
   id="g32">
</g>

</svg>
