<?xml version="1.0" encoding="UTF-8" standalone="no"?>
<svg
   xmlns:dc="http://purl.org/dc/elements/1.1/"
   xmlns:cc="http://creativecommons.org/ns#"
   xmlns:rdf="http://www.w3.org/1999/02/22-rdf-syntax-ns#"
   xmlns:svg="http://www.w3.org/2000/svg"
   xmlns="http://www.w3.org/2000/svg"
   xmlns:sodipodi="http://sodipodi.sourceforge.net/DTD/sodipodi-0.dtd"
   xmlns:inkscape="http://www.inkscape.org/namespaces/inkscape"
   inkscape:version="1.0alpha (9dee831, 2019-01-15)"
   sodipodi:docname="power_icon.svg"
   xml:space="preserve"
   width="25"
   viewBox="0 0 25 25"
   version="1.1"
   id="Layer_1"
   height="25"
   enable-background="new 0 0 64 64">
  <metadata
     id="metadata9">
    <rdf:RDF>
      <cc:Work
         rdf:about="">
        <dc:format>image/svg+xml</dc:format>
        <dc:type
           rdf:resource="http://purl.org/dc/dcmitype/StillImage" />
        <dc:title></dc:title>
      </cc:Work>
    </rdf:RDF>
  </metadata>
  <defs
     id="defs7" />
  <sodipodi:namedview
     inkscape:current-layer="Layer_1"
     inkscape:window-maximized="0"
     inkscape:window-y="33"
     inkscape:window-x="0"
     inkscape:cy="20.075546"
     inkscape:cx="20.881093"
     inkscape:zoom="15.203125"
     showgrid="false"
     id="namedview5"
     inkscape:window-height="1128"
     inkscape:window-width="1785"
     inkscape:pageshadow="2"
     inkscape:pageopacity="0"
     guidetolerance="10"
     gridtolerance="10"
     objecttolerance="10"
     borderopacity="1"
     inkscape:document-rotation="0"
     bordercolor="#666666"
     pagecolor="#ffffff" />
  <path
     style="stroke-width:0.499511;fill:#c20000;fill-opacity:1"
     inkscape:connector-curvature="0"
     id="path2"
     d="m 24.923155,12.490578 c 0,-6.8378111 -5.563059,-12.40086949 -12.40087,-12.40086949 -6.8378108,0 -12.40086882,5.56305839 -12.40086882,12.40086949 0,6.837811 5.56305802,12.400869 12.40086882,12.400869 6.837811,0 12.40087,-5.563058 12.40087,-12.400869 z m -11.18356,-0.01898 c 0,0.649864 -0.526485,1.176848 -1.176849,1.176848 -0.649865,0 -1.176849,-0.526984 -1.176849,-1.176848 V 6.3510838 c 0,-0.6498643 0.526984,-1.1768488 1.176849,-1.1768488 0.649864,0 1.176849,0.526485 1.176849,1.1768488 z m 6.790357,0.03946 c 0,4.415181 -3.591986,8.007167 -8.007667,8.007167 -4.4156802,0 -8.0076663,-3.591986 -8.0076663,-8.007167 0,-2.140406 0.8336844,-4.152438 2.3482028,-5.664459 0.2297753,-0.2297752 0.5304811,-0.3441633 0.8316865,-0.3441633 0.3012053,0 0.6029102,0.1148876 0.8326854,0.3451624 0.4595505,0.4600499 0.459051,1.2048214 -9.99e-4,1.6643719 -1.0684548,1.0679553 -1.6573787,2.488066 -1.6573787,3.999088 0,3.116951 2.5360192,5.65297 5.6534693,5.65297 3.117451,0 5.65347,-2.536019 5.65347,-5.65297 0,-1.510023 -0.587425,-2.9296342 -1.655381,-3.9975895 -0.45955,-0.46005 -0.459051,-1.2048214 5e-4,-1.6648714 0.46005,-0.46005 1.204821,-0.459051 1.664871,4.995e-4 1.511522,1.5125204 2.344207,3.5235534 2.344207,5.6619614 z" />
</svg>
