<?xml version="1.0" encoding="UTF-8" standalone="no"?>
<svg
   xmlns:dc="http://purl.org/dc/elements/1.1/"
   xmlns:cc="http://creativecommons.org/ns#"
   xmlns:rdf="http://www.w3.org/1999/02/22-rdf-syntax-ns#"
   xmlns:svg="http://www.w3.org/2000/svg"
   xmlns="http://www.w3.org/2000/svg"
   xmlns:sodipodi="http://sodipodi.sourceforge.net/DTD/sodipodi-0.dtd"
   xmlns:inkscape="http://www.inkscape.org/namespaces/inkscape"
   inkscape:version="1.0alpha (9dee831, 2019-01-15)"
   sodipodi:docname="Settings_icon_03.svg"
   version="1.1"
   viewBox="0 0 30 30"
   height="30"
   width="30"
   data-name="Layer 2"
   id="Layer_2">
  <metadata
     id="metadata11">
    <rdf:RDF>
      <cc:Work
         rdf:about="">
        <dc:format>image/svg+xml</dc:format>
        <dc:type
           rdf:resource="http://purl.org/dc/dcmitype/StillImage" />
        <dc:title>Settings_icon_03</dc:title>
      </cc:Work>
    </rdf:RDF>
  </metadata>
  <defs
     id="defs9" />
  <sodipodi:namedview
     inkscape:current-layer="Layer_2"
     inkscape:window-maximized="0"
     inkscape:window-y="33"
     inkscape:window-x="0"
     inkscape:cy="14.91"
     inkscape:cx="14.91"
     inkscape:zoom="32.629108"
     showgrid="false"
     id="namedview7"
     inkscape:window-height="480"
     inkscape:window-width="790"
     inkscape:pageshadow="2"
     inkscape:pageopacity="0"
     guidetolerance="10"
     gridtolerance="10"
     objecttolerance="10"
     borderopacity="1"
     inkscape:document-rotation="0"
     bordercolor="#666666"
     pagecolor="#ffffff" />
  <title
     id="title2">Settings_icon_03</title>
  <path
     inkscape:connector-curvature="0"
     id="path4"
     transform="translate(-0.18)"
     d="M 4.24,29.69 9.8,24.13 a 11.58,11.58 0 0 0 3.25,1.35 L 13.6,28 a 0.58,0.58 0 0 0 0.55,0.44 h 3.34 A 0.57,0.57 0 0 0 18,28 l 0.55,-2.54 a 11.13,11.13 0 0 0 3.31,-1.36 l 1.9,1.14 a 0.55,0.55 0 0 0 0.68,-0.09 L 26.8,22.8 a 0.56,0.56 0 0 0 0.08,-0.68 l -1.12,-1.87 a 11.42,11.42 0 0 0 1.41,-3.36 l 2.37,-0.54 a 0.55,0.55 0 0 0 0.43,-0.54 v -3.3 A 0.56,0.56 0 0 0 29.54,11.97 L 27.19,11.45 A 11.42,11.42 0 0 0 25.82,8 L 26.91,6.17 A 0.56,0.56 0 0 0 26.83,5.49 L 24.47,3.17 A 0.56,0.56 0 0 0 23.79,3.09 L 22,4.18 A 11.42,11.42 0 0 0 18.59,2.78 L 18,0.43 A 0.56,0.56 0 0 0 17.49,0 H 14.15 A 0.55,0.55 0 0 0 13.61,0.43 L 13.07,2.8 A 11.42,11.42 0 0 0 9.71,4.21 L 7.84,3.09 A 0.56,0.56 0 0 0 7.16,3.17 L 4.8,5.53 A 0.56,0.56 0 0 0 4.72,6.21 l 1.14,1.9 A 11.13,11.13 0 0 0 4.5,11.42 L 2,12 a 0.57,0.57 0 0 0 -0.44,0.54 v 3.34 A 0.58,0.58 0 0 0 2,16.4 L 4.52,17 a 11.58,11.58 0 0 0 1.35,3.2 l -5.56,5.56 a 0.44,0.44 0 0 0 0,0.62 l 3.31,3.31 a 0.44,0.44 0 0 0 0.62,0 z M 2,25.62 11.08,16.54 a 0.58,0.58 0 0 0 0.12,-0.62 5,5 0 0 1 4.65,-6.8 4.59,4.59 0 0 1 1,0.1 l -2.15,2.15 a 0.55,0.55 0 0 0 -0.16,0.39 v 3.15 a 0.55,0.55 0 0 0 0.55,0.55 h 3.15 a 0.55,0.55 0 0 0 0.39,-0.16 l 2.15,-2.15 a 5,5 0 0 1 -6.7,5.63 0.58,0.58 0 0 0 -0.62,0.12 L 4.38,28 A 0.44,0.44 0 0 1 3.76,28 L 2,26.24 A 0.44,0.44 0 0 1 2,25.62 Z M 12.64,21.27 14,19.93 a 6.09,6.09 0 0 0 7.57,-8 0.53,0.53 0 0 0 -0.24,-0.29 0.56,0.56 0 0 0 -0.67,0.09 L 18,14.35 H 15.65 V 12 L 18.3,9.34 a 0.56,0.56 0 0 0 0.15,-0.51 0.57,0.57 0 0 0 -0.34,-0.4 6.1,6.1 0 0 0 -8,7.57 l -1.38,1.33 -0.86,0.86 -1.19,1.2 A 10.48,10.48 0 0 1 5.53,16.39 0.55,0.55 0 0 0 5.1,15.97 L 2.64,15.4 V 13 L 5.08,12.47 A 0.54,0.54 0 0 0 5.51,12 10.2,10.2 0 0 1 7,8.42 0.57,0.57 0 0 0 7,7.83 L 5.9,6 7.64,4.26 9.43,5.34 a 0.59,0.59 0 0 0 0.6,0 10.13,10.13 0 0 1 3.63,-1.52 0.55,0.55 0 0 0 0.42,-0.42 L 14.59,1.12 H 17 l 0.51,2.26 a 0.53,0.53 0 0 0 0.43,0.42 10.53,10.53 0 0 1 3.71,1.5 0.55,0.55 0 0 0 0.59,0 L 24,4.26 25.74,6 24.68,7.76 a 0.55,0.55 0 0 0 0,0.59 10.53,10.53 0 0 1 1.53,3.65 0.53,0.53 0 0 0 0.42,0.43 l 2.26,0.51 v 2.45 0 l -2.28,0.51 a 0.53,0.53 0 0 0 -0.42,0.42 10.5,10.5 0 0 1 -1.52,3.68 0.57,0.57 0 0 0 0,0.59 l 1.08,1.8 L 24,24.1 22.17,23 A 0.57,0.57 0 0 0 21.58,23 10.28,10.28 0 0 1 18,24.49 0.54,0.54 0 0 0 17.57,24.92 L 17,27.36 H 14.6 L 14.06,24.9 a 0.54,0.54 0 0 0 -0.43,-0.43 10.53,10.53 0 0 1 -3,-1.15 l 1.2,-1.19 z" />
</svg>
