<?xml version="1.0" encoding="UTF-8" standalone="no"?>
<svg
   xmlns:dc="http://purl.org/dc/elements/1.1/"
   xmlns:cc="http://creativecommons.org/ns#"
   xmlns:rdf="http://www.w3.org/1999/02/22-rdf-syntax-ns#"
   xmlns:svg="http://www.w3.org/2000/svg"
   xmlns="http://www.w3.org/2000/svg"
   xmlns:sodipodi="http://sodipodi.sourceforge.net/DTD/sodipodi-0.dtd"
   xmlns:inkscape="http://www.inkscape.org/namespaces/inkscape"
   height="30"
   width="30"
   xml:space="preserve"
   viewBox="1161.9 146.1 30 30"
   y="0px"
   x="0px"
   inkscape:version="1.0alpha (9dee831, 2019-01-15)"
   sodipodi:docname="icon stop vector.svg"
   id="svg8"
   version="1.1"><metadata
   id="metadata30">
  <rdf:RDF>
    <cc:Work
       rdf:about="">
      <dc:format>image/svg+xml</dc:format>
      <dc:type
         rdf:resource="http://purl.org/dc/dcmitype/StillImage" />
      <dc:title></dc:title>
    </cc:Work>
  </rdf:RDF>
</metadata>
<defs
   id="defs28">
	
	
	
</defs>
<sodipodi:namedview
   inkscape:current-layer="svg8"
   inkscape:window-maximized="0"
   inkscape:window-y="33"
   inkscape:window-x="0"
   inkscape:cy="27.38837"
   inkscape:cx="4.1724838"
   inkscape:zoom="15.568"
   showgrid="false"
   id="namedview26"
   inkscape:window-height="1519"
   inkscape:window-width="1914"
   inkscape:pageshadow="2"
   inkscape:pageopacity="0"
   guidetolerance="10"
   gridtolerance="10"
   objecttolerance="10"
   borderopacity="1"
   inkscape:document-rotation="0"
   bordercolor="#666666"
   pagecolor="#ffffff" />

<style
   id="style2"
   type="text/css">
	.st0{fill:#DC0000;}
	.st1{fill:#FFFFFF;}
</style>

<g
   transform="matrix(0.06258404,0,0,0.06258404,1088.6742,136.46247)"
   id="use13"
   style="opacity:1;stop-opacity:1">
		<path
   inkscape:connector-curvature="0"
   class="st0"
   d="m 1509.9,159.6 138.5,138.5 V 494 L 1509.9,632.5 H 1314 L 1175.5,494 V 298.1 L 1314,159.6 Z"
   id="path4" />

	</g>
<g
   id="layer1"
   transform="matrix(0.06258404,0,0,0.06258404,1087.4225,157.05263)"
   inkscape:label="Layer 1"
   inkscape:groupmode="layer"
   style="opacity:1;stop-opacity:1">
		<g
   id="path872">
			<path
   inkscape:connector-curvature="0"
   sodipodi:nodetypes="ccccccccc"
   class="st1"
   d="m 1412.6,18.8 h -19.3 v 116 H 1374 v -116 h -19.3 V -0.6 h 58 v 19.4 z"
   id="path7" />

		</g>

		<g
   id="rect903">
			<path
   inkscape:connector-curvature="0"
   class="st1"
   d="m 1460.9,-0.6 c -16.1,0 -29,12.9 -29,29 v 77.3 c 0,16.1 12.9,29 29,29 h 19.3 c 16.1,0 29,-12.9 29,-29 V 28.4 c 0,-16.1 -12.9,-29 -29,-29 z m 0,19.4 h 19.3 c 5.4,0 9.7,4.3 9.7,9.7 v 77.3 c 0,5.4 -4.3,9.7 -9.7,9.7 h -19.3 c -5.4,0 -9.7,-4.3 -9.7,-9.7 V 28.4 c 0,-5.3 4.3,-9.6 9.7,-9.6 z"
   id="path10" />

		</g>

		<g
   id="rect824">
			<path
   inkscape:connector-curvature="0"
   sodipodi:nodetypes="cccssssccccsssscc"
   class="st1"
   d="m 1528.6,134.8 h 19.3 V 86.4 h 19.3 c 16.1,0 29,-12.9 29,-29 v -29 c 0,-16.1 -12.9,-29 -29,-29 h -19.3 -19.3 z m 19.3,-116 h 19.3 c 5.4,0 9.7,4.3 9.7,9.7 v 29 c 0,5.4 -4.3,9.7 -9.7,9.7 h -19.3 z"
   id="path13" />

		</g>

		<g
   id="rect860">
			<path
   inkscape:connector-curvature="0"
   sodipodi:nodetypes="ssccccssssccssssccccssssccsss"
   class="st1"
   d="m 1296.6,-0.6 c -16.1,0 -29,12.9 -29,29 v 5.2 c 0,8.8 4,17.2 10.9,22.7 l 33.7,26.8 c 2.3,1.8 3.6,4.6 3.6,7.6 v 15.1 c 0.3,5.3 -4.3,9.7 -9.7,9.7 h -9.7 c -5.4,0 -9.7,-4.3 -9.7,-9.7 v -9.7 h -19.3 v 9.7 c 0,16.1 12.9,29 29,29 h 9.7 c 16.1,0 29,-12.9 29,-29 V 90.7 c 0,-8.8 -4,-17.2 -10.9,-22.7 l -33.7,-26.8 c -2.3,-1.8 -3.6,-4.6 -3.6,-7.6 v -5.2 c 0,-5.4 4.3,-9.7 9.7,-9.7 h 9.7 c 5.4,0 9.7,4.3 9.7,9.7 v 9.7 h 19.3 v -9.7 c 0,-16.1 -12.9,-29 -29,-29 z"
   id="path16" />

		</g>

	</g>
<g
   transform="matrix(0.06258404,0,0,0.06258404,1088.6742,136.46247)"
   id="use13_1_"
   style="opacity:1;stop-opacity:1;stroke-width:15.97851465;stroke-miterlimit:4;stroke-dasharray:none">
		<path
   sodipodi:nodetypes="ccccccccc"
   class="st1"
   d="M 1499.7178,608.05767 H 1324.0822 L 1199.9423,483.91781 V 308.28219 l 124.1399,-124.13986 h 175.6356 l 124.1399,124.13986 v 175.63562 z"
   id="path20"
   inkscape:connector-curvature="0"
   style="fill:none;stroke:#ffffff;stroke-width:11.365;stroke-miterlimit:4;stroke-dasharray:none" />

	</g>

</svg>
