<?xml version="1.0" encoding="UTF-8" standalone="no"?>
<!-- Svg Vector Icons : http://www.onlinewebfonts.com/icon -->

<svg
   xmlns:dc="http://purl.org/dc/elements/1.1/"
   xmlns:cc="http://creativecommons.org/ns#"
   xmlns:rdf="http://www.w3.org/1999/02/22-rdf-syntax-ns#"
   xmlns:svg="http://www.w3.org/2000/svg"
   xmlns="http://www.w3.org/2000/svg"
   xmlns:sodipodi="http://sodipodi.sourceforge.net/DTD/sodipodi-0.dtd"
   xmlns:inkscape="http://www.inkscape.org/namespaces/inkscape"
   version="1.1"
   x="0px"
   y="0px"
   viewBox="0 0 30 30"
   enable-background="new 0 0 1000 1000"
   xml:space="preserve"
   id="svg16"
   sodipodi:docname="webcam_icon.svg"
   width="30"
   height="30"
   inkscape:version="0.92.4 (f8dce91, 2019-08-02)"><defs
   id="defs20" /><sodipodi:namedview
   pagecolor="#ffffff"
   bordercolor="#666666"
   borderopacity="1"
   objecttolerance="10"
   gridtolerance="10"
   guidetolerance="10"
   inkscape:pageopacity="0"
   inkscape:pageshadow="2"
   inkscape:window-width="1920"
   inkscape:window-height="1021"
   id="namedview18"
   showgrid="false"
   inkscape:snap-page="true"
   inkscape:snap-global="false"
   inkscape:zoom="6.547634"
   inkscape:cx="68.380189"
   inkscape:cy="16.873034"
   inkscape:window-x="0"
   inkscape:window-y="35"
   inkscape:window-maximized="1"
   inkscape:current-layer="svg16" />
<metadata
   id="metadata2"> Svg Vector Icons : http://www.onlinewebfonts.com/icon <rdf:RDF><cc:Work
     rdf:about=""><dc:format>image/svg+xml</dc:format><dc:type
       rdf:resource="http://purl.org/dc/dcmitype/StillImage" /><dc:title></dc:title></cc:Work></rdf:RDF></metadata>
<g
   id="g14"
   transform="matrix(0.03030576,0,0,0.03030576,-0.3456254,-0.34229989)"><g
     transform="matrix(0.1,0,0,-0.1,0,511)"
     id="g12"><path
       d="M 4525.1,4996.2 C 2732.8,4771.1 1317.2,3453.6 965,1683.6 895.9,1338.1 878.1,711.7 929.3,359.5 c 138.2,-943 559.5,-1765.6 1237.2,-2414.2 l 182.8,-173.9 -436.9,-998.7 c -240.8,-550.6 -443.6,-1041 -450.3,-1090.1 -22.3,-173.9 82.5,-354.5 249.7,-430.2 84.7,-40.1 231.8,-42.4 3288.1,-42.4 3062.9,0 3203.4,2.2 3288.1,42.4 149.4,69.1 256.4,227.4 256.4,376.7 0,95.9 -24.5,158.3 -479.3,1194.9 l -414.6,947.4 193.9,185 c 606.3,581.8 1023.2,1350.9 1190.4,2191.3 62.4,312.1 84.7,916.2 46.8,1230.5 -151.6,1217.1 -798,2278.2 -1803.4,2949.2 -481.5,321 -994.2,526.1 -1598.3,639.8 -209.6,37.9 -934.1,58 -1154.8,29 z m 1110.1,-490.4 c 501.6,-84.7 1056.7,-318.8 1482.4,-619.7 269.7,-191.7 659.8,-581.8 851.6,-851.6 C 8461.8,2341.2 8713.7,1438.4 8638,633.6 8588.9,118.7 8495.3,-226.9 8290.2,-654.9 7773,-1731.5 6810,-2464.9 5612.9,-2687.9 c -278.7,-51.3 -949.6,-51.3 -1230.5,0 -967.5,180.6 -1805.7,711.1 -2367.4,1500.2 -158.3,225.2 -394.6,691.1 -481.5,954.1 -303.2,918.5 -225.2,1935 214,2797.7 182.8,356.7 387.9,637.6 677.7,927.4 383.4,381.2 800.3,653.2 1295.2,838.2 608.5,229.6 1252.7,289.8 1914.8,176.1 z M 3205.4,-2772.6 c 334.4,-165 659.8,-276.4 1018.7,-350 220.7,-44.6 316.5,-51.3 775.8,-51.3 590.7,0 813.7,31.2 1266.2,180.6 234.1,75.8 662.1,272 891.7,410.2 l 115.9,71.3 49,-109.2 c 26.8,-57.9 205.1,-468.1 399,-909.5 l 350,-802.5 -1535.9,-6.7 c -844.9,-2.3 -2227,-2.3 -3071.9,0 l -1535.9,6.7 350,802.5 c 193.9,441.4 372.3,851.6 399,911.7 l 49.1,107 93.6,-58 c 53.5,-33.4 227.4,-124.7 385.7,-202.8 z"
       id="path4"
       inkscape:connector-curvature="0" /><path
       d="m 4420.3,3770.2 v -222.9 h 579.6 579.6 v 222.9 222.9 h -579.6 -579.6 z"
       id="path6"
       inkscape:connector-curvature="0" /><path
       d="m 4699,3063.5 c -180.6,-26.7 -441.4,-107 -604.1,-185 C 3615.6,2655.6 3261.2,2301.1 3033.8,1817.4 2884.4,1496.4 2851,1338.1 2851,916.8 c -2.2,-401.3 24.5,-543.9 165,-873.9 202.9,-477.1 646.5,-916.2 1134.7,-1121.3 312.1,-131.5 443.6,-156 849.3,-156 289.8,0 401.3,8.9 523.9,42.3 762.3,205.1 1330.7,758 1562.5,1518.1 55.7,185 62.4,229.6 62.4,579.6 0,321 -6.7,405.7 -49,552.8 -176.1,633.1 -606.4,1145.8 -1194.9,1420 -278.6,131.5 -510.5,182.8 -849.3,189.5 -158.2,4.5 -318.7,2.3 -356.6,-4.4 z m 737.8,-497.1 c 570.7,-147.1 1049.9,-621.9 1210.4,-1199.3 254.1,-916.2 -292,-1856.9 -1226.1,-2113.3 -100.3,-29 -222.9,-40.1 -421.3,-40.1 -399,0 -682.1,89.2 -992,307.6 -390.1,278.7 -639.8,702.2 -706.7,1194.9 -78,586.3 202.9,1230.5 684.4,1571.6 443.7,316.5 936.4,410.1 1451.3,278.6 z"
       id="path8"
       inkscape:connector-curvature="0" /><path
       d="M 4701.2,2129.5 C 4478.3,2076 4291,1969 4119.4,1797.4 3871.9,1549.9 3751.6,1260.2 3751.6,910.2 c 0,-347.8 115.9,-622 367.8,-873.9 256.4,-256.4 521.6,-367.8 880.5,-367.8 358.9,0 624.2,111.5 882.8,367.8 245.2,245.2 365.6,526.1 365.6,869.4 0,354.4 -118.1,642 -367.8,891.7 -312.2,312 -749.1,436.8 -1179.3,332.1 z m 590.7,-477.1 c 66.9,-24.5 171.6,-86.9 231.8,-142.7 439.2,-381.2 329.9,-1072.2 -207.3,-1324.1 -107,-51.3 -158.3,-60.2 -316.5,-60.2 -160.5,0 -209.5,8.9 -327.7,64.6 -169.4,78 -321,231.8 -403.5,410.2 -80.3,173.9 -82.5,423.5 -4.5,617.5 55.7,142.7 222.9,332.1 352.2,399 209.6,107 450.4,120.4 675.5,35.7 z"
       id="path10"
       inkscape:connector-curvature="0" /></g></g>
</svg>