<?xml version="1.0" encoding="UTF-8" standalone="no"?>
<svg
   xmlns:dc="http://purl.org/dc/elements/1.1/"
   xmlns:cc="http://creativecommons.org/ns#"
   xmlns:rdf="http://www.w3.org/1999/02/22-rdf-syntax-ns#"
   xmlns:svg="http://www.w3.org/2000/svg"
   xmlns="http://www.w3.org/2000/svg"
   xmlns:sodipodi="http://sodipodi.sourceforge.net/DTD/sodipodi-0.dtd"
   xmlns:inkscape="http://www.inkscape.org/namespaces/inkscape"
   width="508.93811mm"
   height="40.625622mm"
   viewBox="0 0 508.93811 40.625622"
   version="1.1"
   id="svg8"
   inkscape:version="1.0.2 (e86c870, 2021-01-15)"
   sodipodi:docname="PVJ_2019.svg">
  <defs
     id="defs2" />
  <sodipodi:namedview
     id="base"
     pagecolor="#ffffff"
     bordercolor="#666666"
     borderopacity="1.0"
     inkscape:pageopacity="0.0"
     inkscape:pageshadow="2"
     inkscape:zoom="0.17293144"
     inkscape:cx="-533.0347"
     inkscape:cy="313.75663"
     inkscape:document-units="mm"
     inkscape:current-layer="layer1"
     inkscape:document-rotation="0"
     showgrid="false"
     inkscape:snap-bbox="true"
     inkscape:bbox-paths="true"
     inkscape:bbox-nodes="true"
     inkscape:snap-bbox-edge-midpoints="true"
     inkscape:snap-bbox-midpoints="true"
     inkscape:snap-page="true"
     inkscape:snap-global="false"
     inkscape:window-width="1920"
     inkscape:window-height="1007"
     inkscape:window-x="0"
     inkscape:window-y="49"
     inkscape:window-maximized="1" />
  <metadata
     id="metadata5">
    <rdf:RDF>
      <cc:Work
         rdf:about="">
        <dc:format>image/svg+xml</dc:format>
        <dc:type
           rdf:resource="http://purl.org/dc/dcmitype/StillImage" />
        <dc:title></dc:title>
      </cc:Work>
    </rdf:RDF>
  </metadata>
  <g
     inkscape:label="Layer 1"
     inkscape:groupmode="layer"
     id="layer1"
     transform="translate(0.46906099,0.46906099)">
    <rect
       style="fill:#ffffff;stroke:#ffffff;stroke-width:0.938122;stop-color:#000000"
       id="rect961"
       width="508"
       height="39.6875"
       x="0"
       y="-5.8749299e-17" />
    <g
       transform="matrix(1.7857893,0,0,1.7857893,-31.736524,83.920136)"
       id="g912">
      <g
         stroke-width="0.23524"
         aria-label="The pocket sized multimedia player"
         id="g892">
        <path
           d="m 21.739,-31.437 h 2.71 v 0.30488 h -1.2007 v 2.4052 h -0.30488 v -2.4052 h -1.2045 z"
           id="path832" />
        <path
           d="m 26.731,-30.911 q 0.1882,0 0.31993,0.1355 0.1355,0.13174 0.1355,0.31993 v 1.7276 h -0.30864 v -1.7276 q 0,-0.06022 -0.04517,-0.10163 -0.0414,-0.04517 -0.10163,-0.04517 h -1.3098 q -0.06022,0 -0.10539,0.04517 -0.04517,0.0414 -0.04517,0.10163 v 1.7276 h -0.30864 v -2.8982 h 0.30864 v 0.71515 z"
           id="path834" />
        <path
           d="m 29.466,-30.911 q 0.19196,0 0.3237,0.1355 0.1355,0.13174 0.1355,0.31993 v 0.79042 h -1.9158 v 0.48178 q 0,0.06022 0.0414,0.10539 0.04517,0.0414 0.10539,0.0414 h 1.769 v 0.30864 h -1.769 q -0.1882,0 -0.3237,-0.13174 -0.13174,-0.1355 -0.13174,-0.3237 v -1.2722 q 0,-0.1882 0.13174,-0.31993 0.1355,-0.1355 0.3237,-0.1355 z m -1.4566,0.93722 h 1.6034 v -0.48178 q 0,-0.06022 -0.04517,-0.10163 -0.0414,-0.04517 -0.10163,-0.04517 h -1.3098 q -0.06022,0 -0.10539,0.04517 -0.0414,0.0414 -0.0414,0.10163 z"
           id="path836" />
        <path
           d="m 33.575,-30.911 q 0.1882,0 0.31993,0.1355 0.1355,0.13174 0.1355,0.31993 v 1.2722 q 0,0.1882 -0.1355,0.3237 -0.13174,0.13174 -0.31993,0.13174 h -1.4604 v 0.8657 h -0.30864 v -3.0488 z m 0.14679,1.7276 v -1.2722 q 0,-0.06022 -0.04517,-0.10163 -0.0414,-0.04517 -0.10163,-0.04517 h -1.3098 q -0.06022,0 -0.10539,0.04517 -0.04517,0.0414 -0.04517,0.10163 v 1.2722 q 0,0.06022 0.04517,0.10539 0.04517,0.0414 0.10539,0.0414 h 1.3098 q 0.06022,0 0.10163,-0.0414 0.04517,-0.04517 0.04517,-0.10539 z"
           id="path838" />
        <path
           d="m 34.985,-30.911 h 1.3098 q 0.19196,0 0.3237,0.1355 0.1355,0.13174 0.1355,0.31993 v 1.2722 q 0,0.1882 -0.1355,0.3237 -0.13174,0.13174 -0.3237,0.13174 H 34.985 q -0.1882,0 -0.3237,-0.13174 -0.13174,-0.1355 -0.13174,-0.3237 v -1.2722 q 0,-0.1882 0.13174,-0.31993 0.1355,-0.1355 0.3237,-0.1355 z m 1.3098,0.30864 H 34.985 q -0.06022,0 -0.10539,0.04517 -0.0414,0.0414 -0.0414,0.10163 v 1.2722 q 0,0.06022 0.0414,0.10539 0.04517,0.0414 0.10539,0.0414 h 1.3098 q 0.06022,0 0.10163,-0.0414 0.04517,-0.04517 0.04517,-0.10539 v -1.2722 q 0,-0.06022 -0.04517,-0.10163 -0.0414,-0.04517 -0.10163,-0.04517 z"
           id="path840" />
        <path
           d="m 37.823,-29.036 h 1.769 v 0.30864 h -1.769 q -0.1882,0 -0.3237,-0.13174 -0.13174,-0.1355 -0.13174,-0.3237 v -1.2722 q 0,-0.1882 0.13174,-0.31993 0.1355,-0.1355 0.3237,-0.1355 h 1.7615 v 0.30864 H 37.823 q -0.06022,0 -0.10539,0.04517 -0.0414,0.0414 -0.0414,0.10163 v 1.2722 q 0,0.06022 0.0414,0.10539 0.04517,0.0414 0.10539,0.0414 z"
           id="path842" />
        <path
           d="m 41.927,-30.911 h 0.4065 l -0.98991,1.0915 0.98615,1.0915 H 41.927 l -0.85818,-0.93722 h -0.60223 v 0.93722 h -0.30864 v -2.8982 h 0.30864 v 1.6524 h 0.60223 z"
           id="path844" />
        <path
           d="m 44.558,-30.911 q 0.19196,0 0.3237,0.1355 0.1355,0.13174 0.1355,0.31993 v 0.79042 h -1.9158 v 0.48178 q 0,0.06022 0.0414,0.10539 0.04517,0.0414 0.10539,0.0414 h 1.769 v 0.30864 h -1.769 q -0.1882,0 -0.3237,-0.13174 -0.13174,-0.1355 -0.13174,-0.3237 v -1.2722 q 0,-0.1882 0.13174,-0.31993 0.1355,-0.1355 0.3237,-0.1355 z m -1.4566,0.93722 h 1.6034 v -0.48178 q 0,-0.06022 -0.04517,-0.10163 -0.0414,-0.04517 -0.10163,-0.04517 h -1.3098 q -0.06022,0 -0.10539,0.04517 -0.0414,0.0414 -0.0414,0.10163 z"
           id="path846" />
        <path
           d="m 46.891,-30.602 h -0.94474 v 1.419 q 0,0.06022 0.0414,0.10539 0.04517,0.0414 0.10539,0.0414 H 46.891 v 0.30864 h -0.79795 q -0.19196,0 -0.3237,-0.13174 -0.13174,-0.1355 -0.13174,-0.3237 v -2.4428 h 0.30864 v 0.71515 h 0.94474 z"
           id="path848" />
        <path
           d="m 50.88,-30.455 v 0.03011 H 50.56759 V -30.455 q 0,-0.06022 -0.04517,-0.10163 -0.0414,-0.04517 -0.10163,-0.04517 h -1.3098 q -0.06022,0 -0.10539,0.04517 -0.0414,0.0414 -0.0414,0.10163 v 0.33499 q 0,0.06022 0.0414,0.10539 0.04517,0.0414 0.10539,0.0414 h 1.3098 q 0.19196,0 0.3237,0.1355 0.1355,0.13174 0.1355,0.31993 v 0.33499 q 0,0.1882 -0.1355,0.3237 -0.13174,0.13174 -0.3237,0.13174 h -1.3098 q -0.1882,0 -0.3237,-0.13174 -0.13174,-0.1355 -0.13174,-0.3237 v -0.03011 h 0.30864 v 0.03011 q 0,0.06022 0.0414,0.10539 0.04517,0.0414 0.10539,0.0414 h 1.3098 q 0.06022,0 0.10163,-0.0414 0.04517,-0.04517 0.04517,-0.10539 v -0.33499 q 0,-0.06022 -0.04517,-0.10163 -0.0414,-0.04517 -0.10163,-0.04517 h -1.3098 q -0.1882,0 -0.3237,-0.13174 -0.13174,-0.1355 -0.13174,-0.3237 v -0.33499 q 0,-0.1882 0.13174,-0.31993 0.1355,-0.1355 0.3237,-0.1355 h 1.3098 q 0.19196,0 0.3237,0.1355 0.1355,0.13174 0.1355,0.31993 z"
           id="path850" />
        <path
           d="m 51.486,-28.727 v -2.1831 h 0.30864 v 2.1831 z m 0,-2.8982 h 0.30864 v 0.30864 H 51.486 Z"
           id="path852" />
        <path
           d="m 52.515,-30.602 v -0.30864 h 2.2245 v 0.42156 l -1.8857,1.4529 h 1.8857 v 0.30864 H 52.515 v -0.42156 l 1.8857,-1.4529 z"
           id="path854" />
        <path
           d="m 57.033,-30.911 q 0.19196,0 0.3237,0.1355 0.1355,0.13174 0.1355,0.31993 v 0.79042 h -1.9158 v 0.48178 q 0,0.06022 0.0414,0.10539 0.04517,0.0414 0.10539,0.0414 h 1.769 v 0.30864 h -1.769 q -0.1882,0 -0.3237,-0.13174 -0.13174,-0.1355 -0.13174,-0.3237 v -1.2722 q 0,-0.1882 0.13174,-0.31993 0.1355,-0.1355 0.3237,-0.1355 z m -1.4566,0.93722 h 1.6034 v -0.48178 q 0,-0.06022 -0.04517,-0.10163 -0.0414,-0.04517 -0.10163,-0.04517 h -1.3098 q -0.06022,0 -0.10539,0.04517 -0.0414,0.0414 -0.0414,0.10163 z"
           id="path856" />
        <path
           d="m 59.916,-31.626 h 0.30864 v 2.8982 h -1.7653 q -0.19196,0 -0.32746,-0.13174 -0.13174,-0.1355 -0.13174,-0.3237 v -1.2722 q 0,-0.1882 0.13174,-0.31993 0.1355,-0.1355 0.32746,-0.1355 h 1.4566 z m -1.4566,2.5896 h 1.3098 q 0.06022,0 0.10163,-0.0414 0.04517,-0.04517 0.04517,-0.10539 v -1.2722 q 0,-0.06022 -0.04517,-0.10163 -0.0414,-0.04517 -0.10163,-0.04517 h -1.3098 q -0.06022,0 -0.10539,0.04517 -0.0414,0.0414 -0.0414,0.10163 v 1.2722 q 0,0.06022 0.0414,0.10539 0.04517,0.0414 0.10539,0.0414 z"
           id="path858" />
        <path
           d="m 65.007,-30.911 q 0.19196,0 0.3237,0.1355 0.13174,0.13174 0.13174,0.31993 v 1.7276 h -0.30488 v -1.7276 q 0,-0.06022 -0.04517,-0.10163 -0.04517,-0.04517 -0.10539,-0.04517 h -0.90711 q -0.06022,0 -0.10539,0.04517 -0.0414,0.0414 -0.0414,0.10163 v 1.7276 h -0.31241 v -1.7276 q 0,-0.06022 -0.04517,-0.10163 -0.0414,-0.04517 -0.10163,-0.04517 h -0.91087 q -0.06022,0 -0.10539,0.04517 -0.0414,0.0414 -0.0414,0.10163 v 1.7276 h -0.31241 v -2.1831 z"
           id="path860" />
        <path
           d="m 67.954,-30.911 h 0.30864 v 1.7276 q 0,0.1882 -0.1355,0.3237 -0.13174,0.13174 -0.3237,0.13174 h -1.3098 q -0.1882,0 -0.3237,-0.13174 -0.13174,-0.1355 -0.13174,-0.3237 v -1.7276 h 0.30864 v 1.7276 q 0,0.06022 0.0414,0.10539 0.04517,0.0414 0.10539,0.0414 h 1.3098 q 0.06022,0 0.10539,-0.0414 0.04517,-0.04517 0.04517,-0.10539 z"
           id="path862" />
        <path
           d="m 68.887,-31.626 h 0.30864 v 2.4428 q 0,0.06022 0.0414,0.10539 0.04517,0.0414 0.10539,0.0414 h 0.36886 v 0.30864 h -0.36886 q -0.1882,0 -0.3237,-0.13174 -0.13174,-0.1355 -0.13174,-0.3237 z"
           id="path864" />
        <path
           d="m 71.519,-30.602 h -0.94475 v 1.419 q 0,0.06022 0.0414,0.10539 0.04517,0.0414 0.10539,0.0414 h 0.79795 v 0.30864 h -0.79795 q -0.19196,0 -0.3237,-0.13174 -0.13174,-0.1355 -0.13174,-0.3237 v -2.4428 h 0.30864 v 0.71515 h 0.94475 z"
           id="path866" />
        <path
           d="m 72.063,-28.727 v -2.1831 h 0.30864 v 2.1831 z m 0,-2.8982 h 0.30864 v 0.30864 H 72.063 Z"
           id="path868" />
        <path
           d="m 75.975,-30.911 q 0.19196,0 0.3237,0.1355 0.13174,0.13174 0.13174,0.31993 v 1.7276 h -0.30488 v -1.7276 q 0,-0.06022 -0.04517,-0.10163 -0.04517,-0.04517 -0.10539,-0.04517 h -0.90711 q -0.06022,0 -0.10539,0.04517 -0.0414,0.0414 -0.0414,0.10163 v 1.7276 h -0.31241 v -1.7276 q 0,-0.06022 -0.04517,-0.10163 -0.0414,-0.04517 -0.10163,-0.04517 h -0.91087 q -0.06022,0 -0.10539,0.04517 -0.0414,0.0414 -0.0414,0.10163 v 1.7276 h -0.31241 v -2.1831 z"
           id="path870" />
        <path
           d="m 78.764,-30.911 q 0.19196,0 0.3237,0.1355 0.1355,0.13174 0.1355,0.31993 v 0.79042 h -1.9158 v 0.48178 q 0,0.06022 0.0414,0.10539 0.04517,0.0414 0.10539,0.0414 h 1.769 v 0.30864 h -1.769 q -0.1882,0 -0.3237,-0.13174 -0.13174,-0.1355 -0.13174,-0.3237 v -1.2722 q 0,-0.1882 0.13174,-0.31993 0.1355,-0.1355 0.3237,-0.1355 z m -1.4566,0.93722 h 1.6034 v -0.48178 q 0,-0.06022 -0.04517,-0.10163 -0.0414,-0.04517 -0.10163,-0.04517 h -1.3098 q -0.06022,0 -0.10539,0.04517 -0.0414,0.0414 -0.0414,0.10163 z"
           id="path872" />
        <path
           d="m 81.647,-31.626 h 0.30864 v 2.8982 h -1.7653 q -0.19196,0 -0.32746,-0.13174 -0.13174,-0.1355 -0.13174,-0.3237 v -1.2722 q 0,-0.1882 0.13174,-0.31993 0.1355,-0.1355 0.32746,-0.1355 h 1.4566 z m -1.4566,2.5896 h 1.3098 q 0.06022,0 0.10163,-0.0414 0.04517,-0.04517 0.04517,-0.10539 v -1.2722 q 0,-0.06022 -0.04517,-0.10163 -0.0414,-0.04517 -0.10163,-0.04517 h -1.3098 q -0.06022,0 -0.10539,0.04517 -0.0414,0.0414 -0.0414,0.10163 v 1.2722 q 0,0.06022 0.0414,0.10539 0.04517,0.0414 0.10539,0.0414 z"
           id="path874" />
        <path
           d="m 82.59,-28.727 v -2.1831 h 0.30864 v 2.1831 z m 0,-2.8982 h 0.30864 v 0.30864 H 82.59 Z"
           id="path876" />
        <path
           d="m 85.245,-30.911 q 0.19196,0 0.3237,0.1355 0.1355,0.13174 0.1355,0.31993 v 1.7276 h -1.769 q -0.1882,0 -0.3237,-0.13174 -0.13174,-0.1355 -0.13174,-0.3237 v -0.79042 h 1.9121 v -0.48178 q 0,-0.06022 -0.04517,-0.10163 -0.0414,-0.04517 -0.10163,-0.04517 h -1.7653 v -0.30864 z m 0.14679,1.8744 v -0.62858 h -1.6034 v 0.48178 q 0,0.06022 0.0414,0.10539 0.04517,0.0414 0.10539,0.0414 z"
           id="path878" />
        <path
           d="m 89.358,-30.911 q 0.1882,0 0.31993,0.1355 0.1355,0.13174 0.1355,0.31993 v 1.2722 q 0,0.1882 -0.1355,0.3237 -0.13174,0.13174 -0.31993,0.13174 h -1.4604 v 0.8657 h -0.30864 v -3.0488 z m 0.14679,1.7276 v -1.2722 q 0,-0.06022 -0.04517,-0.10163 -0.0414,-0.04517 -0.10163,-0.04517 h -1.3098 q -0.06022,0 -0.10539,0.04517 -0.04517,0.0414 -0.04517,0.10163 v 1.2722 q 0,0.06022 0.04517,0.10539 0.04517,0.0414 0.10539,0.0414 h 1.3098 q 0.06022,0 0.10163,-0.0414 0.04517,-0.04517 0.04517,-0.10539 z"
           id="path880" />
        <path
           d="m 90.316,-31.626 h 0.30864 v 2.4428 q 0,0.06022 0.0414,0.10539 0.04517,0.0414 0.10539,0.0414 h 0.36886 v 0.30864 h -0.36886 q -0.1882,0 -0.3237,-0.13174 -0.13174,-0.1355 -0.13174,-0.3237 z"
           id="path882" />
        <path
           d="m 93.419,-30.911 q 0.19196,0 0.3237,0.1355 0.1355,0.13174 0.1355,0.31993 v 1.7276 h -1.769 q -0.1882,0 -0.3237,-0.13174 -0.13174,-0.1355 -0.13174,-0.3237 v -0.79042 h 1.9121 v -0.48178 q 0,-0.06022 -0.04517,-0.10163 -0.0414,-0.04517 -0.10163,-0.04517 h -1.7653 v -0.30864 z m 0.14679,1.8744 v -0.62858 h -1.6034 v 0.48178 q 0,0.06022 0.0414,0.10539 0.04517,0.0414 0.10539,0.0414 z"
           id="path884" />
        <path
           d="m 96.682,-28.321 q 0,0.19196 -0.13174,0.3237 -0.13174,0.1355 -0.3237,0.1355 h -1.3625 v -0.31241 h 1.3625 q 0.06022,0 0.10163,-0.04517 0.04517,-0.0414 0.04517,-0.10163 v -0.4065 h -1.4566 q -0.1882,0 -0.3237,-0.13174 -0.13174,-0.1355 -0.13174,-0.3237 v -1.7201 h 0.30864 v 1.7201 q 0,0.06022 0.0414,0.10539 0.04517,0.0414 0.10539,0.0414 h 1.3098 q 0.06022,0 0.10163,-0.0414 0.04517,-0.04517 0.04517,-0.10539 v -1.7201 h 0.30864 z"
           id="path886" />
        <path
           d="m 99.003,-30.911 q 0.19196,0 0.3237,0.1355 0.1355,0.13174 0.1355,0.31993 v 0.79042 h -1.9158 v 0.48178 q 0,0.06022 0.0414,0.10539 0.04517,0.0414 0.10539,0.0414 h 1.769 v 0.30864 h -1.769 q -0.1882,0 -0.3237,-0.13174 -0.13174,-0.1355 -0.13174,-0.3237 v -1.2722 q 0,-0.1882 0.13174,-0.31993 0.1355,-0.1355 0.3237,-0.1355 z m -1.4566,0.93722 h 1.6034 v -0.48178 q 0,-0.06022 -0.04517,-0.10163 -0.0414,-0.04517 -0.10163,-0.04517 h -1.3098 q -0.06022,0 -0.10539,0.04517 -0.0414,0.0414 -0.0414,0.10163 z"
           id="path888" />
        <path
           d="m 100.51,-30.911 h 1.227 v 0.30864 h -1.227 q -0.0602,0 -0.10539,0.04517 -0.0414,0.0414 -0.0414,0.10163 v 1.7276 h -0.30865 v -1.7276 q 0,-0.1882 0.13174,-0.31993 0.1355,-0.1355 0.3237,-0.1355 z"
           id="path890" />
      </g>
      <g
         id="g910">
        <path
           d="m 31.597,-39.637 c 0,-0.33428 -0.2816,-0.61588 -0.61619,-0.61588 h -5.5447 v 1.8483 h 5.5447 c 0.33459,0 0.61619,-0.27294 0.61619,-0.61619 z m 1.2324,0 v 0.61627 c 0,1.0209 -0.83636,1.8483 -1.8486,1.8483 h -5.5447 v 1.8483 H 24.204 v -6.1608 h 6.7767 c 1.0122,0 1.8486,0.82708 1.8486,1.848"
           id="path894" />
        <path
           d="m 35.558,-36.565 h 4.92 c 0.352,0 0.62486,-0.27316 0.62486,-0.60753 v -2.4645 c 0,-0.33428 -0.27286,-0.61588 -0.62486,-0.61588 h -4.92 c -0.34333,0 -0.61627,0.2816 -0.61627,0.61588 v 2.4645 c 0,0.33436 0.27294,0.60753 0.61627,0.60753 z m 4.92,1.2408 h -4.92 c -1.021,0 -1.8483,-0.83613 -1.8483,-1.8483 v -2.4645 c 0,-1.0209 0.8274,-1.848 1.8483,-1.848 h 4.92 c 1.0296,0 1.848,0.82708 1.848,1.848 v 2.4645 c 0,1.0122 -0.81834,1.8483 -1.848,1.8483"
           id="path896" />
        <path
           d="m 44.438,-39.637 v 2.4645 c 0,0.33436 0.2819,0.60753 0.61619,0.60753 h 6.7774 v 1.2408 h -6.7774 c -1.0209,0 -1.848,-0.83613 -1.848,-1.8483 v -2.4645 c 0,-1.0209 0.82708,-1.848 1.848,-1.848 h 6.7774 v 1.2321 h -6.7774 c -0.33428,0 -0.61619,0.2816 -0.61619,0.61588"
           id="path898" />
        <path
           d="m 61.469,-35.324 h -2.0595 l -3.371,-2.526 -2.1036,1.4786 v 1.0473 h -1.2234 v -6.1608 h 1.2234 v 3.6085 l 5.1489,-3.6085 h 2.1385 l -4.128,2.8956 4.3745,3.2652"
           id="path900" />
        <path
           d="m 64.206,-41.485 h 6.777 v 1.2321 h -6.777 c -0.34303,0 -0.6162,0.2816 -0.6162,0.61588 v 0.61627 h 7.3932 v 1.2321 h -7.3932 v 0.61619 c 0,0.33436 0.27317,0.60753 0.6162,0.60753 h 6.777 v 1.2408 h -6.777 c -1.021,0 -1.857,-0.83613 -1.857,-1.8483 v -2.4645 c 0,-1.0209 0.83606,-1.848 1.857,-1.848"
           id="path902" />
        <path
           d="m 75.561,-35.324 v -4.9288 h -3.6966 v -1.2321 h 8.6254 v 1.2321 h -3.6963 v 4.9288 H 75.561"
           id="path904" />
        <path
           d="m 87.578,-35.922 -3.3444,-5.5623 h 1.4434 l 2.9576,4.92 h 0.52785 l 2.9573,-4.92 h 1.4346 l -3.3356,5.5623 c -0.2115,0.35232 -0.60752,0.59856 -1.0562,0.59856 H 88.6347 c -0.44932,0 -0.84534,-0.24624 -1.0565,-0.59856"
           id="path906" />
        <path
           d="M 99.891,-43.949 H 23.588 c -1.0123,0 -1.8484,0.83606 -1.8484,1.8483 v 7.3932 c 0,1.0122 0.83606,1.848 1.8484,1.848 h 78.152 v -1.2322 H 23.588 c -0.33435,0 -0.61597,-0.28159 -0.61597,-0.61587 v -7.3932 c 0,-0.33436 0.28162,-0.61627 0.61597,-0.61627 h 76.303 v 0.0087 c 0.33436,0 0.61658,0.27316 0.61658,0.60753 v 4.9287 c 0,0.33436 -0.28222,0.60753 -0.61658,0.60753 h -4.9286 c -0.33459,0 -0.60714,-0.27316 -0.60714,-0.60753 v -1.8483 h -1.2411 v 1.8483 c 0,1.0122 0.83606,1.8483 1.8483,1.8483 h 4.9286 c 1.0299,0 1.8482,-0.83613 1.8482,-1.8483 v -4.9287 c 0,-1.0123 -0.81826,-1.8483 -1.8482,-1.8483"
           id="path908" />
      </g>
    </g>
  </g>
</svg>
