<?xml version="1.0" encoding="UTF-8"?>
<svg width="80mm" height="16.087mm" version="1.1" viewBox="0 0 80 16.087" xmlns="http://www.w3.org/2000/svg" xmlns:cc="http://creativecommons.org/ns#" xmlns:dc="http://purl.org/dc/elements/1.1/" xmlns:rdf="http://www.w3.org/1999/02/22-rdf-syntax-ns#">
<metadata>
<rdf:RDF>
<cc:Work rdf:about="">
<dc:format>image/svg+xml</dc:format>
<dc:type rdf:resource="http://purl.org/dc/dcmitype/StillImage"/>
<dc:title/>
</cc:Work>
</rdf:RDF>
</metadata>
<g transform="translate(-21.739 43.949)">
<g stroke-width=".23524" aria-label="The pocket sized multimedia player">
<path d="m21.739-31.437h2.71v0.30488h-1.2007v2.4052h-0.30488v-2.4052h-1.2045z"/>
<path d="m26.731-30.911q0.1882 0 0.31993 0.1355 0.1355 0.13174 0.1355 0.31993v1.7276h-0.30864v-1.7276q0-0.06022-0.04517-0.10163-0.0414-0.04517-0.10163-0.04517h-1.3098q-0.06022 0-0.10539 0.04517-0.04517 0.0414-0.04517 0.10163v1.7276h-0.30864v-2.8982h0.30864v0.71515z"/>
<path d="m29.466-30.911q0.19196 0 0.3237 0.1355 0.1355 0.13174 0.1355 0.31993v0.79042h-1.9158v0.48178q0 0.06022 0.0414 0.10539 0.04517 0.0414 0.10539 0.0414h1.769v0.30864h-1.769q-0.1882 0-0.3237-0.13174-0.13174-0.1355-0.13174-0.3237v-1.2722q0-0.1882 0.13174-0.31993 0.1355-0.1355 0.3237-0.1355zm-1.4566 0.93722h1.6034v-0.48178q0-0.06022-0.04517-0.10163-0.0414-0.04517-0.10163-0.04517h-1.3098q-0.06022 0-0.10539 0.04517-0.0414 0.0414-0.0414 0.10163z"/>
<path d="m33.575-30.911q0.1882 0 0.31993 0.1355 0.1355 0.13174 0.1355 0.31993v1.2722q0 0.1882-0.1355 0.3237-0.13174 0.13174-0.31993 0.13174h-1.4604v0.8657h-0.30864v-3.0488zm0.14679 1.7276v-1.2722q0-0.06022-0.04517-0.10163-0.0414-0.04517-0.10163-0.04517h-1.3098q-0.06022 0-0.10539 0.04517-0.04517 0.0414-0.04517 0.10163v1.2722q0 0.06022 0.04517 0.10539 0.04517 0.0414 0.10539 0.0414h1.3098q0.06022 0 0.10163-0.0414 0.04517-0.04517 0.04517-0.10539z"/>
<path d="m34.985-30.911h1.3098q0.19196 0 0.3237 0.1355 0.1355 0.13174 0.1355 0.31993v1.2722q0 0.1882-0.1355 0.3237-0.13174 0.13174-0.3237 0.13174h-1.3098q-0.1882 0-0.3237-0.13174-0.13174-0.1355-0.13174-0.3237v-1.2722q0-0.1882 0.13174-0.31993 0.1355-0.1355 0.3237-0.1355zm1.3098 0.30864h-1.3098q-0.06022 0-0.10539 0.04517-0.0414 0.0414-0.0414 0.10163v1.2722q0 0.06022 0.0414 0.10539 0.04517 0.0414 0.10539 0.0414h1.3098q0.06022 0 0.10163-0.0414 0.04517-0.04517 0.04517-0.10539v-1.2722q0-0.06022-0.04517-0.10163-0.0414-0.04517-0.10163-0.04517z"/>
<path d="m37.823-29.036h1.769v0.30864h-1.769q-0.1882 0-0.3237-0.13174-0.13174-0.1355-0.13174-0.3237v-1.2722q0-0.1882 0.13174-0.31993 0.1355-0.1355 0.3237-0.1355h1.7615v0.30864h-1.7615q-0.06022 0-0.10539 0.04517-0.0414 0.0414-0.0414 0.10163v1.2722q0 0.06022 0.0414 0.10539 0.04517 0.0414 0.10539 0.0414z"/>
<path d="m41.927-30.911h0.4065l-0.98991 1.0915 0.98615 1.0915h-0.40274l-0.85818-0.93722h-0.60223v0.93722h-0.30864v-2.8982h0.30864v1.6524h0.60223z"/>
<path d="m44.558-30.911q0.19196 0 0.3237 0.1355 0.1355 0.13174 0.1355 0.31993v0.79042h-1.9158v0.48178q0 0.06022 0.0414 0.10539 0.04517 0.0414 0.10539 0.0414h1.769v0.30864h-1.769q-0.1882 0-0.3237-0.13174-0.13174-0.1355-0.13174-0.3237v-1.2722q0-0.1882 0.13174-0.31993 0.1355-0.1355 0.3237-0.1355zm-1.4566 0.93722h1.6034v-0.48178q0-0.06022-0.04517-0.10163-0.0414-0.04517-0.10163-0.04517h-1.3098q-0.06022 0-0.10539 0.04517-0.0414 0.0414-0.0414 0.10163z"/>
<path d="m46.891-30.602h-0.94474v1.419q0 0.06022 0.0414 0.10539 0.04517 0.0414 0.10539 0.0414h0.79795v0.30864h-0.79795q-0.19196 0-0.3237-0.13174-0.13174-0.1355-0.13174-0.3237v-2.4428h0.30864v0.71515h0.94474z"/>
<path d="m50.88-30.455v0.03011h-0.31241v-0.03011q0-0.06022-0.04517-0.10163-0.0414-0.04517-0.10163-0.04517h-1.3098q-0.06022 0-0.10539 0.04517-0.0414 0.0414-0.0414 0.10163v0.33499q0 0.06022 0.0414 0.10539 0.04517 0.0414 0.10539 0.0414h1.3098q0.19196 0 0.3237 0.1355 0.1355 0.13174 0.1355 0.31993v0.33499q0 0.1882-0.1355 0.3237-0.13174 0.13174-0.3237 0.13174h-1.3098q-0.1882 0-0.3237-0.13174-0.13174-0.1355-0.13174-0.3237v-0.03011h0.30864v0.03011q0 0.06022 0.0414 0.10539 0.04517 0.0414 0.10539 0.0414h1.3098q0.06022 0 0.10163-0.0414 0.04517-0.04517 0.04517-0.10539v-0.33499q0-0.06022-0.04517-0.10163-0.0414-0.04517-0.10163-0.04517h-1.3098q-0.1882 0-0.3237-0.13174-0.13174-0.1355-0.13174-0.3237v-0.33499q0-0.1882 0.13174-0.31993 0.1355-0.1355 0.3237-0.1355h1.3098q0.19196 0 0.3237 0.1355 0.1355 0.13174 0.1355 0.31993z"/>
<path d="m51.486-28.727v-2.1831h0.30864v2.1831zm0-2.8982h0.30864v0.30864h-0.30864z"/>
<path d="m52.515-30.602v-0.30864h2.2245v0.42156l-1.8857 1.4529h1.8857v0.30864h-2.2245v-0.42156l1.8857-1.4529z"/>
<path d="m57.033-30.911q0.19196 0 0.3237 0.1355 0.1355 0.13174 0.1355 0.31993v0.79042h-1.9158v0.48178q0 0.06022 0.0414 0.10539 0.04517 0.0414 0.10539 0.0414h1.769v0.30864h-1.769q-0.1882 0-0.3237-0.13174-0.13174-0.1355-0.13174-0.3237v-1.2722q0-0.1882 0.13174-0.31993 0.1355-0.1355 0.3237-0.1355zm-1.4566 0.93722h1.6034v-0.48178q0-0.06022-0.04517-0.10163-0.0414-0.04517-0.10163-0.04517h-1.3098q-0.06022 0-0.10539 0.04517-0.0414 0.0414-0.0414 0.10163z"/>
<path d="m59.916-31.626h0.30864v2.8982h-1.7653q-0.19196 0-0.32746-0.13174-0.13174-0.1355-0.13174-0.3237v-1.2722q0-0.1882 0.13174-0.31993 0.1355-0.1355 0.32746-0.1355h1.4566zm-1.4566 2.5896h1.3098q0.06022 0 0.10163-0.0414 0.04517-0.04517 0.04517-0.10539v-1.2722q0-0.06022-0.04517-0.10163-0.0414-0.04517-0.10163-0.04517h-1.3098q-0.06022 0-0.10539 0.04517-0.0414 0.0414-0.0414 0.10163v1.2722q0 0.06022 0.0414 0.10539 0.04517 0.0414 0.10539 0.0414z"/>
<path d="m65.007-30.911q0.19196 0 0.3237 0.1355 0.13174 0.13174 0.13174 0.31993v1.7276h-0.30488v-1.7276q0-0.06022-0.04517-0.10163-0.04517-0.04517-0.10539-0.04517h-0.90711q-0.06022 0-0.10539 0.04517-0.0414 0.0414-0.0414 0.10163v1.7276h-0.31241v-1.7276q0-0.06022-0.04517-0.10163-0.0414-0.04517-0.10163-0.04517h-0.91087q-0.06022 0-0.10539 0.04517-0.0414 0.0414-0.0414 0.10163v1.7276h-0.31241v-2.1831z"/>
<path d="m67.954-30.911h0.30864v1.7276q0 0.1882-0.1355 0.3237-0.13174 0.13174-0.3237 0.13174h-1.3098q-0.1882 0-0.3237-0.13174-0.13174-0.1355-0.13174-0.3237v-1.7276h0.30864v1.7276q0 0.06022 0.0414 0.10539 0.04517 0.0414 0.10539 0.0414h1.3098q0.06022 0 0.10539-0.0414 0.04517-0.04517 0.04517-0.10539z"/>
<path d="m68.887-31.626h0.30864v2.4428q0 0.06022 0.0414 0.10539 0.04517 0.0414 0.10539 0.0414h0.36886v0.30864h-0.36886q-0.1882 0-0.3237-0.13174-0.13174-0.1355-0.13174-0.3237z"/>
<path d="m71.519-30.602h-0.94475v1.419q0 0.06022 0.0414 0.10539 0.04517 0.0414 0.10539 0.0414h0.79795v0.30864h-0.79795q-0.19196 0-0.3237-0.13174-0.13174-0.1355-0.13174-0.3237v-2.4428h0.30864v0.71515h0.94475z"/>
<path d="m72.063-28.727v-2.1831h0.30864v2.1831zm0-2.8982h0.30864v0.30864h-0.30864z"/>
<path d="m75.975-30.911q0.19196 0 0.3237 0.1355 0.13174 0.13174 0.13174 0.31993v1.7276h-0.30488v-1.7276q0-0.06022-0.04517-0.10163-0.04517-0.04517-0.10539-0.04517h-0.90711q-0.06022 0-0.10539 0.04517-0.0414 0.0414-0.0414 0.10163v1.7276h-0.31241v-1.7276q0-0.06022-0.04517-0.10163-0.0414-0.04517-0.10163-0.04517h-0.91087q-0.06022 0-0.10539 0.04517-0.0414 0.0414-0.0414 0.10163v1.7276h-0.31241v-2.1831z"/>
<path d="m78.764-30.911q0.19196 0 0.3237 0.1355 0.1355 0.13174 0.1355 0.31993v0.79042h-1.9158v0.48178q0 0.06022 0.0414 0.10539 0.04517 0.0414 0.10539 0.0414h1.769v0.30864h-1.769q-0.1882 0-0.3237-0.13174-0.13174-0.1355-0.13174-0.3237v-1.2722q0-0.1882 0.13174-0.31993 0.1355-0.1355 0.3237-0.1355zm-1.4566 0.93722h1.6034v-0.48178q0-0.06022-0.04517-0.10163-0.0414-0.04517-0.10163-0.04517h-1.3098q-0.06022 0-0.10539 0.04517-0.0414 0.0414-0.0414 0.10163z"/>
<path d="m81.647-31.626h0.30864v2.8982h-1.7653q-0.19196 0-0.32746-0.13174-0.13174-0.1355-0.13174-0.3237v-1.2722q0-0.1882 0.13174-0.31993 0.1355-0.1355 0.32746-0.1355h1.4566zm-1.4566 2.5896h1.3098q0.06022 0 0.10163-0.0414 0.04517-0.04517 0.04517-0.10539v-1.2722q0-0.06022-0.04517-0.10163-0.0414-0.04517-0.10163-0.04517h-1.3098q-0.06022 0-0.10539 0.04517-0.0414 0.0414-0.0414 0.10163v1.2722q0 0.06022 0.0414 0.10539 0.04517 0.0414 0.10539 0.0414z"/>
<path d="m82.59-28.727v-2.1831h0.30864v2.1831zm0-2.8982h0.30864v0.30864h-0.30864z"/>
<path d="m85.245-30.911q0.19196 0 0.3237 0.1355 0.1355 0.13174 0.1355 0.31993v1.7276h-1.769q-0.1882 0-0.3237-0.13174-0.13174-0.1355-0.13174-0.3237v-0.79042h1.9121v-0.48178q0-0.06022-0.04517-0.10163-0.0414-0.04517-0.10163-0.04517h-1.7653v-0.30864zm0.14679 1.8744v-0.62858h-1.6034v0.48178q0 0.06022 0.0414 0.10539 0.04517 0.0414 0.10539 0.0414z"/>
<path d="m89.358-30.911q0.1882 0 0.31993 0.1355 0.1355 0.13174 0.1355 0.31993v1.2722q0 0.1882-0.1355 0.3237-0.13174 0.13174-0.31993 0.13174h-1.4604v0.8657h-0.30864v-3.0488zm0.14679 1.7276v-1.2722q0-0.06022-0.04517-0.10163-0.0414-0.04517-0.10163-0.04517h-1.3098q-0.06022 0-0.10539 0.04517-0.04517 0.0414-0.04517 0.10163v1.2722q0 0.06022 0.04517 0.10539 0.04517 0.0414 0.10539 0.0414h1.3098q0.06022 0 0.10163-0.0414 0.04517-0.04517 0.04517-0.10539z"/>
<path d="m90.316-31.626h0.30864v2.4428q0 0.06022 0.0414 0.10539 0.04517 0.0414 0.10539 0.0414h0.36886v0.30864h-0.36886q-0.1882 0-0.3237-0.13174-0.13174-0.1355-0.13174-0.3237z"/>
<path d="m93.419-30.911q0.19196 0 0.3237 0.1355 0.1355 0.13174 0.1355 0.31993v1.7276h-1.769q-0.1882 0-0.3237-0.13174-0.13174-0.1355-0.13174-0.3237v-0.79042h1.9121v-0.48178q0-0.06022-0.04517-0.10163-0.0414-0.04517-0.10163-0.04517h-1.7653v-0.30864zm0.14679 1.8744v-0.62858h-1.6034v0.48178q0 0.06022 0.0414 0.10539 0.04517 0.0414 0.10539 0.0414z"/>
<path d="m96.682-28.321q0 0.19196-0.13174 0.3237-0.13174 0.1355-0.3237 0.1355h-1.3625v-0.31241h1.3625q0.06022 0 0.10163-0.04517 0.04517-0.0414 0.04517-0.10163v-0.4065h-1.4566q-0.1882 0-0.3237-0.13174-0.13174-0.1355-0.13174-0.3237v-1.7201h0.30864v1.7201q0 0.06022 0.0414 0.10539 0.04517 0.0414 0.10539 0.0414h1.3098q0.06022 0 0.10163-0.0414 0.04517-0.04517 0.04517-0.10539v-1.7201h0.30864z"/>
<path d="m99.003-30.911q0.19196 0 0.3237 0.1355 0.1355 0.13174 0.1355 0.31993v0.79042h-1.9158v0.48178q0 0.06022 0.0414 0.10539 0.04517 0.0414 0.10539 0.0414h1.769v0.30864h-1.769q-0.1882 0-0.3237-0.13174-0.13174-0.1355-0.13174-0.3237v-1.2722q0-0.1882 0.13174-0.31993 0.1355-0.1355 0.3237-0.1355zm-1.4566 0.93722h1.6034v-0.48178q0-0.06022-0.04517-0.10163-0.0414-0.04517-0.10163-0.04517h-1.3098q-0.06022 0-0.10539 0.04517-0.0414 0.0414-0.0414 0.10163z"/>
<path d="m100.51-30.911h1.227v0.30864h-1.227q-0.0602 0-0.10539 0.04517-0.0414 0.0414-0.0414 0.10163v1.7276h-0.30865v-1.7276q0-0.1882 0.13174-0.31993 0.1355-0.1355 0.3237-0.1355z"/>
</g>
<g>
<path d="m31.597-39.637c0-0.33428-0.2816-0.61588-0.61619-0.61588h-5.5447v1.8483h5.5447c0.33459 0 0.61619-0.27294 0.61619-0.61619zm1.2324 0v0.61627c0 1.0209-0.83636 1.8483-1.8486 1.8483h-5.5447v1.8483h-1.2321v-6.1608h6.7767c1.0122 0 1.8486 0.82708 1.8486 1.848"/>
<path d="m35.558-36.565h4.92c0.352 0 0.62486-0.27316 0.62486-0.60753v-2.4645c0-0.33428-0.27286-0.61588-0.62486-0.61588h-4.92c-0.34333 0-0.61627 0.2816-0.61627 0.61588v2.4645c0 0.33436 0.27294 0.60753 0.61627 0.60753zm4.92 1.2408h-4.92c-1.021 0-1.8483-0.83613-1.8483-1.8483v-2.4645c0-1.0209 0.8274-1.848 1.8483-1.848h4.92c1.0296 0 1.848 0.82708 1.848 1.848v2.4645c0 1.0122-0.81834 1.8483-1.848 1.8483"/>
<path d="m44.438-39.637v2.4645c0 0.33436 0.2819 0.60753 0.61619 0.60753h6.7774v1.2408h-6.7774c-1.0209 0-1.848-0.83613-1.848-1.8483v-2.4645c0-1.0209 0.82708-1.848 1.848-1.848h6.7774v1.2321h-6.7774c-0.33428 0-0.61619 0.2816-0.61619 0.61588"/>
<path d="m61.469-35.324h-2.0595l-3.371-2.526-2.1036 1.4786v1.0473h-1.2234v-6.1608h1.2234v3.6085l5.1489-3.6085h2.1385l-4.128 2.8956 4.3745 3.2652"/>
<path d="m64.206-41.485h6.777v1.2321h-6.777c-0.34303 0-0.6162 0.2816-0.6162 0.61588v0.61627h7.3932v1.2321h-7.3932v0.61619c0 0.33436 0.27317 0.60753 0.6162 0.60753h6.777v1.2408h-6.777c-1.021 0-1.857-0.83613-1.857-1.8483v-2.4645c0-1.0209 0.83606-1.848 1.857-1.848"/>
<path d="m75.561-35.324v-4.9288h-3.6966v-1.2321h8.6254v1.2321h-3.6963v4.9288h-1.2325"/>
<path d="m87.578-35.922-3.3444-5.5623h1.4434l2.9576 4.92h0.52785l2.9573-4.92h1.4346l-3.3356 5.5623c-0.2115 0.35232-0.60752 0.59856-1.0562 0.59856h-0.52785c-0.44932 0-0.84534-0.24624-1.0565-0.59856"/>
<path d="m99.891-43.949h-76.303c-1.0123 0-1.8484 0.83606-1.8484 1.8483v7.3932c0 1.0122 0.83606 1.848 1.8484 1.848h78.152v-1.2322h-78.152c-0.33435 0-0.61597-0.28159-0.61597-0.61587v-7.3932c0-0.33436 0.28162-0.61627 0.61597-0.61627h76.303v0.0087c0.33436 0 0.61658 0.27316 0.61658 0.60753v4.9287c0 0.33436-0.28222 0.60753-0.61658 0.60753h-4.9286c-0.33459 0-0.60714-0.27316-0.60714-0.60753v-1.8483h-1.2411v1.8483c0 1.0122 0.83606 1.8483 1.8483 1.8483h4.9286c1.0299 0 1.8482-0.83613 1.8482-1.8483v-4.9287c0-1.0123-0.81826-1.8483-1.8482-1.8483"/>
</g>
</g>
</svg>
